{"glyphs":{"0":{"ha":678,"x_min":85,"x_max":593,"o":"m 339 -11 q 165 24 215 -11 q 99 153 114 58 q 85 478 85 247 q 99 803 85 708 q 165 932 114 897 q 339 967 215 967 q 517 932 467 967 q 581 806 568 897 q 593 478 593 715 q 578 153 593 247 q 513 24 564 58 q 339 -11 463 -11 m 339 47 q 472 70 436 47 q 519 176 508 93 q 531 478 531 258 q 519 780 531 697 q 472 885 508 863 q 339 908 436 908 q 206 885 242 908 q 158 780 169 863 q 147 478 147 697 q 158 176 147 258 q 206 70 169 93 q 339 47 242 47 z "},"1":{"ha":368,"x_min":47,"x_max":249,"o":"m 185 0 l 185 871 l 47 797 l 47 861 l 201 956 l 249 956 l 249 0 l 185 0 z "},"2":{"ha":603,"x_min":71,"x_max":532,"o":"m 133 58 l 532 58 l 532 0 l 71 0 l 71 101 q 76 270 71 221 q 105 351 82 319 q 186 417 128 383 l 356 518 l 383 535 q 453 605 436 565 q 469 722 469 644 q 455 840 469 801 q 403 894 440 879 q 294 908 367 908 q 85 893 207 908 l 85 947 q 186 961 124 956 q 307 967 249 967 q 430 951 383 967 q 504 886 476 936 q 532 735 532 836 q 520 611 532 657 q 483 536 508 565 q 408 478 457 507 l 192 351 q 144 297 156 329 q 135 246 138 276 q 133 144 133 215 l 133 58 z "},"3":{"ha":585,"x_min":47,"x_max":507,"o":"m 247 -11 q 145 -6 201 -11 q 47 10 89 0 l 47 64 q 244 47 164 47 q 356 63 314 47 q 420 122 397 78 q 443 249 443 165 q 410 408 443 360 q 297 456 376 456 l 167 456 l 167 514 l 297 514 q 435 710 435 514 q 414 836 435 793 q 351 894 393 879 q 235 908 310 908 q 144 903 196 908 q 51 892 92 899 l 51 946 q 148 961 93 956 q 249 967 203 967 q 399 941 344 967 q 476 861 453 915 q 499 715 499 807 q 467 561 499 614 q 375 492 436 508 l 375 486 q 473 418 439 471 q 507 256 507 365 q 486 107 507 164 q 409 19 465 50 q 247 -11 353 -11 z "},"4":{"ha":649,"x_min":50,"x_max":593,"o":"m 422 0 l 422 240 l 50 240 l 50 293 l 319 956 l 386 956 l 118 299 l 424 299 l 428 699 l 485 699 l 485 299 l 593 299 l 593 240 l 485 240 l 485 0 l 422 0 z "},"5":{"ha":607,"x_min":81,"x_max":540,"o":"m 81 64 q 279 47 200 47 q 403 68 361 47 q 461 137 446 89 q 476 275 476 185 q 460 418 476 374 q 399 478 443 463 q 260 493 356 493 q 89 474 199 493 l 89 956 l 489 956 l 489 897 l 151 897 l 151 538 q 304 551 211 551 q 456 523 406 551 q 524 440 507 494 q 540 286 540 385 q 519 108 540 171 q 443 17 499 46 q 282 -11 388 -11 q 180 -6 236 -11 q 81 10 124 0 l 81 64 z "},"6":{"ha":658,"x_min":85,"x_max":594,"o":"m 351 -11 q 228 1 275 -11 q 149 46 181 13 q 100 142 118 79 q 88 250 90 176 q 85 465 85 324 q 88 676 85 601 q 106 797 92 751 q 191 929 132 892 q 368 967 250 967 q 458 961 406 967 q 557 946 511 956 l 557 892 q 378 908 464 908 q 225 876 272 908 q 163 760 178 844 q 147 485 147 675 l 154 485 q 216 537 172 518 q 353 556 260 556 q 501 538 451 556 q 572 466 550 521 q 594 294 594 411 q 576 107 594 171 q 506 16 557 43 q 351 -11 456 -11 m 343 47 q 463 63 425 47 q 517 124 501 78 q 532 268 532 169 q 518 424 532 378 q 467 484 504 471 q 343 497 431 497 q 215 480 256 497 q 163 426 175 463 q 150 317 150 390 q 167 142 150 199 q 223 67 183 86 q 343 47 263 47 z "},"7":{"ha":554,"x_min":38,"x_max":506,"o":"m 140 0 l 438 897 l 38 897 l 38 956 l 506 956 l 506 904 l 207 0 l 140 0 z "},"8":{"ha":682,"x_min":78,"x_max":604,"o":"m 342 -11 q 175 17 232 -11 q 98 102 118 46 q 78 256 78 158 q 92 382 78 336 q 133 450 106 428 q 206 485 160 472 l 206 490 q 114 558 143 506 q 85 715 85 611 q 107 862 85 808 q 185 941 129 915 q 342 967 240 967 q 498 941 443 967 q 575 862 553 915 q 597 715 597 808 q 569 558 597 611 q 476 490 540 506 l 476 485 q 549 450 522 472 q 590 382 576 428 q 604 256 604 336 q 584 102 604 158 q 508 17 564 46 q 342 -11 451 -11 m 342 513 q 461 530 421 513 q 518 589 501 547 q 535 710 535 631 q 519 832 535 790 q 463 891 504 874 q 342 908 422 908 q 219 891 260 908 q 164 832 179 874 q 149 710 149 790 q 165 589 149 631 q 222 530 181 547 q 342 513 263 513 m 342 47 q 463 63 421 47 q 522 122 504 79 q 540 249 540 164 q 524 381 540 339 q 467 439 508 424 q 342 454 426 454 q 215 439 256 454 q 158 381 174 424 q 142 249 142 339 q 160 122 142 164 q 219 63 178 79 q 342 47 261 47 z "},"9":{"ha":658,"x_min":64,"x_max":575,"o":"m 292 -11 q 197 -6 250 -11 q 101 10 143 0 l 101 64 q 281 47 194 47 q 433 79 386 47 q 497 197 481 111 q 513 471 513 282 l 506 471 q 442 419 486 438 q 306 400 399 400 q 158 417 207 400 q 86 490 108 435 q 64 661 64 544 q 83 849 64 785 q 153 940 101 913 q 308 967 204 967 q 478 936 424 967 q 557 819 533 906 q 572 701 568 775 q 575 490 575 628 q 570 266 575 347 q 549 138 565 185 q 461 22 519 54 q 292 -11 403 -11 m 317 458 q 443 476 403 458 q 496 529 483 493 q 508 639 508 565 q 492 813 508 757 q 435 889 475 869 q 317 908 396 908 q 196 893 235 908 q 142 832 157 878 q 126 688 126 786 q 141 531 126 578 q 192 472 156 485 q 317 458 229 458 z "},"\u0000":{"ha":0,"x_min":0,"x_max":0,"o":""},"\r":{"ha":263,"x_min":0,"x_max":0,"o":""}," ":{"ha":263,"x_min":0,"x_max":0,"o":""},"A":{"ha":686,"x_min":33,"x_max":651,"o":"m 586 0 l 503 294 l 181 294 l 99 0 l 33 0 l 306 956 l 381 956 l 651 0 l 586 0 m 344 857 l 338 857 l 196 353 l 486 353 l 344 857 z "},"Á":{"ha":686,"x_min":33,"x_max":651,"o":"m 586 0 l 503 294 l 181 294 l 99 0 l 33 0 l 306 956 l 381 956 l 651 0 l 586 0 m 344 857 l 338 857 l 196 353 l 486 353 l 344 857 m 311 1042 l 311 1049 l 389 1235 l 458 1235 l 458 1228 l 354 1042 l 311 1042 z "},"Ă":{"ha":686,"x_min":33,"x_max":651,"o":"m 586 0 l 503 294 l 181 294 l 99 0 l 33 0 l 306 956 l 381 956 l 651 0 l 586 0 m 344 857 l 338 857 l 196 353 l 486 353 l 344 857 m 489 1233 q 481 1124 489 1163 q 442 1061 474 1085 q 342 1038 410 1038 q 242 1061 274 1038 q 203 1123 211 1085 q 196 1233 196 1161 l 246 1233 q 251 1144 246 1174 q 276 1098 256 1114 q 342 1082 296 1082 q 408 1098 388 1082 q 433 1144 428 1114 q 438 1233 438 1174 l 489 1233 z "},"Ắ":{"ha":686,"x_min":33,"x_max":651,"o":"m 586 0 l 503 294 l 181 294 l 99 0 l 33 0 l 306 956 l 381 956 l 651 0 l 586 0 m 344 857 l 338 857 l 196 353 l 486 353 l 344 857 m 488 1233 q 480 1124 488 1163 q 440 1061 472 1085 q 340 1038 408 1038 q 241 1061 272 1038 q 202 1123 210 1085 q 194 1233 194 1161 l 244 1233 q 249 1144 244 1174 q 274 1098 254 1114 q 340 1082 294 1082 q 406 1098 386 1082 q 431 1144 426 1114 q 436 1233 436 1174 l 488 1233 m 318 1281 l 318 1288 l 396 1474 l 465 1474 l 465 1467 l 361 1281 l 318 1281 z "},"Ặ":{"ha":686,"x_min":33,"x_max":651,"o":"m 586 0 l 503 294 l 181 294 l 99 0 l 33 0 l 306 956 l 381 956 l 651 0 l 586 0 m 344 857 l 338 857 l 196 353 l 486 353 l 344 857 m 306 -185 l 306 -86 l 382 -86 l 382 -185 l 306 -185 m 489 1233 q 481 1124 489 1163 q 442 1061 474 1085 q 342 1038 410 1038 q 242 1061 274 1038 q 203 1123 211 1085 q 196 1233 196 1161 l 246 1233 q 251 1144 246 1174 q 276 1098 256 1114 q 342 1082 296 1082 q 408 1098 388 1082 q 433 1144 428 1114 q 438 1233 438 1174 l 489 1233 z "},"Ằ":{"ha":686,"x_min":33,"x_max":651,"o":"m 586 0 l 503 294 l 181 294 l 99 0 l 33 0 l 306 956 l 381 956 l 651 0 l 586 0 m 344 857 l 338 857 l 196 353 l 486 353 l 344 857 m 490 1233 q 483 1124 490 1163 q 443 1061 475 1085 q 343 1038 411 1038 q 244 1061 275 1038 q 205 1123 213 1085 q 197 1233 197 1161 l 247 1233 q 252 1144 247 1174 q 277 1098 257 1114 q 343 1082 297 1082 q 409 1098 389 1082 q 434 1144 429 1114 q 439 1233 439 1174 l 490 1233 m 331 1281 l 226 1467 l 226 1474 l 296 1474 l 374 1288 l 374 1281 l 331 1281 z "},"Ẳ":{"ha":686,"x_min":33,"x_max":651,"o":"m 586 0 l 503 294 l 181 294 l 99 0 l 33 0 l 306 956 l 381 956 l 651 0 l 586 0 m 344 857 l 338 857 l 196 353 l 486 353 l 344 857 m 489 1233 q 481 1124 489 1163 q 442 1061 474 1085 q 342 1038 410 1038 q 242 1061 274 1038 q 203 1123 211 1085 q 196 1233 196 1161 l 246 1233 q 251 1144 246 1174 q 276 1098 256 1114 q 342 1082 296 1082 q 408 1098 388 1082 q 433 1144 428 1114 q 438 1233 438 1174 l 489 1233 m 292 1247 q 303 1288 292 1276 q 344 1310 315 1300 l 367 1315 q 415 1338 403 1326 q 428 1376 428 1349 q 421 1410 428 1400 q 394 1425 414 1421 q 329 1429 374 1429 q 215 1422 288 1429 l 215 1465 q 338 1474 296 1474 q 449 1454 419 1474 q 478 1383 478 1435 q 467 1323 478 1343 q 415 1289 456 1303 l 394 1282 q 355 1268 365 1274 q 342 1256 344 1263 q 339 1233 339 1250 l 292 1233 l 292 1247 z "},"Ẵ":{"ha":686,"x_min":33,"x_max":651,"o":"m 586 0 l 503 294 l 181 294 l 99 0 l 33 0 l 306 956 l 381 956 l 651 0 l 586 0 m 344 857 l 338 857 l 196 353 l 486 353 l 344 857 m 486 1233 q 478 1124 486 1163 q 439 1061 471 1085 q 339 1038 407 1038 q 240 1061 271 1038 q 201 1123 208 1085 q 193 1233 193 1161 l 243 1233 q 248 1144 243 1174 q 273 1098 253 1114 q 339 1082 293 1082 q 405 1098 385 1082 q 430 1144 425 1114 q 435 1233 435 1174 l 486 1233 m 529 1475 q 514 1367 529 1397 q 453 1338 499 1338 q 401 1347 426 1338 q 333 1374 375 1356 q 306 1386 328 1376 q 267 1401 285 1396 q 233 1407 249 1407 q 205 1389 211 1407 q 199 1322 199 1371 l 154 1322 q 169 1430 154 1400 q 231 1460 185 1460 q 283 1451 258 1460 q 354 1422 307 1443 q 450 1392 418 1392 q 478 1409 472 1392 q 485 1475 485 1426 l 529 1475 z "},"Ǎ":{"ha":686,"x_min":33,"x_max":651,"o":"m 586 0 l 503 294 l 181 294 l 99 0 l 33 0 l 306 956 l 381 956 l 651 0 l 586 0 m 344 857 l 338 857 l 196 353 l 486 353 l 344 857 m 306 1042 l 194 1226 l 194 1233 l 240 1233 l 343 1088 l 444 1233 l 490 1233 l 490 1226 l 381 1042 l 306 1042 z "},"Â":{"ha":686,"x_min":33,"x_max":651,"o":"m 586 0 l 503 294 l 181 294 l 99 0 l 33 0 l 306 956 l 381 956 l 651 0 l 586 0 m 344 857 l 338 857 l 196 353 l 486 353 l 344 857 m 196 1042 l 196 1049 l 306 1233 l 381 1233 l 490 1049 l 490 1042 l 444 1042 l 343 1188 l 240 1042 l 196 1042 z "},"Ấ":{"ha":686,"x_min":33,"x_max":651,"o":"m 586 0 l 503 294 l 181 294 l 99 0 l 33 0 l 306 956 l 381 956 l 651 0 l 586 0 m 344 857 l 338 857 l 196 353 l 486 353 l 344 857 m 193 1033 l 193 1040 l 303 1225 l 378 1225 l 488 1040 l 488 1033 l 442 1033 l 340 1179 l 238 1033 l 193 1033 m 425 1229 l 425 1236 l 503 1422 l 572 1422 l 572 1415 l 468 1229 l 425 1229 z "},"Ậ":{"ha":686,"x_min":33,"x_max":651,"o":"m 586 0 l 503 294 l 181 294 l 99 0 l 33 0 l 306 956 l 381 956 l 651 0 l 586 0 m 344 857 l 338 857 l 196 353 l 486 353 l 344 857 m 306 -185 l 306 -86 l 382 -86 l 382 -185 l 306 -185 m 196 1042 l 196 1049 l 306 1233 l 381 1233 l 490 1049 l 490 1042 l 444 1042 l 343 1188 l 240 1042 l 196 1042 z "},"Ầ":{"ha":686,"x_min":33,"x_max":651,"o":"m 586 0 l 503 294 l 181 294 l 99 0 l 33 0 l 306 956 l 381 956 l 651 0 l 586 0 m 344 857 l 338 857 l 196 353 l 486 353 l 344 857 m 193 1032 l 193 1039 l 303 1224 l 378 1224 l 488 1039 l 488 1032 l 442 1032 l 340 1178 l 238 1032 l 193 1032 m 442 1228 l 338 1414 l 338 1421 l 407 1421 l 485 1235 l 485 1228 l 442 1228 z "},"Ẩ":{"ha":686,"x_min":33,"x_max":651,"o":"m 586 0 l 503 294 l 181 294 l 99 0 l 33 0 l 306 956 l 381 956 l 651 0 l 586 0 m 344 857 l 338 857 l 196 353 l 486 353 l 344 857 m 196 1032 l 196 1039 l 306 1224 l 381 1224 l 490 1039 l 490 1032 l 444 1032 l 343 1178 l 240 1032 l 196 1032 m 397 1240 q 409 1281 397 1269 q 450 1303 421 1293 l 472 1308 q 521 1331 508 1319 q 533 1369 533 1342 q 526 1403 533 1393 q 499 1418 519 1414 q 435 1422 479 1422 q 321 1415 393 1422 l 321 1458 q 443 1467 401 1467 q 554 1447 525 1467 q 583 1376 583 1428 q 572 1316 583 1336 q 521 1282 561 1296 l 500 1275 q 460 1261 471 1267 q 447 1249 450 1256 q 444 1226 444 1243 l 397 1226 l 397 1240 z "},"Ẫ":{"ha":686,"x_min":33,"x_max":651,"o":"m 586 0 l 503 294 l 181 294 l 99 0 l 33 0 l 306 956 l 381 956 l 651 0 l 586 0 m 344 857 l 338 857 l 196 353 l 486 353 l 344 857 m 193 1033 l 193 1040 l 303 1225 l 378 1225 l 488 1040 l 488 1033 l 442 1033 l 340 1179 l 238 1033 l 193 1033 m 531 1465 q 515 1358 531 1388 q 454 1328 500 1328 q 402 1337 428 1328 q 335 1364 376 1346 q 308 1376 329 1367 q 268 1392 286 1386 q 235 1397 250 1397 q 206 1379 213 1397 q 200 1313 200 1361 l 156 1313 q 171 1420 156 1390 q 232 1450 186 1450 q 284 1442 260 1450 q 356 1413 308 1433 q 451 1382 419 1382 q 480 1399 474 1382 q 486 1465 486 1417 l 531 1465 z "},"Ȁ":{"ha":686,"x_min":33,"x_max":651,"o":"m 586 0 l 503 294 l 181 294 l 99 0 l 33 0 l 306 956 l 381 956 l 651 0 l 586 0 m 344 857 l 338 857 l 196 353 l 486 353 l 344 857 m 279 1047 l 238 1047 l 136 1214 l 136 1221 l 203 1221 l 279 1054 l 279 1047 m 461 1047 l 419 1047 l 318 1214 l 318 1221 l 385 1221 l 461 1054 l 461 1047 z "},"Ä":{"ha":686,"x_min":33,"x_max":651,"o":"m 586 0 l 503 294 l 181 294 l 99 0 l 33 0 l 306 956 l 381 956 l 651 0 l 586 0 m 344 857 l 338 857 l 196 353 l 486 353 l 344 857 m 188 1071 l 188 1161 l 256 1161 l 256 1071 l 188 1071 m 431 1071 l 431 1161 l 497 1161 l 497 1071 l 431 1071 z "},"Ạ":{"ha":686,"x_min":33,"x_max":651,"o":"m 586 0 l 503 294 l 181 294 l 99 0 l 33 0 l 306 956 l 381 956 l 651 0 l 586 0 m 344 857 l 338 857 l 196 353 l 486 353 l 344 857 m 306 -185 l 306 -86 l 382 -86 l 382 -185 l 306 -185 z "},"À":{"ha":686,"x_min":33,"x_max":651,"o":"m 586 0 l 503 294 l 181 294 l 99 0 l 33 0 l 306 956 l 381 956 l 651 0 l 586 0 m 344 857 l 338 857 l 196 353 l 486 353 l 344 857 m 332 1042 l 228 1228 l 228 1235 l 297 1235 l 375 1049 l 375 1042 l 332 1042 z "},"Ả":{"ha":686,"x_min":33,"x_max":651,"o":"m 586 0 l 503 294 l 181 294 l 99 0 l 33 0 l 306 956 l 381 956 l 651 0 l 586 0 m 344 857 l 338 857 l 196 353 l 486 353 l 344 857 m 288 1038 q 299 1078 288 1067 q 340 1100 311 1090 l 363 1106 q 411 1128 399 1117 q 424 1167 424 1139 q 417 1201 424 1190 q 390 1215 410 1211 q 325 1219 369 1219 q 211 1213 283 1219 l 211 1256 q 333 1264 292 1264 q 444 1244 415 1264 q 474 1174 474 1225 q 463 1113 474 1133 q 411 1079 451 1093 l 390 1072 q 351 1058 363 1064 q 338 1046 340 1053 q 335 1024 335 1039 l 288 1024 l 288 1038 z "},"Ȃ":{"ha":686,"x_min":33,"x_max":651,"o":"m 586 0 l 503 294 l 181 294 l 99 0 l 33 0 l 306 956 l 381 956 l 651 0 l 586 0 m 344 857 l 338 857 l 196 353 l 486 353 l 344 857 m 196 1046 q 203 1156 196 1117 q 243 1218 211 1194 q 343 1242 275 1242 q 442 1218 411 1242 q 481 1156 474 1194 q 489 1046 489 1118 l 439 1046 q 434 1135 439 1106 q 409 1181 429 1165 q 343 1197 389 1197 q 277 1181 297 1197 q 252 1135 257 1165 q 247 1046 247 1106 l 196 1046 z "},"Ā":{"ha":686,"x_min":33,"x_max":651,"o":"m 586 0 l 503 294 l 181 294 l 99 0 l 33 0 l 306 956 l 381 956 l 651 0 l 586 0 m 344 857 l 338 857 l 196 353 l 486 353 l 344 857 m 211 1172 l 211 1233 l 472 1233 l 472 1172 l 211 1172 z "},"Ą":{"ha":686,"x_min":33,"x_max":651,"o":"m 558 -160 q 624 -222 558 -222 l 646 -221 l 646 -271 q 611 -272 632 -272 q 528 -244 554 -272 q 501 -171 501 -217 q 524 -82 501 -129 q 585 3 547 -35 l 503 294 l 181 294 l 99 0 l 33 0 l 306 956 l 381 956 l 651 0 l 639 0 q 583 -76 608 -29 q 558 -160 558 -122 m 196 353 l 486 353 l 346 857 l 339 857 l 196 353 z "},"Å":{"ha":686,"x_min":33,"x_max":651,"o":"m 651 0 l 586 0 l 503 294 l 181 294 l 99 0 l 33 0 l 301 943 q 242 961 261 947 q 218 999 224 975 q 213 1068 213 1022 q 220 1144 213 1119 q 255 1181 228 1169 q 342 1193 282 1193 q 429 1181 401 1193 q 465 1144 457 1169 q 474 1068 474 1119 q 468 999 474 1024 q 443 961 463 975 q 385 944 424 947 l 651 0 m 264 1068 q 268 1016 264 1032 q 289 993 272 1000 q 342 986 306 986 q 396 993 379 986 q 417 1016 413 1000 q 422 1068 422 1032 q 417 1120 422 1104 q 396 1143 413 1136 q 342 1150 379 1150 q 289 1143 306 1150 q 268 1120 272 1136 q 264 1068 264 1104 m 196 353 l 486 353 l 344 857 l 338 857 l 196 353 z "},"Ǻ":{"ha":686,"x_min":33,"x_max":651,"o":"m 651 0 l 586 0 l 503 294 l 181 294 l 99 0 l 33 0 l 301 943 q 242 961 261 947 q 218 999 224 975 q 213 1068 213 1022 q 220 1144 213 1119 q 255 1181 228 1169 q 342 1193 282 1193 q 429 1181 401 1193 q 465 1144 457 1169 q 474 1068 474 1119 q 468 999 474 1024 q 443 961 463 975 q 385 944 424 947 l 651 0 m 264 1068 q 268 1016 264 1032 q 289 993 272 1000 q 342 986 306 986 q 396 993 379 986 q 417 1016 413 1000 q 422 1068 422 1032 q 417 1120 422 1104 q 396 1143 413 1136 q 342 1150 379 1150 q 289 1143 306 1150 q 268 1120 272 1136 q 264 1068 264 1104 m 196 353 l 486 353 l 344 857 l 338 857 l 196 353 m 314 1278 l 314 1285 l 392 1471 l 461 1471 l 461 1464 l 357 1278 l 314 1278 z "},"Ã":{"ha":686,"x_min":33,"x_max":651,"o":"m 586 0 l 503 294 l 181 294 l 99 0 l 33 0 l 306 956 l 381 956 l 651 0 l 586 0 m 344 857 l 338 857 l 196 353 l 486 353 l 344 857 m 531 1194 q 515 1087 531 1117 q 454 1057 500 1057 q 402 1066 428 1057 q 335 1093 376 1075 q 308 1106 329 1096 q 268 1121 286 1115 q 235 1126 250 1126 q 206 1108 213 1126 q 200 1042 200 1090 l 156 1042 q 171 1149 156 1119 q 232 1179 186 1179 q 284 1171 260 1179 q 356 1142 308 1163 q 451 1111 419 1111 q 480 1128 474 1111 q 486 1194 486 1146 l 531 1194 z "},"Æ":{"ha":942,"x_min":-1,"x_max":888,"o":"m 550 0 l 493 294 l 171 294 l 63 0 l -1 0 l 354 956 l 888 956 l 888 897 l 440 897 l 515 513 l 840 513 l 840 454 l 526 454 l 604 58 l 888 58 l 888 0 l 550 0 m 386 857 l 379 857 l 192 353 l 482 353 l 386 857 z "},"Ǽ":{"ha":942,"x_min":-1,"x_max":888,"o":"m 550 0 l 493 294 l 171 294 l 63 0 l -1 0 l 354 956 l 888 956 l 888 897 l 440 897 l 515 513 l 840 513 l 840 454 l 526 454 l 604 58 l 888 58 l 888 0 l 550 0 m 386 857 l 379 857 l 192 353 l 482 353 l 386 857 m 442 1040 l 442 1047 l 519 1233 l 589 1233 l 589 1226 l 485 1040 l 442 1040 z "},"B":{"ha":688,"x_min":108,"x_max":611,"o":"m 108 956 l 388 956 q 555 894 507 956 q 603 717 603 832 q 569 565 603 621 q 460 492 535 508 l 460 486 q 580 408 549 469 q 611 250 611 346 q 563 68 611 136 q 379 0 515 0 l 108 0 l 108 956 m 375 514 q 497 563 454 514 q 539 706 539 611 q 504 853 539 810 q 375 897 469 897 l 172 897 l 172 514 l 375 514 m 378 58 q 510 105 472 58 q 547 257 547 151 q 508 408 547 361 q 378 456 468 456 l 172 456 l 172 58 l 378 58 z "},"C":{"ha":560,"x_min":85,"x_max":508,"o":"m 508 4 q 357 -11 444 -11 q 178 23 233 -11 q 104 156 124 57 q 85 478 85 256 q 104 797 85 697 q 179 931 124 896 q 357 967 235 967 q 438 962 396 967 q 504 949 479 957 l 504 894 q 371 908 439 908 q 219 881 264 908 q 161 768 175 853 q 147 478 147 683 q 161 188 147 272 q 219 75 175 103 q 371 47 264 47 q 508 61 446 47 l 508 4 z "},"Ć":{"ha":560,"x_min":85,"x_max":508,"o":"m 508 4 q 357 -11 444 -11 q 178 23 233 -11 q 104 156 124 57 q 85 478 85 256 q 104 797 85 697 q 179 931 124 896 q 357 967 235 967 q 438 962 396 967 q 504 949 479 957 l 504 894 q 371 908 439 908 q 219 881 264 908 q 161 768 175 853 q 147 478 147 683 q 161 188 147 272 q 219 75 175 103 q 371 47 264 47 q 508 61 446 47 l 508 4 m 251 1040 l 251 1047 l 329 1233 l 399 1233 l 399 1226 l 294 1040 l 251 1040 z "},"Č":{"ha":560,"x_min":85,"x_max":508,"o":"m 508 4 q 357 -11 444 -11 q 178 23 233 -11 q 104 156 124 57 q 85 478 85 256 q 104 797 85 697 q 179 931 124 896 q 357 967 235 967 q 438 962 396 967 q 504 949 479 957 l 504 894 q 371 908 439 908 q 219 881 264 908 q 161 768 175 853 q 147 478 147 683 q 161 188 147 272 q 219 75 175 103 q 371 47 264 47 q 508 61 446 47 l 508 4 m 242 1042 l 131 1226 l 131 1233 l 176 1233 l 279 1088 l 381 1233 l 426 1233 l 426 1226 l 317 1042 l 242 1042 z "},"Ç":{"ha":560,"x_min":85,"x_max":508,"o":"m 371 47 q 508 61 446 47 l 508 4 q 357 -11 444 -11 q 299 -10 317 -11 l 242 -264 l 175 -264 l 175 -257 l 253 -4 q 145 54 181 8 q 97 196 110 100 q 85 478 85 292 q 104 797 85 697 q 179 931 124 896 q 357 967 235 967 q 438 962 396 967 q 504 949 479 957 l 504 894 q 371 908 439 908 q 219 881 264 908 q 161 768 175 853 q 147 478 147 683 q 161 188 147 272 q 219 75 175 103 q 371 47 264 47 z "},"Ĉ":{"ha":560,"x_min":85,"x_max":508,"o":"m 508 4 q 357 -11 444 -11 q 178 23 233 -11 q 104 156 124 57 q 85 478 85 256 q 104 797 85 697 q 179 931 124 896 q 357 967 235 967 q 438 962 396 967 q 504 949 479 957 l 504 894 q 371 908 439 908 q 219 881 264 908 q 161 768 175 853 q 147 478 147 683 q 161 188 147 272 q 219 75 175 103 q 371 47 264 47 q 508 61 446 47 l 508 4 m 132 1042 l 132 1049 l 242 1233 l 317 1233 l 426 1049 l 426 1042 l 381 1042 l 279 1188 l 176 1042 l 132 1042 z "},"Ċ":{"ha":560,"x_min":85,"x_max":508,"o":"m 508 4 q 357 -11 444 -11 q 178 23 233 -11 q 104 156 124 57 q 85 478 85 256 q 104 797 85 697 q 179 931 124 896 q 357 967 235 967 q 438 962 396 967 q 504 949 479 957 l 504 894 q 371 908 439 908 q 219 881 264 908 q 161 768 175 853 q 147 478 147 683 q 161 188 147 272 q 219 75 175 103 q 371 47 264 47 q 508 61 446 47 l 508 4 m 244 1125 l 244 1215 l 311 1215 l 311 1125 l 244 1125 z "},"D":{"ha":694,"x_min":108,"x_max":610,"o":"m 108 956 l 325 956 q 518 922 461 956 q 592 794 575 888 q 610 478 610 701 q 592 161 610 254 q 518 34 575 68 q 325 0 461 0 l 108 0 l 108 956 m 318 58 q 475 81 432 58 q 533 185 518 103 q 547 478 547 267 q 533 771 547 689 q 474 875 518 853 q 318 897 431 897 l 172 897 l 172 58 l 318 58 z "},"Ǳ":{"ha":1279,"x_min":108,"x_max":1238,"o":"m 108 956 l 325 956 q 518 922 461 956 q 592 794 575 888 q 610 478 610 701 q 592 161 610 254 q 518 34 575 68 q 325 0 461 0 l 108 0 l 108 956 m 318 58 q 475 81 432 58 q 533 185 518 103 q 547 478 547 267 q 533 771 547 689 q 474 875 518 853 q 318 897 431 897 l 172 897 l 172 58 l 318 58 m 739 0 l 739 56 l 1156 897 l 750 897 l 750 956 l 1229 956 l 1229 901 l 814 58 l 1238 58 l 1238 0 l 739 0 z "},"Ǆ":{"ha":1279,"x_min":108,"x_max":1238,"o":"m 108 956 l 325 956 q 518 922 461 956 q 592 794 575 888 q 610 478 610 701 q 592 161 610 254 q 518 34 575 68 q 325 0 461 0 l 108 0 l 108 956 m 318 58 q 475 81 432 58 q 533 185 518 103 q 547 478 547 267 q 533 771 547 689 q 474 875 518 853 q 318 897 431 897 l 172 897 l 172 58 l 318 58 m 739 0 l 739 56 l 1156 897 l 750 897 l 750 956 l 1229 956 l 1229 901 l 814 58 l 1238 58 l 1238 0 l 739 0 m 950 1042 l 839 1226 l 839 1233 l 885 1233 l 988 1088 l 1089 1233 l 1135 1233 l 1135 1226 l 1025 1042 l 950 1042 z "},"Ð":{"ha":694,"x_min":28,"x_max":610,"o":"m 108 454 l 28 454 l 28 514 l 108 514 l 108 956 l 325 956 q 518 922 461 956 q 592 794 575 888 q 610 478 610 701 q 592 161 610 254 q 518 34 575 68 q 325 0 461 0 l 108 0 l 108 454 m 318 58 q 475 81 432 58 q 533 185 518 103 q 547 478 547 267 q 533 771 547 689 q 474 875 518 853 q 318 897 431 897 l 172 897 l 172 514 l 333 514 l 333 454 l 172 454 l 172 58 l 318 58 z "},"Ď":{"ha":694,"x_min":108,"x_max":610,"o":"m 108 956 l 325 956 q 518 922 461 956 q 592 794 575 888 q 610 478 610 701 q 592 161 610 254 q 518 34 575 68 q 325 0 461 0 l 108 0 l 108 956 m 318 58 q 475 81 432 58 q 533 185 518 103 q 547 478 547 267 q 533 771 547 689 q 474 875 518 853 q 318 897 431 897 l 172 897 l 172 58 l 318 58 m 310 1042 l 199 1226 l 199 1233 l 244 1233 l 347 1088 l 449 1233 l 494 1233 l 494 1226 l 385 1042 l 310 1042 z "},"Đ":{"ha":694,"x_min":28,"x_max":610,"o":"m 108 454 l 28 454 l 28 514 l 108 514 l 108 956 l 325 956 q 518 922 461 956 q 592 794 575 888 q 610 478 610 701 q 592 161 610 254 q 518 34 575 68 q 325 0 461 0 l 108 0 l 108 454 m 318 58 q 475 81 432 58 q 533 185 518 103 q 547 478 547 267 q 533 771 547 689 q 474 875 518 853 q 318 897 431 897 l 172 897 l 172 514 l 333 514 l 333 454 l 172 454 l 172 58 l 318 58 z "},"Ḍ":{"ha":694,"x_min":108,"x_max":610,"o":"m 108 956 l 325 956 q 518 922 461 956 q 592 794 575 888 q 610 478 610 701 q 592 161 610 254 q 518 34 575 68 q 325 0 461 0 l 108 0 l 108 956 m 318 58 q 475 81 432 58 q 533 185 518 103 q 547 478 547 267 q 533 771 547 689 q 474 875 518 853 q 318 897 431 897 l 172 897 l 172 58 l 318 58 m 310 -185 l 310 -86 l 386 -86 l 386 -185 l 310 -185 z "},"ǲ":{"ha":1203,"x_min":108,"x_max":1154,"o":"m 108 956 l 325 956 q 518 922 461 956 q 592 794 575 888 q 610 478 610 701 q 592 161 610 254 q 518 34 575 68 q 325 0 461 0 l 108 0 l 108 956 m 318 58 q 475 81 432 58 q 533 185 518 103 q 547 478 547 267 q 533 771 547 689 q 474 875 518 853 q 318 897 431 897 l 172 897 l 172 58 l 318 58 m 743 0 l 743 49 l 1078 654 l 756 654 l 756 708 l 1151 708 l 1151 660 l 818 54 l 1154 54 l 1154 0 l 743 0 z "},"ǅ":{"ha":1203,"x_min":108,"x_max":1154,"o":"m 108 956 l 325 956 q 518 922 461 956 q 592 794 575 888 q 610 478 610 701 q 592 161 610 254 q 518 34 575 68 q 325 0 461 0 l 108 0 l 108 956 m 318 58 q 475 81 432 58 q 533 185 518 103 q 547 478 547 267 q 533 771 547 689 q 474 875 518 853 q 318 897 431 897 l 172 897 l 172 58 l 318 58 m 743 0 l 743 49 l 1078 654 l 756 654 l 756 708 l 1151 708 l 1151 660 l 818 54 l 1154 54 l 1154 0 l 743 0 m 924 840 l 813 1025 l 813 1032 l 858 1032 l 961 886 l 1063 1032 l 1108 1032 l 1108 1025 l 999 840 l 924 840 z "},"E":{"ha":600,"x_min":108,"x_max":547,"o":"m 108 0 l 108 956 l 547 956 l 547 897 l 174 897 l 174 513 l 500 513 l 500 454 l 174 454 l 174 58 l 547 58 l 547 0 l 108 0 z "},"É":{"ha":600,"x_min":108,"x_max":547,"o":"m 108 0 l 108 956 l 547 956 l 547 897 l 174 897 l 174 513 l 500 513 l 500 454 l 174 454 l 174 58 l 547 58 l 547 0 l 108 0 m 306 1042 l 306 1049 l 383 1235 l 453 1235 l 453 1228 l 349 1042 l 306 1042 z "},"Ĕ":{"ha":600,"x_min":108,"x_max":547,"o":"m 108 0 l 108 956 l 547 956 l 547 897 l 174 897 l 174 513 l 500 513 l 500 454 l 174 454 l 174 58 l 547 58 l 547 0 l 108 0 m 474 1233 q 466 1124 474 1163 q 426 1061 458 1085 q 326 1038 394 1038 q 227 1061 258 1038 q 188 1123 196 1085 q 181 1233 181 1161 l 231 1233 q 235 1144 231 1174 q 260 1098 240 1114 q 326 1082 281 1082 q 392 1098 372 1082 q 417 1144 413 1114 q 422 1233 422 1174 l 474 1233 z "},"Ě":{"ha":600,"x_min":108,"x_max":547,"o":"m 108 0 l 108 956 l 547 956 l 547 897 l 174 897 l 174 513 l 500 513 l 500 454 l 174 454 l 174 58 l 547 58 l 547 0 l 108 0 m 290 1042 l 179 1226 l 179 1233 l 225 1233 l 328 1088 l 429 1233 l 475 1233 l 475 1226 l 365 1042 l 290 1042 z "},"Ê":{"ha":600,"x_min":108,"x_max":547,"o":"m 108 0 l 108 956 l 547 956 l 547 897 l 174 897 l 174 513 l 500 513 l 500 454 l 174 454 l 174 58 l 547 58 l 547 0 l 108 0 m 182 1042 l 182 1049 l 292 1233 l 367 1233 l 476 1049 l 476 1042 l 431 1042 l 329 1188 l 226 1042 l 182 1042 z "},"Ế":{"ha":600,"x_min":108,"x_max":557,"o":"m 108 0 l 108 956 l 547 956 l 547 897 l 174 897 l 174 513 l 500 513 l 500 454 l 174 454 l 174 58 l 547 58 l 547 0 l 108 0 m 178 1033 l 178 1040 l 288 1225 l 363 1225 l 472 1040 l 472 1033 l 426 1033 l 325 1179 l 222 1033 l 178 1033 m 410 1229 l 410 1236 l 488 1422 l 557 1422 l 557 1415 l 453 1229 l 410 1229 z "},"Ệ":{"ha":600,"x_min":108,"x_max":547,"o":"m 108 0 l 108 956 l 547 956 l 547 897 l 174 897 l 174 513 l 500 513 l 500 454 l 174 454 l 174 58 l 547 58 l 547 0 l 108 0 m 290 -185 l 290 -86 l 367 -86 l 367 -185 l 290 -185 m 181 1042 l 181 1049 l 290 1233 l 365 1233 l 475 1049 l 475 1042 l 429 1042 l 328 1188 l 225 1042 l 181 1042 z "},"Ề":{"ha":600,"x_min":108,"x_max":547,"o":"m 108 0 l 108 956 l 547 956 l 547 897 l 174 897 l 174 513 l 500 513 l 500 454 l 174 454 l 174 58 l 547 58 l 547 0 l 108 0 m 178 1032 l 178 1039 l 288 1224 l 363 1224 l 472 1039 l 472 1032 l 426 1032 l 325 1178 l 222 1032 l 178 1032 m 426 1228 l 322 1414 l 322 1421 l 392 1421 l 469 1235 l 469 1228 l 426 1228 z "},"Ể":{"ha":600,"x_min":108,"x_max":568,"o":"m 108 0 l 108 956 l 547 956 l 547 897 l 174 897 l 174 513 l 500 513 l 500 454 l 174 454 l 174 58 l 547 58 l 547 0 l 108 0 m 181 1032 l 181 1039 l 290 1224 l 365 1224 l 475 1039 l 475 1032 l 429 1032 l 328 1178 l 225 1032 l 181 1032 m 382 1240 q 394 1281 382 1269 q 435 1303 406 1293 l 457 1308 q 506 1331 493 1319 q 518 1369 518 1342 q 511 1403 518 1393 q 484 1418 504 1414 q 419 1422 464 1422 q 306 1415 378 1422 l 306 1458 q 428 1467 386 1467 q 539 1447 510 1467 q 568 1376 568 1428 q 557 1316 568 1336 q 506 1282 546 1296 l 485 1275 q 445 1261 456 1267 q 432 1249 435 1256 q 429 1226 429 1243 l 382 1226 l 382 1240 z "},"Ễ":{"ha":600,"x_min":108,"x_max":547,"o":"m 108 0 l 108 956 l 547 956 l 547 897 l 174 897 l 174 513 l 500 513 l 500 454 l 174 454 l 174 58 l 547 58 l 547 0 l 108 0 m 178 1033 l 178 1040 l 288 1225 l 363 1225 l 472 1040 l 472 1033 l 426 1033 l 325 1179 l 222 1033 l 178 1033 m 515 1465 q 500 1358 515 1388 q 439 1328 485 1328 q 387 1337 413 1328 q 319 1364 361 1346 q 292 1376 314 1367 q 253 1392 271 1386 q 219 1397 235 1397 q 191 1379 197 1397 q 185 1313 185 1361 l 140 1313 q 156 1420 140 1390 q 217 1450 171 1450 q 269 1442 244 1450 q 340 1413 293 1433 q 436 1382 404 1382 q 465 1399 458 1382 q 471 1465 471 1417 l 515 1465 z "},"Ȅ":{"ha":600,"x_min":108,"x_max":547,"o":"m 108 0 l 108 956 l 547 956 l 547 897 l 174 897 l 174 513 l 500 513 l 500 454 l 174 454 l 174 58 l 547 58 l 547 0 l 108 0 m 264 1047 l 222 1047 l 121 1214 l 121 1221 l 188 1221 l 264 1054 l 264 1047 m 446 1047 l 404 1047 l 303 1214 l 303 1221 l 369 1221 l 446 1054 l 446 1047 z "},"Ë":{"ha":600,"x_min":108,"x_max":547,"o":"m 108 0 l 108 956 l 547 956 l 547 897 l 174 897 l 174 513 l 500 513 l 500 454 l 174 454 l 174 58 l 547 58 l 547 0 l 108 0 m 176 1071 l 176 1161 l 244 1161 l 244 1071 l 176 1071 m 419 1071 l 419 1161 l 486 1161 l 486 1071 l 419 1071 z "},"Ė":{"ha":600,"x_min":108,"x_max":547,"o":"m 108 0 l 108 956 l 547 956 l 547 897 l 174 897 l 174 513 l 500 513 l 500 454 l 174 454 l 174 58 l 547 58 l 547 0 l 108 0 m 293 1125 l 293 1215 l 360 1215 l 360 1125 l 293 1125 z "},"Ẹ":{"ha":600,"x_min":108,"x_max":547,"o":"m 108 0 l 108 956 l 547 956 l 547 897 l 174 897 l 174 513 l 500 513 l 500 454 l 174 454 l 174 58 l 547 58 l 547 0 l 108 0 m 290 -185 l 290 -86 l 367 -86 l 367 -185 l 290 -185 z "},"È":{"ha":600,"x_min":108,"x_max":547,"o":"m 108 0 l 108 956 l 547 956 l 547 897 l 174 897 l 174 513 l 500 513 l 500 454 l 174 454 l 174 58 l 547 58 l 547 0 l 108 0 m 325 1042 l 221 1228 l 221 1235 l 290 1235 l 368 1049 l 368 1042 l 325 1042 z "},"Ẻ":{"ha":600,"x_min":108,"x_max":547,"o":"m 108 0 l 108 956 l 547 956 l 547 897 l 174 897 l 174 513 l 500 513 l 500 454 l 174 454 l 174 58 l 547 58 l 547 0 l 108 0 m 272 1038 q 284 1078 272 1067 q 325 1100 296 1090 l 347 1106 q 396 1128 383 1117 q 408 1167 408 1139 q 401 1201 408 1190 q 374 1215 394 1211 q 310 1219 354 1219 q 196 1213 268 1219 l 196 1256 q 318 1264 276 1264 q 429 1244 400 1264 q 458 1174 458 1225 q 447 1113 458 1133 q 396 1079 436 1093 l 375 1072 q 336 1058 347 1064 q 322 1046 325 1053 q 319 1024 319 1039 l 272 1024 l 272 1038 z "},"Ȇ":{"ha":600,"x_min":108,"x_max":547,"o":"m 108 0 l 108 956 l 547 956 l 547 897 l 174 897 l 174 513 l 500 513 l 500 454 l 174 454 l 174 58 l 547 58 l 547 0 l 108 0 m 181 1046 q 188 1156 181 1117 q 228 1218 196 1194 q 328 1242 260 1242 q 427 1218 396 1242 q 466 1156 458 1194 q 474 1046 474 1118 l 424 1046 q 419 1135 424 1106 q 394 1181 414 1165 q 328 1197 374 1197 q 262 1181 282 1197 q 237 1135 242 1165 q 232 1046 232 1106 l 181 1046 z "},"Ē":{"ha":600,"x_min":108,"x_max":547,"o":"m 108 0 l 108 956 l 547 956 l 547 897 l 174 897 l 174 513 l 500 513 l 500 454 l 174 454 l 174 58 l 547 58 l 547 0 l 108 0 m 196 1172 l 196 1233 l 457 1233 l 457 1172 l 196 1172 z "},"Ę":{"ha":600,"x_min":110,"x_max":547,"o":"m 506 -272 q 422 -245 449 -272 q 396 -175 396 -218 q 422 -84 396 -131 q 489 0 447 -37 l 110 0 l 110 956 l 547 956 l 547 897 l 174 897 l 174 513 l 500 513 l 500 454 l 174 454 l 174 58 l 547 58 l 547 0 q 483 -73 513 -25 q 453 -161 453 -121 q 468 -205 453 -187 q 517 -222 483 -222 q 540 -221 529 -222 l 540 -271 q 506 -272 528 -272 z "},"Ẽ":{"ha":600,"x_min":108,"x_max":547,"o":"m 108 0 l 108 956 l 547 956 l 547 897 l 174 897 l 174 513 l 500 513 l 500 454 l 174 454 l 174 58 l 547 58 l 547 0 l 108 0 m 515 1233 q 500 1126 515 1156 q 439 1096 485 1096 q 387 1105 413 1096 q 319 1132 361 1114 q 292 1144 314 1135 q 253 1160 271 1154 q 219 1165 235 1165 q 191 1147 197 1165 q 185 1081 185 1129 l 140 1081 q 156 1188 140 1158 q 217 1218 171 1218 q 269 1210 244 1218 q 340 1181 293 1201 q 436 1150 404 1150 q 465 1167 458 1150 q 471 1233 471 1185 l 515 1233 z "},"F":{"ha":568,"x_min":108,"x_max":526,"o":"m 108 0 l 108 956 l 526 956 l 526 897 l 174 897 l 174 493 l 489 493 l 489 435 l 174 435 l 174 0 l 108 0 z "},"G":{"ha":675,"x_min":85,"x_max":589,"o":"m 353 433 l 353 490 l 589 490 l 589 13 q 480 -5 540 1 q 372 -11 419 -11 q 189 24 247 -11 q 108 160 131 60 q 85 478 85 261 q 107 794 85 693 q 188 931 129 894 q 374 967 247 967 q 485 960 425 967 q 586 942 546 953 l 586 886 q 492 902 544 896 q 407 908 440 908 q 237 886 286 908 q 167 776 188 864 q 147 478 147 689 q 163 197 147 283 q 223 78 178 110 q 372 47 268 47 q 453 51 407 47 q 526 63 499 56 l 526 433 l 353 433 z "},"Ǵ":{"ha":675,"x_min":85,"x_max":589,"o":"m 353 433 l 353 490 l 589 490 l 589 13 q 480 -5 540 1 q 372 -11 419 -11 q 189 24 247 -11 q 108 160 131 60 q 85 478 85 261 q 107 794 85 693 q 188 931 129 894 q 374 967 247 967 q 485 960 425 967 q 586 942 546 953 l 586 886 q 492 902 544 896 q 407 908 440 908 q 237 886 286 908 q 167 776 188 864 q 147 478 147 689 q 163 197 147 283 q 223 78 178 110 q 372 47 268 47 q 453 51 407 47 q 526 63 499 56 l 526 433 l 353 433 m 310 1040 l 310 1047 l 388 1233 l 457 1233 l 457 1226 l 353 1040 l 310 1040 z "},"Ğ":{"ha":675,"x_min":85,"x_max":589,"o":"m 353 433 l 353 490 l 589 490 l 589 13 q 480 -5 540 1 q 372 -11 419 -11 q 189 24 247 -11 q 108 160 131 60 q 85 478 85 261 q 107 794 85 693 q 188 931 129 894 q 374 967 247 967 q 485 960 425 967 q 586 942 546 953 l 586 886 q 492 902 544 896 q 407 908 440 908 q 237 886 286 908 q 167 776 188 864 q 147 478 147 689 q 163 197 147 283 q 223 78 178 110 q 372 47 268 47 q 453 51 407 47 q 526 63 499 56 l 526 433 l 353 433 m 483 1233 q 476 1124 483 1163 q 436 1061 468 1085 q 336 1038 404 1038 q 237 1061 268 1038 q 198 1123 206 1085 q 190 1233 190 1161 l 240 1233 q 245 1144 240 1174 q 270 1098 250 1114 q 336 1082 290 1082 q 402 1098 382 1082 q 427 1144 422 1114 q 432 1233 432 1174 l 483 1233 z "},"Ǧ":{"ha":675,"x_min":85,"x_max":589,"o":"m 353 433 l 353 490 l 589 490 l 589 13 q 480 -5 540 1 q 372 -11 419 -11 q 189 24 247 -11 q 108 160 131 60 q 85 478 85 261 q 107 794 85 693 q 188 931 129 894 q 374 967 247 967 q 485 960 425 967 q 586 942 546 953 l 586 886 q 492 902 544 896 q 407 908 440 908 q 237 886 286 908 q 167 776 188 864 q 147 478 147 689 q 163 197 147 283 q 223 78 178 110 q 372 47 268 47 q 453 51 407 47 q 526 63 499 56 l 526 433 l 353 433 m 300 1042 l 189 1226 l 189 1233 l 235 1233 l 338 1088 l 439 1233 l 485 1233 l 485 1226 l 375 1042 l 300 1042 z "},"Ĝ":{"ha":675,"x_min":85,"x_max":589,"o":"m 353 433 l 353 490 l 589 490 l 589 13 q 480 -5 540 1 q 372 -11 419 -11 q 189 24 247 -11 q 108 160 131 60 q 85 478 85 261 q 107 794 85 693 q 188 931 129 894 q 374 967 247 967 q 485 960 425 967 q 586 942 546 953 l 586 886 q 492 902 544 896 q 407 908 440 908 q 237 886 286 908 q 167 776 188 864 q 147 478 147 689 q 163 197 147 283 q 223 78 178 110 q 372 47 268 47 q 453 51 407 47 q 526 63 499 56 l 526 433 l 353 433 m 190 1042 l 190 1049 l 300 1233 l 375 1233 l 485 1049 l 485 1042 l 439 1042 l 338 1188 l 235 1042 l 190 1042 z "},"Ģ":{"ha":675,"x_min":85,"x_max":589,"o":"m 353 433 l 353 490 l 589 490 l 589 13 q 480 -5 540 1 q 372 -11 419 -11 q 189 24 247 -11 q 108 160 131 60 q 85 478 85 261 q 107 794 85 693 q 188 931 129 894 q 374 967 247 967 q 485 960 425 967 q 586 942 546 953 l 586 886 q 492 902 544 896 q 407 908 440 908 q 237 886 286 908 q 167 776 188 864 q 147 478 147 689 q 163 197 147 283 q 223 78 178 110 q 372 47 268 47 q 453 51 407 47 q 526 63 499 56 l 526 433 l 353 433 m 283 -293 q 338 -276 326 -293 q 349 -208 349 -260 l 349 -185 l 317 -185 l 317 -86 l 393 -86 l 393 -192 q 384 -276 393 -247 q 352 -315 375 -304 q 283 -326 329 -326 l 283 -293 z "},"Ġ":{"ha":675,"x_min":85,"x_max":589,"o":"m 353 433 l 353 490 l 589 490 l 589 13 q 480 -5 540 1 q 372 -11 419 -11 q 189 24 247 -11 q 108 160 131 60 q 85 478 85 261 q 107 794 85 693 q 188 931 129 894 q 374 967 247 967 q 485 960 425 967 q 586 942 546 953 l 586 886 q 492 902 544 896 q 407 908 440 908 q 237 886 286 908 q 167 776 188 864 q 147 478 147 689 q 163 197 147 283 q 223 78 178 110 q 372 47 268 47 q 453 51 407 47 q 526 63 499 56 l 526 433 l 353 433 m 303 1125 l 303 1215 l 369 1215 l 369 1125 l 303 1125 z "},"H":{"ha":740,"x_min":110,"x_max":631,"o":"m 567 0 l 567 453 l 172 453 l 172 0 l 110 0 l 110 956 l 172 956 l 172 513 l 567 513 l 567 956 l 631 956 l 631 0 l 567 0 z "},"Ħ":{"ha":740,"x_min":110,"x_max":631,"o":"m 567 956 l 631 956 l 631 0 l 567 0 l 567 422 l 172 422 l 172 0 l 110 0 l 110 956 l 172 956 l 172 743 l 567 743 l 567 956 m 172 482 l 567 482 l 567 682 l 172 682 l 172 482 z "},"Ĥ":{"ha":740,"x_min":110,"x_max":631,"o":"m 567 0 l 567 453 l 172 453 l 172 0 l 110 0 l 110 956 l 172 956 l 172 513 l 567 513 l 567 956 l 631 956 l 631 0 l 567 0 m 222 1042 l 222 1049 l 332 1233 l 407 1233 l 517 1049 l 517 1042 l 471 1042 l 369 1188 l 267 1042 l 222 1042 z "},"Ḥ":{"ha":740,"x_min":110,"x_max":631,"o":"m 567 0 l 567 453 l 172 453 l 172 0 l 110 0 l 110 956 l 172 956 l 172 513 l 567 513 l 567 956 l 631 956 l 631 0 l 567 0 m 332 -185 l 332 -86 l 408 -86 l 408 -185 l 332 -185 z "},"I":{"ha":290,"x_min":114,"x_max":178,"o":"m 114 0 l 114 956 l 178 956 l 178 0 l 114 0 z "},"Ĳ":{"ha":613,"x_min":114,"x_max":511,"o":"m 114 0 l 114 956 l 178 956 l 178 0 l 114 0 m 317 57 q 412 74 388 60 q 442 135 436 88 q 449 325 449 183 l 449 956 l 511 956 l 511 336 q 501 101 511 164 q 454 21 490 39 q 317 0 418 3 l 317 57 z "},"Í":{"ha":290,"x_min":113,"x_max":260,"o":"m 114 0 l 114 956 l 178 956 l 178 0 l 114 0 m 113 1042 l 113 1049 l 190 1235 l 260 1235 l 260 1228 l 156 1042 l 113 1042 z "},"Ĭ":{"ha":290,"x_min":-1,"x_max":292,"o":"m 114 0 l 114 956 l 178 956 l 178 0 l 114 0 m 292 1233 q 284 1124 292 1163 q 244 1061 276 1085 q 144 1038 213 1038 q 45 1061 76 1038 q 6 1123 14 1085 q -1 1233 -1 1161 l 49 1233 q 53 1144 49 1174 q 78 1098 58 1114 q 144 1082 99 1082 q 210 1098 190 1082 q 235 1144 231 1114 q 240 1233 240 1174 l 292 1233 z "},"Ǐ":{"ha":290,"x_min":-3,"x_max":293,"o":"m 114 0 l 114 956 l 178 956 l 178 0 l 114 0 m 108 1042 l -3 1226 l -3 1233 l 43 1233 l 146 1088 l 247 1233 l 293 1233 l 293 1226 l 183 1042 l 108 1042 z "},"Î":{"ha":290,"x_min":-1,"x_max":293,"o":"m 114 0 l 114 956 l 178 956 l 178 0 l 114 0 m -1 1042 l -1 1049 l 108 1233 l 183 1233 l 293 1049 l 293 1042 l 247 1042 l 146 1188 l 43 1042 l -1 1042 z "},"Ȉ":{"ha":290,"x_min":-61,"x_max":264,"o":"m 114 0 l 114 956 l 178 956 l 178 0 l 114 0 m 82 1047 l 40 1047 l -61 1214 l -61 1221 l 6 1221 l 82 1054 l 82 1047 m 264 1047 l 222 1047 l 121 1214 l 121 1221 l 188 1221 l 264 1054 l 264 1047 z "},"Ï":{"ha":290,"x_min":-10,"x_max":300,"o":"m 114 0 l 114 956 l 178 956 l 178 0 l 114 0 m -10 1071 l -10 1161 l 58 1161 l 58 1071 l -10 1071 m 233 1071 l 233 1161 l 300 1161 l 300 1071 l 233 1071 z "},"İ":{"ha":290,"x_min":111,"x_max":178,"o":"m 114 0 l 114 956 l 178 956 l 178 0 l 114 0 m 111 1125 l 111 1215 l 178 1215 l 178 1125 l 111 1125 z "},"Ị":{"ha":290,"x_min":108,"x_max":185,"o":"m 114 0 l 114 956 l 178 956 l 178 0 l 114 0 m 108 -185 l 108 -86 l 185 -86 l 185 -185 l 108 -185 z "},"Ì":{"ha":290,"x_min":33,"x_max":181,"o":"m 114 0 l 114 956 l 178 956 l 178 0 l 114 0 m 138 1042 l 33 1228 l 33 1235 l 103 1235 l 181 1049 l 181 1042 l 138 1042 z "},"Ỉ":{"ha":290,"x_min":14,"x_max":276,"o":"m 114 0 l 114 956 l 178 956 l 178 0 l 114 0 m 90 1038 q 102 1078 90 1067 q 143 1100 114 1090 l 165 1106 q 214 1128 201 1117 q 226 1167 226 1139 q 219 1201 226 1190 q 192 1215 213 1211 q 128 1219 172 1219 q 14 1213 86 1219 l 14 1256 q 136 1264 94 1264 q 247 1244 218 1264 q 276 1174 276 1225 q 265 1113 276 1133 q 214 1079 254 1093 l 193 1072 q 154 1058 165 1064 q 140 1046 143 1053 q 138 1024 138 1039 l 90 1024 l 90 1038 z "},"Ȋ":{"ha":290,"x_min":-1,"x_max":292,"o":"m 114 0 l 114 956 l 178 956 l 178 0 l 114 0 m -1 1046 q 6 1156 -1 1117 q 46 1218 14 1194 q 146 1242 78 1242 q 245 1218 214 1242 q 284 1156 276 1194 q 292 1046 292 1118 l 242 1046 q 237 1135 242 1106 q 212 1181 232 1165 q 146 1197 192 1197 q 80 1181 100 1197 q 55 1135 60 1165 q 50 1046 50 1106 l -1 1046 z "},"Ī":{"ha":290,"x_min":14,"x_max":275,"o":"m 114 0 l 114 956 l 178 956 l 178 0 l 114 0 m 14 1172 l 14 1233 l 275 1233 l 275 1172 l 14 1172 z "},"Į":{"ha":290,"x_min":33,"x_max":179,"o":"m 143 -272 q 60 -244 86 -272 q 33 -171 33 -217 q 57 -84 33 -131 q 119 0 81 -37 l 114 0 l 114 956 l 178 956 l 178 0 q 119 -74 147 -25 q 90 -160 90 -122 q 156 -222 90 -222 l 179 -221 l 179 -271 q 143 -272 165 -272 z "},"Ĩ":{"ha":290,"x_min":-42,"x_max":333,"o":"m 114 0 l 114 956 l 178 956 l 178 0 l 114 0 m 333 1233 q 318 1126 333 1156 q 257 1096 303 1096 q 205 1105 231 1096 q 138 1132 179 1114 q 110 1144 132 1135 q 71 1160 89 1154 q 38 1165 53 1165 q 9 1147 15 1165 q 3 1081 3 1129 l -42 1081 q -26 1188 -42 1158 q 35 1218 -11 1218 q 87 1210 63 1218 q 158 1181 111 1201 q 254 1150 222 1150 q 283 1167 276 1150 q 289 1233 289 1185 l 333 1233 z "},"J":{"ha":322,"x_min":26,"x_max":221,"o":"m 26 57 q 122 74 97 60 q 152 135 146 88 q 158 325 158 183 l 158 956 l 221 956 l 221 336 q 210 101 221 164 q 164 21 200 39 q 26 0 128 3 l 26 57 z "},"Ĵ":{"ha":322,"x_min":26,"x_max":336,"o":"m 26 57 q 122 74 97 60 q 152 135 146 88 q 158 325 158 183 l 158 956 l 221 956 l 221 336 q 210 101 221 164 q 164 21 200 39 q 26 0 128 3 l 26 57 m 42 1042 l 42 1049 l 151 1233 l 226 1233 l 336 1049 l 336 1042 l 290 1042 l 189 1188 l 86 1042 l 42 1042 z "},"K":{"ha":665,"x_min":108,"x_max":636,"o":"m 564 0 l 317 456 l 172 456 l 172 0 l 108 0 l 108 956 l 172 956 l 172 514 l 317 514 l 564 956 l 632 956 l 371 486 l 636 0 l 564 0 z "},"Ķ":{"ha":665,"x_min":108,"x_max":636,"o":"m 564 0 l 317 456 l 172 456 l 172 0 l 108 0 l 108 956 l 172 956 l 172 514 l 317 514 l 564 956 l 632 956 l 371 486 l 636 0 l 564 0 m 278 -293 q 332 -276 321 -293 q 343 -208 343 -260 l 343 -185 l 311 -185 l 311 -86 l 388 -86 l 388 -192 q 378 -276 388 -247 q 347 -315 369 -304 q 278 -326 324 -326 l 278 -293 z "},"L":{"ha":526,"x_min":108,"x_max":507,"o":"m 108 0 l 108 956 l 174 956 l 174 58 l 507 58 l 507 0 l 108 0 z "},"Ǉ":{"ha":849,"x_min":108,"x_max":747,"o":"m 108 0 l 108 956 l 174 956 l 174 58 l 507 58 l 507 0 l 108 0 m 553 57 q 648 74 624 60 q 678 135 672 88 q 685 325 685 183 l 685 956 l 747 956 l 747 336 q 737 101 747 164 q 690 21 726 39 q 553 0 654 3 l 553 57 z "},"Ĺ":{"ha":526,"x_min":108,"x_max":507,"o":"m 108 0 l 108 956 l 174 956 l 174 58 l 507 58 l 507 0 l 108 0 m 118 1040 l 118 1047 l 196 1233 l 265 1233 l 265 1226 l 161 1040 l 118 1040 z "},"Ľ":{"ha":526,"x_min":108,"x_max":507,"o":"m 108 0 l 108 956 l 174 956 l 174 58 l 507 58 l 507 0 l 108 0 m 325 635 l 342 843 l 342 963 l 407 963 l 407 843 l 365 635 l 325 635 z "},"Ļ":{"ha":526,"x_min":108,"x_max":507,"o":"m 108 0 l 108 956 l 174 956 l 174 58 l 507 58 l 507 0 l 108 0 m 226 -293 q 281 -276 269 -293 q 292 -208 292 -260 l 292 -185 l 260 -185 l 260 -86 l 336 -86 l 336 -192 q 327 -276 336 -247 q 295 -315 318 -304 q 226 -326 272 -326 l 226 -293 z "},"Ŀ":{"ha":526,"x_min":108,"x_max":507,"o":"m 108 0 l 108 956 l 174 956 l 174 58 l 507 58 l 507 0 l 108 0 m 383 450 l 383 549 l 460 549 l 460 450 l 383 450 z "},"ǈ":{"ha":783,"x_min":108,"x_max":689,"o":"m 108 0 l 108 956 l 174 956 l 174 58 l 507 58 l 507 0 l 108 0 m 621 939 l 621 1032 l 689 1032 l 689 939 l 621 939 m 522 -217 q 591 -210 569 -217 q 619 -187 613 -203 q 625 -139 625 -172 l 625 708 l 686 708 l 686 -121 q 669 -220 686 -189 q 620 -260 653 -251 q 522 -268 588 -268 l 522 -217 z "},"Ł":{"ha":526,"x_min":38,"x_max":507,"o":"m 174 58 l 507 58 l 507 0 l 108 0 l 108 407 l 38 381 l 38 438 l 108 464 l 108 956 l 174 956 l 174 488 l 386 565 l 386 508 l 174 431 l 174 58 z "},"M":{"ha":922,"x_min":110,"x_max":814,"o":"m 751 0 l 751 821 l 744 821 l 492 0 l 428 0 l 176 821 l 171 821 l 171 0 l 110 0 l 110 956 l 199 956 l 458 114 l 465 114 l 725 956 l 814 956 l 814 0 l 751 0 z "},"N":{"ha":740,"x_min":110,"x_max":631,"o":"m 563 0 l 176 813 l 171 813 l 171 0 l 110 0 l 110 956 l 179 956 l 564 146 l 569 146 l 569 956 l 631 956 l 631 0 l 563 0 z "},"Ǌ":{"ha":1063,"x_min":110,"x_max":961,"o":"m 563 0 l 176 813 l 171 813 l 171 0 l 110 0 l 110 956 l 179 956 l 564 146 l 569 146 l 569 956 l 631 956 l 631 0 l 563 0 m 767 57 q 862 74 838 60 q 892 135 886 88 q 899 325 899 183 l 899 956 l 961 956 l 961 336 q 951 101 961 164 q 904 21 940 39 q 767 0 868 3 l 767 57 z "},"Ń":{"ha":740,"x_min":110,"x_max":631,"o":"m 563 0 l 176 813 l 171 813 l 171 0 l 110 0 l 110 956 l 179 956 l 564 146 l 569 146 l 569 956 l 631 956 l 631 0 l 563 0 m 342 1040 l 342 1047 l 419 1233 l 489 1233 l 489 1226 l 385 1040 l 342 1040 z "},"Ň":{"ha":740,"x_min":110,"x_max":631,"o":"m 563 0 l 176 813 l 171 813 l 171 0 l 110 0 l 110 956 l 179 956 l 564 146 l 569 146 l 569 956 l 631 956 l 631 0 l 563 0 m 332 1042 l 221 1226 l 221 1233 l 267 1233 l 369 1088 l 471 1233 l 517 1233 l 517 1226 l 407 1042 l 332 1042 z "},"Ņ":{"ha":740,"x_min":110,"x_max":631,"o":"m 563 0 l 176 813 l 171 813 l 171 0 l 110 0 l 110 956 l 179 956 l 564 146 l 569 146 l 569 956 l 631 956 l 631 0 l 563 0 m 315 -293 q 369 -276 358 -293 q 381 -208 381 -260 l 381 -185 l 349 -185 l 349 -86 l 425 -86 l 425 -192 q 416 -276 425 -247 q 384 -315 407 -304 q 315 -326 361 -326 l 315 -293 z "},"Ṅ":{"ha":740,"x_min":110,"x_max":631,"o":"m 563 0 l 176 813 l 171 813 l 171 0 l 110 0 l 110 956 l 179 956 l 564 146 l 569 146 l 569 956 l 631 956 l 631 0 l 563 0 m 335 1125 l 335 1215 l 401 1215 l 401 1125 l 335 1125 z "},"Ŋ":{"ha":740,"x_min":110,"x_max":631,"o":"m 631 956 l 631 -121 q 615 -220 631 -189 q 566 -260 599 -251 q 468 -268 533 -268 l 468 -217 q 536 -210 515 -217 q 563 -187 557 -203 q 569 -139 569 -172 l 569 0 l 176 813 l 171 813 l 171 0 l 110 0 l 110 956 l 179 956 l 564 153 l 569 153 l 569 956 l 631 956 z "},"Ɲ":{"ha":740,"x_min":7,"x_max":631,"o":"m 631 956 l 631 0 l 563 0 l 176 813 l 171 813 l 171 -121 q 154 -220 171 -189 q 105 -260 138 -251 q 7 -268 72 -268 l 7 -217 q 76 -210 54 -217 q 103 -187 97 -203 q 110 -139 110 -172 l 110 956 l 179 956 l 564 146 l 569 146 l 569 956 l 631 956 z "},"ǋ":{"ha":997,"x_min":110,"x_max":903,"o":"m 563 0 l 176 813 l 171 813 l 171 0 l 110 0 l 110 956 l 179 956 l 564 146 l 569 146 l 569 956 l 631 956 l 631 0 l 563 0 m 835 939 l 835 1032 l 903 1032 l 903 939 l 835 939 m 736 -217 q 805 -210 783 -217 q 833 -187 826 -203 q 839 -139 839 -172 l 839 708 l 900 708 l 900 -121 q 883 -220 900 -189 q 834 -260 867 -251 q 736 -268 801 -268 l 736 -217 z "},"Ñ":{"ha":740,"x_min":110,"x_max":631,"o":"m 563 0 l 176 813 l 171 813 l 171 0 l 110 0 l 110 956 l 179 956 l 564 146 l 569 146 l 569 956 l 631 956 l 631 0 l 563 0 m 560 1194 q 544 1087 560 1117 q 483 1057 529 1057 q 431 1066 457 1057 q 364 1093 406 1075 q 337 1106 358 1096 q 297 1121 315 1115 q 264 1126 279 1126 q 235 1108 242 1126 q 229 1042 229 1090 l 185 1042 q 200 1149 185 1119 q 261 1179 215 1179 q 313 1171 289 1179 q 385 1142 338 1163 q 481 1111 449 1111 q 509 1128 503 1111 q 515 1194 515 1146 l 560 1194 z "},"O":{"ha":728,"x_min":85,"x_max":643,"o":"m 364 -11 q 174 24 231 -11 q 101 154 118 58 q 85 478 85 250 q 101 801 85 706 q 174 932 118 897 q 364 967 231 967 q 553 932 497 967 q 626 801 610 897 q 643 478 643 706 q 626 154 643 250 q 553 24 610 58 q 364 -11 497 -11 m 364 47 q 510 70 469 47 q 565 177 551 93 q 579 478 579 261 q 565 778 579 694 q 510 885 551 863 q 364 908 469 908 q 217 885 258 908 q 162 778 176 863 q 147 478 147 693 q 162 178 147 263 q 217 70 176 93 q 364 47 258 47 z "},"Ó":{"ha":728,"x_min":85,"x_max":643,"o":"m 364 -11 q 174 24 231 -11 q 101 154 118 58 q 85 478 85 250 q 101 801 85 706 q 174 932 118 897 q 364 967 231 967 q 553 932 497 967 q 626 801 610 897 q 643 478 643 706 q 626 154 643 250 q 553 24 610 58 q 364 -11 497 -11 m 364 47 q 510 70 469 47 q 565 177 551 93 q 579 478 579 261 q 565 778 579 694 q 510 885 551 863 q 364 908 469 908 q 217 885 258 908 q 162 778 176 863 q 147 478 147 693 q 162 178 147 263 q 217 70 176 93 q 364 47 258 47 m 335 1042 l 335 1049 l 413 1235 l 482 1235 l 482 1228 l 378 1042 l 335 1042 z "},"Ŏ":{"ha":728,"x_min":85,"x_max":643,"o":"m 364 -11 q 174 24 231 -11 q 101 154 118 58 q 85 478 85 250 q 101 801 85 706 q 174 932 118 897 q 364 967 231 967 q 553 932 497 967 q 626 801 610 897 q 643 478 643 706 q 626 154 643 250 q 553 24 610 58 q 364 -11 497 -11 m 364 47 q 510 70 469 47 q 565 177 551 93 q 579 478 579 261 q 565 778 579 694 q 510 885 551 863 q 364 908 469 908 q 217 885 258 908 q 162 778 176 863 q 147 478 147 693 q 162 178 147 263 q 217 70 176 93 q 364 47 258 47 m 510 1233 q 502 1124 510 1163 q 463 1061 494 1085 q 363 1038 431 1038 q 263 1061 294 1038 q 224 1123 232 1085 q 217 1233 217 1161 l 267 1233 q 272 1144 267 1174 q 297 1098 276 1114 q 363 1082 317 1082 q 428 1098 408 1082 q 453 1144 449 1114 q 458 1233 458 1174 l 510 1233 z "},"Ǒ":{"ha":728,"x_min":85,"x_max":643,"o":"m 364 -11 q 174 24 231 -11 q 101 154 118 58 q 85 478 85 250 q 101 801 85 706 q 174 932 118 897 q 364 967 231 967 q 553 932 497 967 q 626 801 610 897 q 643 478 643 706 q 626 154 643 250 q 553 24 610 58 q 364 -11 497 -11 m 364 47 q 510 70 469 47 q 565 177 551 93 q 579 478 579 261 q 565 778 579 694 q 510 885 551 863 q 364 908 469 908 q 217 885 258 908 q 162 778 176 863 q 147 478 147 693 q 162 178 147 263 q 217 70 176 93 q 364 47 258 47 m 326 1042 l 215 1226 l 215 1233 l 261 1233 l 364 1088 l 465 1233 l 511 1233 l 511 1226 l 401 1042 l 326 1042 z "},"Ô":{"ha":728,"x_min":85,"x_max":643,"o":"m 364 -11 q 174 24 231 -11 q 101 154 118 58 q 85 478 85 250 q 101 801 85 706 q 174 932 118 897 q 364 967 231 967 q 553 932 497 967 q 626 801 610 897 q 643 478 643 706 q 626 154 643 250 q 553 24 610 58 q 364 -11 497 -11 m 364 47 q 510 70 469 47 q 565 177 551 93 q 579 478 579 261 q 565 778 579 694 q 510 885 551 863 q 364 908 469 908 q 217 885 258 908 q 162 778 176 863 q 147 478 147 693 q 162 178 147 263 q 217 70 176 93 q 364 47 258 47 m 217 1042 l 217 1049 l 326 1233 l 401 1233 l 511 1049 l 511 1042 l 465 1042 l 364 1188 l 261 1042 l 217 1042 z "},"Ố":{"ha":728,"x_min":85,"x_max":643,"o":"m 364 -11 q 174 24 231 -11 q 101 154 118 58 q 85 478 85 250 q 101 801 85 706 q 174 932 118 897 q 364 967 231 967 q 553 932 497 967 q 626 801 610 897 q 643 478 643 706 q 626 154 643 250 q 553 24 610 58 q 364 -11 497 -11 m 364 47 q 510 70 469 47 q 565 177 551 93 q 579 478 579 261 q 565 778 579 694 q 510 885 551 863 q 364 908 469 908 q 217 885 258 908 q 162 778 176 863 q 147 478 147 693 q 162 178 147 263 q 217 70 176 93 q 364 47 258 47 m 214 1033 l 214 1040 l 324 1225 l 399 1225 l 508 1040 l 508 1033 l 463 1033 l 361 1179 l 258 1033 l 214 1033 m 446 1229 l 446 1236 l 524 1422 l 593 1422 l 593 1415 l 489 1229 l 446 1229 z "},"Ộ":{"ha":728,"x_min":85,"x_max":643,"o":"m 364 -11 q 174 24 231 -11 q 101 154 118 58 q 85 478 85 250 q 101 801 85 706 q 174 932 118 897 q 364 967 231 967 q 553 932 497 967 q 626 801 610 897 q 643 478 643 706 q 626 154 643 250 q 553 24 610 58 q 364 -11 497 -11 m 364 47 q 510 70 469 47 q 565 177 551 93 q 579 478 579 261 q 565 778 579 694 q 510 885 551 863 q 364 908 469 908 q 217 885 258 908 q 162 778 176 863 q 147 478 147 693 q 162 178 147 263 q 217 70 176 93 q 364 47 258 47 m 326 -185 l 326 -86 l 403 -86 l 403 -185 l 326 -185 m 217 1042 l 217 1049 l 326 1233 l 401 1233 l 511 1049 l 511 1042 l 465 1042 l 364 1188 l 261 1042 l 217 1042 z "},"Ồ":{"ha":728,"x_min":85,"x_max":643,"o":"m 364 -11 q 174 24 231 -11 q 101 154 118 58 q 85 478 85 250 q 101 801 85 706 q 174 932 118 897 q 364 967 231 967 q 553 932 497 967 q 626 801 610 897 q 643 478 643 706 q 626 154 643 250 q 553 24 610 58 q 364 -11 497 -11 m 364 47 q 510 70 469 47 q 565 177 551 93 q 579 478 579 261 q 565 778 579 694 q 510 885 551 863 q 364 908 469 908 q 217 885 258 908 q 162 778 176 863 q 147 478 147 693 q 162 178 147 263 q 217 70 176 93 q 364 47 258 47 m 214 1032 l 214 1039 l 324 1224 l 399 1224 l 508 1039 l 508 1032 l 463 1032 l 361 1178 l 258 1032 l 214 1032 m 463 1228 l 358 1414 l 358 1421 l 428 1421 l 506 1235 l 506 1228 l 463 1228 z "},"Ổ":{"ha":728,"x_min":85,"x_max":643,"o":"m 364 -11 q 174 24 231 -11 q 101 154 118 58 q 85 478 85 250 q 101 801 85 706 q 174 932 118 897 q 364 967 231 967 q 553 932 497 967 q 626 801 610 897 q 643 478 643 706 q 626 154 643 250 q 553 24 610 58 q 364 -11 497 -11 m 364 47 q 510 70 469 47 q 565 177 551 93 q 579 478 579 261 q 565 778 579 694 q 510 885 551 863 q 364 908 469 908 q 217 885 258 908 q 162 778 176 863 q 147 478 147 693 q 162 178 147 263 q 217 70 176 93 q 364 47 258 47 m 217 1032 l 217 1039 l 326 1224 l 401 1224 l 511 1039 l 511 1032 l 465 1032 l 364 1178 l 261 1032 l 217 1032 m 418 1240 q 430 1281 418 1269 q 471 1303 442 1293 l 493 1308 q 542 1331 529 1319 q 554 1369 554 1342 q 547 1403 554 1393 q 520 1418 540 1414 q 456 1422 500 1422 q 342 1415 414 1422 l 342 1458 q 464 1467 422 1467 q 575 1447 546 1467 q 604 1376 604 1428 q 593 1316 604 1336 q 542 1282 582 1296 l 521 1275 q 481 1261 492 1267 q 468 1249 471 1256 q 465 1226 465 1243 l 418 1226 l 418 1240 z "},"Ỗ":{"ha":728,"x_min":85,"x_max":643,"o":"m 364 -11 q 174 24 231 -11 q 101 154 118 58 q 85 478 85 250 q 101 801 85 706 q 174 932 118 897 q 364 967 231 967 q 553 932 497 967 q 626 801 610 897 q 643 478 643 706 q 626 154 643 250 q 553 24 610 58 q 364 -11 497 -11 m 364 47 q 510 70 469 47 q 565 177 551 93 q 579 478 579 261 q 565 778 579 694 q 510 885 551 863 q 364 908 469 908 q 217 885 258 908 q 162 778 176 863 q 147 478 147 693 q 162 178 147 263 q 217 70 176 93 q 364 47 258 47 m 214 1033 l 214 1040 l 324 1225 l 399 1225 l 508 1040 l 508 1033 l 463 1033 l 361 1179 l 258 1033 l 214 1033 m 551 1465 q 536 1358 551 1388 q 475 1328 521 1328 q 423 1337 449 1328 q 356 1364 397 1346 q 328 1376 350 1367 q 289 1392 307 1386 q 256 1397 271 1397 q 227 1379 233 1397 q 221 1313 221 1361 l 176 1313 q 192 1420 176 1390 q 253 1450 207 1450 q 305 1442 281 1450 q 376 1413 329 1433 q 472 1382 440 1382 q 501 1399 494 1382 q 507 1465 507 1417 l 551 1465 z "},"Ȍ":{"ha":728,"x_min":85,"x_max":643,"o":"m 364 -11 q 174 24 231 -11 q 101 154 118 58 q 85 478 85 250 q 101 801 85 706 q 174 932 118 897 q 364 967 231 967 q 553 932 497 967 q 626 801 610 897 q 643 478 643 706 q 626 154 643 250 q 553 24 610 58 q 364 -11 497 -11 m 364 47 q 510 70 469 47 q 565 177 551 93 q 579 478 579 261 q 565 778 579 694 q 510 885 551 863 q 364 908 469 908 q 217 885 258 908 q 162 778 176 863 q 147 478 147 693 q 162 178 147 263 q 217 70 176 93 q 364 47 258 47 m 300 1047 l 258 1047 l 157 1214 l 157 1221 l 224 1221 l 300 1054 l 300 1047 m 482 1047 l 440 1047 l 339 1214 l 339 1221 l 406 1221 l 482 1054 l 482 1047 z "},"Ö":{"ha":728,"x_min":85,"x_max":643,"o":"m 364 -11 q 174 24 231 -11 q 101 154 118 58 q 85 478 85 250 q 101 801 85 706 q 174 932 118 897 q 364 967 231 967 q 553 932 497 967 q 626 801 610 897 q 643 478 643 706 q 626 154 643 250 q 553 24 610 58 q 364 -11 497 -11 m 364 47 q 510 70 469 47 q 565 177 551 93 q 579 478 579 261 q 565 778 579 694 q 510 885 551 863 q 364 908 469 908 q 217 885 258 908 q 162 778 176 863 q 147 478 147 693 q 162 178 147 263 q 217 70 176 93 q 364 47 258 47 m 208 1071 l 208 1161 l 276 1161 l 276 1071 l 208 1071 m 451 1071 l 451 1161 l 518 1161 l 518 1071 l 451 1071 z "},"Ọ":{"ha":728,"x_min":85,"x_max":643,"o":"m 364 -11 q 174 24 231 -11 q 101 154 118 58 q 85 478 85 250 q 101 801 85 706 q 174 932 118 897 q 364 967 231 967 q 553 932 497 967 q 626 801 610 897 q 643 478 643 706 q 626 154 643 250 q 553 24 610 58 q 364 -11 497 -11 m 364 47 q 510 70 469 47 q 565 177 551 93 q 579 478 579 261 q 565 778 579 694 q 510 885 551 863 q 364 908 469 908 q 217 885 258 908 q 162 778 176 863 q 147 478 147 693 q 162 178 147 263 q 217 70 176 93 q 364 47 258 47 m 326 -185 l 326 -86 l 403 -86 l 403 -185 l 326 -185 z "},"Ò":{"ha":728,"x_min":85,"x_max":643,"o":"m 364 -11 q 174 24 231 -11 q 101 154 118 58 q 85 478 85 250 q 101 801 85 706 q 174 932 118 897 q 364 967 231 967 q 553 932 497 967 q 626 801 610 897 q 643 478 643 706 q 626 154 643 250 q 553 24 610 58 q 364 -11 497 -11 m 364 47 q 510 70 469 47 q 565 177 551 93 q 579 478 579 261 q 565 778 579 694 q 510 885 551 863 q 364 908 469 908 q 217 885 258 908 q 162 778 176 863 q 147 478 147 693 q 162 178 147 263 q 217 70 176 93 q 364 47 258 47 m 349 1042 l 244 1228 l 244 1235 l 314 1235 l 392 1049 l 392 1042 l 349 1042 z "},"Ỏ":{"ha":728,"x_min":85,"x_max":643,"o":"m 364 -11 q 174 24 231 -11 q 101 154 118 58 q 85 478 85 250 q 101 801 85 706 q 174 932 118 897 q 364 967 231 967 q 553 932 497 967 q 626 801 610 897 q 643 478 643 706 q 626 154 643 250 q 553 24 610 58 q 364 -11 497 -11 m 364 47 q 510 70 469 47 q 565 177 551 93 q 579 478 579 261 q 565 778 579 694 q 510 885 551 863 q 364 908 469 908 q 217 885 258 908 q 162 778 176 863 q 147 478 147 693 q 162 178 147 263 q 217 70 176 93 q 364 47 258 47 m 308 1038 q 320 1078 308 1067 q 361 1100 332 1090 l 383 1106 q 432 1128 419 1117 q 444 1167 444 1139 q 438 1201 444 1190 q 410 1215 431 1211 q 346 1219 390 1219 q 232 1213 304 1219 l 232 1256 q 354 1264 313 1264 q 465 1244 436 1264 q 494 1174 494 1225 q 483 1113 494 1133 q 432 1079 472 1093 l 411 1072 q 372 1058 383 1064 q 358 1046 361 1053 q 356 1024 356 1039 l 308 1024 l 308 1038 z "},"Ơ":{"ha":728,"x_min":85,"x_max":674,"o":"m 674 1092 l 674 1046 q 665 967 674 994 q 636 928 657 940 q 575 914 615 917 q 630 777 617 872 q 643 478 643 682 q 626 154 643 250 q 553 24 610 58 q 364 -11 497 -11 q 174 24 231 -11 q 101 154 118 58 q 85 478 85 250 q 101 801 85 706 q 174 932 118 897 q 364 967 231 967 q 494 956 449 967 l 556 956 q 612 972 600 956 q 624 1035 624 988 l 624 1092 l 674 1092 m 579 478 q 565 778 579 694 q 510 885 551 863 q 364 908 469 908 q 217 885 258 908 q 162 778 176 863 q 147 478 147 693 q 162 178 147 263 q 217 70 176 93 q 364 47 258 47 q 510 70 469 47 q 565 177 551 93 q 579 478 579 261 z "},"Ớ":{"ha":728,"x_min":85,"x_max":674,"o":"m 674 1092 l 674 1046 q 665 967 674 994 q 636 928 657 940 q 575 914 615 917 q 630 777 617 872 q 643 478 643 682 q 626 154 643 250 q 553 24 610 58 q 364 -11 497 -11 q 174 24 231 -11 q 101 154 118 58 q 85 478 85 250 q 101 801 85 706 q 174 932 118 897 q 364 967 231 967 q 494 956 449 967 l 556 956 q 612 972 600 956 q 624 1035 624 988 l 624 1092 l 674 1092 m 579 478 q 565 778 579 694 q 510 885 551 863 q 364 908 469 908 q 217 885 258 908 q 162 778 176 863 q 147 478 147 693 q 162 178 147 263 q 217 70 176 93 q 364 47 258 47 q 510 70 469 47 q 565 177 551 93 q 579 478 579 261 m 336 1040 l 336 1047 l 414 1233 l 483 1233 l 483 1226 l 379 1040 l 336 1040 z "},"Ợ":{"ha":728,"x_min":85,"x_max":674,"o":"m 674 1092 l 674 1046 q 665 967 674 994 q 636 928 657 940 q 575 914 615 917 q 630 777 617 872 q 643 478 643 682 q 626 154 643 250 q 553 24 610 58 q 364 -11 497 -11 q 174 24 231 -11 q 101 154 118 58 q 85 478 85 250 q 101 801 85 706 q 174 932 118 897 q 364 967 231 967 q 494 956 449 967 l 556 956 q 612 972 600 956 q 624 1035 624 988 l 624 1092 l 674 1092 m 579 478 q 565 778 579 694 q 510 885 551 863 q 364 908 469 908 q 217 885 258 908 q 162 778 176 863 q 147 478 147 693 q 162 178 147 263 q 217 70 176 93 q 364 47 258 47 q 510 70 469 47 q 565 177 551 93 q 579 478 579 261 m 326 -185 l 326 -86 l 403 -86 l 403 -185 l 326 -185 z "},"Ờ":{"ha":728,"x_min":85,"x_max":674,"o":"m 674 1092 l 674 1046 q 665 967 674 994 q 636 928 657 940 q 575 914 615 917 q 630 777 617 872 q 643 478 643 682 q 626 154 643 250 q 553 24 610 58 q 364 -11 497 -11 q 174 24 231 -11 q 101 154 118 58 q 85 478 85 250 q 101 801 85 706 q 174 932 118 897 q 364 967 231 967 q 494 956 449 967 l 556 956 q 612 972 600 956 q 624 1035 624 988 l 624 1092 l 674 1092 m 579 478 q 565 778 579 694 q 510 885 551 863 q 364 908 469 908 q 217 885 258 908 q 162 778 176 863 q 147 478 147 693 q 162 178 147 263 q 217 70 176 93 q 364 47 258 47 q 510 70 469 47 q 565 177 551 93 q 579 478 579 261 m 350 1040 l 246 1226 l 246 1233 l 315 1233 l 393 1047 l 393 1040 l 350 1040 z "},"Ở":{"ha":728,"x_min":85,"x_max":674,"o":"m 674 1092 l 674 1046 q 665 967 674 994 q 636 928 657 940 q 575 914 615 917 q 630 777 617 872 q 643 478 643 682 q 626 154 643 250 q 553 24 610 58 q 364 -11 497 -11 q 174 24 231 -11 q 101 154 118 58 q 85 478 85 250 q 101 801 85 706 q 174 932 118 897 q 364 967 231 967 q 494 956 449 967 l 556 956 q 612 972 600 956 q 624 1035 624 988 l 624 1092 l 674 1092 m 579 478 q 565 778 579 694 q 510 885 551 863 q 364 908 469 908 q 217 885 258 908 q 162 778 176 863 q 147 478 147 693 q 162 178 147 263 q 217 70 176 93 q 364 47 258 47 q 510 70 469 47 q 565 177 551 93 q 579 478 579 261 m 308 1038 q 320 1078 308 1067 q 361 1100 332 1090 l 383 1106 q 432 1128 419 1117 q 444 1167 444 1139 q 438 1201 444 1190 q 410 1215 431 1211 q 346 1219 390 1219 q 232 1213 304 1219 l 232 1256 q 354 1264 313 1264 q 465 1244 436 1264 q 494 1174 494 1225 q 483 1113 494 1133 q 432 1079 472 1093 l 411 1072 q 372 1058 383 1064 q 358 1046 361 1053 q 356 1024 356 1039 l 308 1024 l 308 1038 z "},"Ỡ":{"ha":728,"x_min":85,"x_max":674,"o":"m 674 1092 l 674 1046 q 665 967 674 994 q 636 928 657 940 q 575 914 615 917 q 630 777 617 872 q 643 478 643 682 q 626 154 643 250 q 553 24 610 58 q 364 -11 497 -11 q 174 24 231 -11 q 101 154 118 58 q 85 478 85 250 q 101 801 85 706 q 174 932 118 897 q 364 967 231 967 q 494 956 449 967 l 556 956 q 612 972 600 956 q 624 1035 624 988 l 624 1092 l 674 1092 m 579 478 q 565 778 579 694 q 510 885 551 863 q 364 908 469 908 q 217 885 258 908 q 162 778 176 863 q 147 478 147 693 q 162 178 147 263 q 217 70 176 93 q 364 47 258 47 q 510 70 469 47 q 565 177 551 93 q 579 478 579 261 m 551 1233 q 536 1126 551 1156 q 475 1096 521 1096 q 423 1105 449 1096 q 356 1132 397 1114 q 328 1144 350 1135 q 289 1160 307 1154 q 256 1165 271 1165 q 227 1147 233 1165 q 221 1081 221 1129 l 176 1081 q 192 1188 176 1158 q 253 1218 207 1218 q 305 1210 281 1218 q 376 1181 329 1201 q 472 1150 440 1150 q 501 1167 494 1150 q 507 1233 507 1185 l 551 1233 z "},"Ő":{"ha":728,"x_min":85,"x_max":643,"o":"m 364 -11 q 174 24 231 -11 q 101 154 118 58 q 85 478 85 250 q 101 801 85 706 q 174 932 118 897 q 364 967 231 967 q 553 932 497 967 q 626 801 610 897 q 643 478 643 706 q 626 154 643 250 q 553 24 610 58 q 364 -11 497 -11 m 364 47 q 510 70 469 47 q 565 177 551 93 q 579 478 579 261 q 565 778 579 694 q 510 885 551 863 q 364 908 469 908 q 217 885 258 908 q 162 778 176 863 q 147 478 147 693 q 162 178 147 263 q 217 70 176 93 q 364 47 258 47 m 254 1047 l 254 1054 l 331 1221 l 397 1221 l 397 1214 l 296 1047 l 254 1047 m 436 1047 l 436 1054 l 513 1221 l 579 1221 l 579 1214 l 478 1047 l 436 1047 z "},"Ȏ":{"ha":728,"x_min":85,"x_max":643,"o":"m 364 -11 q 174 24 231 -11 q 101 154 118 58 q 85 478 85 250 q 101 801 85 706 q 174 932 118 897 q 364 967 231 967 q 553 932 497 967 q 626 801 610 897 q 643 478 643 706 q 626 154 643 250 q 553 24 610 58 q 364 -11 497 -11 m 364 47 q 510 70 469 47 q 565 177 551 93 q 579 478 579 261 q 565 778 579 694 q 510 885 551 863 q 364 908 469 908 q 217 885 258 908 q 162 778 176 863 q 147 478 147 693 q 162 178 147 263 q 217 70 176 93 q 364 47 258 47 m 217 1046 q 224 1156 217 1117 q 264 1218 232 1194 q 364 1242 296 1242 q 463 1218 432 1242 q 502 1156 494 1194 q 510 1046 510 1118 l 460 1046 q 455 1135 460 1106 q 430 1181 450 1165 q 364 1197 410 1197 q 298 1181 318 1197 q 273 1135 278 1165 q 268 1046 268 1106 l 217 1046 z "},"Ō":{"ha":728,"x_min":85,"x_max":643,"o":"m 364 -11 q 174 24 231 -11 q 101 154 118 58 q 85 478 85 250 q 101 801 85 706 q 174 932 118 897 q 364 967 231 967 q 553 932 497 967 q 626 801 610 897 q 643 478 643 706 q 626 154 643 250 q 553 24 610 58 q 364 -11 497 -11 m 364 47 q 510 70 469 47 q 565 177 551 93 q 579 478 579 261 q 565 778 579 694 q 510 885 551 863 q 364 908 469 908 q 217 885 258 908 q 162 778 176 863 q 147 478 147 693 q 162 178 147 263 q 217 70 176 93 q 364 47 258 47 m 232 1172 l 232 1233 l 493 1233 l 493 1172 l 232 1172 z "},"Ǫ":{"ha":728,"x_min":85,"x_max":643,"o":"m 496 -272 q 413 -244 439 -272 q 386 -174 386 -217 q 408 -90 386 -133 q 467 -6 429 -46 q 364 -11 428 -11 q 174 24 231 -11 q 101 154 118 58 q 85 478 85 250 q 101 801 85 706 q 174 932 118 897 q 364 967 231 967 q 553 932 497 967 q 626 801 610 897 q 643 478 643 706 q 637 238 643 324 q 612 100 631 151 q 554 24 593 49 q 477 -59 511 -4 q 443 -161 443 -114 q 458 -206 443 -189 q 507 -222 474 -222 q 531 -221 519 -222 l 531 -271 q 496 -272 517 -272 m 364 47 q 510 70 469 47 q 566 178 551 93 q 581 478 581 263 q 566 778 581 693 q 510 885 551 863 q 364 908 469 908 q 217 885 258 908 q 162 778 176 863 q 147 478 147 693 q 162 178 147 263 q 217 70 176 93 q 364 47 258 47 z "},"Ø":{"ha":728,"x_min":85,"x_max":643,"o":"m 585 903 q 632 765 621 858 q 643 478 643 671 q 626 154 643 250 q 553 24 610 58 q 364 -11 497 -11 q 186 17 242 -11 l 144 -76 l 85 -76 l 143 53 q 96 191 107 97 q 85 478 85 285 q 101 801 85 706 q 174 932 118 897 q 364 967 231 967 q 542 939 486 967 l 583 1032 l 643 1032 l 585 903 m 147 478 q 152 240 147 318 q 174 119 157 161 l 518 885 q 461 904 494 900 q 364 908 428 908 q 217 885 258 908 q 162 778 176 863 q 147 478 147 693 m 579 478 q 574 715 579 636 q 554 835 569 793 l 210 69 q 266 51 232 56 q 364 47 300 47 q 510 70 469 47 q 565 177 551 93 q 579 478 579 261 z "},"Ǿ":{"ha":728,"x_min":85,"x_max":643,"o":"m 585 903 q 632 765 621 858 q 643 478 643 671 q 626 154 643 250 q 553 24 610 58 q 364 -11 497 -11 q 186 17 242 -11 l 144 -76 l 85 -76 l 143 53 q 96 191 107 97 q 85 478 85 285 q 101 801 85 706 q 174 932 118 897 q 364 967 231 967 q 542 939 486 967 l 583 1032 l 643 1032 l 585 903 m 147 478 q 152 240 147 318 q 174 119 157 161 l 518 885 q 461 904 494 900 q 364 908 428 908 q 217 885 258 908 q 162 778 176 863 q 147 478 147 693 m 579 478 q 574 715 579 636 q 554 835 569 793 l 210 69 q 266 51 232 56 q 364 47 300 47 q 510 70 469 47 q 565 177 551 93 q 579 478 579 261 m 336 1040 l 336 1047 l 414 1233 l 483 1233 l 483 1226 l 379 1040 l 336 1040 z "},"Õ":{"ha":728,"x_min":85,"x_max":643,"o":"m 364 -11 q 174 24 231 -11 q 101 154 118 58 q 85 478 85 250 q 101 801 85 706 q 174 932 118 897 q 364 967 231 967 q 553 932 497 967 q 626 801 610 897 q 643 478 643 706 q 626 154 643 250 q 553 24 610 58 q 364 -11 497 -11 m 364 47 q 510 70 469 47 q 565 177 551 93 q 579 478 579 261 q 565 778 579 694 q 510 885 551 863 q 364 908 469 908 q 217 885 258 908 q 162 778 176 863 q 147 478 147 693 q 162 178 147 263 q 217 70 176 93 q 364 47 258 47 m 551 1194 q 536 1087 551 1117 q 475 1057 521 1057 q 423 1066 449 1057 q 356 1093 397 1075 q 328 1106 350 1096 q 289 1121 307 1115 q 256 1126 271 1126 q 227 1108 233 1126 q 221 1042 221 1090 l 176 1042 q 192 1149 176 1119 q 253 1179 207 1179 q 305 1171 281 1179 q 376 1142 329 1163 q 472 1111 440 1111 q 501 1128 494 1111 q 507 1194 507 1146 l 551 1194 z "},"Œ":{"ha":1049,"x_min":85,"x_max":996,"o":"m 364 0 q 174 34 231 0 q 101 162 118 68 q 85 478 85 256 q 101 794 85 700 q 174 922 118 888 q 364 956 231 956 l 996 956 l 996 897 l 649 897 q 567 903 603 897 q 627 779 613 867 q 643 513 642 692 l 949 513 l 949 454 l 643 454 q 627 178 642 268 q 567 53 613 89 q 649 58 603 58 l 996 58 l 996 0 l 364 0 m 364 58 q 510 81 469 58 q 565 185 551 103 q 579 478 579 268 q 565 770 579 688 q 510 875 551 853 q 364 897 469 897 q 217 875 258 897 q 162 770 176 853 q 147 478 147 688 q 162 185 147 268 q 217 81 176 103 q 364 58 258 58 z "},"P":{"ha":647,"x_min":108,"x_max":597,"o":"m 108 956 l 383 956 q 526 917 479 956 q 585 820 572 879 q 597 665 597 761 q 584 512 597 572 q 524 413 571 451 q 382 375 476 375 l 172 375 l 172 0 l 108 0 l 108 956 m 375 433 q 481 460 446 433 q 525 533 515 486 q 535 665 535 581 q 525 797 535 750 q 481 871 515 844 q 375 897 447 897 l 172 897 l 172 433 l 375 433 z "},"Þ":{"ha":647,"x_min":108,"x_max":597,"o":"m 108 956 l 172 956 l 172 776 l 383 776 q 526 738 479 776 q 585 641 572 700 q 597 486 597 582 q 584 333 597 393 q 524 234 571 272 q 382 196 476 196 l 172 196 l 172 0 l 108 0 l 108 956 m 375 254 q 481 281 446 254 q 525 354 515 307 q 535 486 535 401 q 525 618 535 571 q 481 692 515 665 q 375 718 447 718 l 172 718 l 172 254 l 375 254 z "},"Q":{"ha":728,"x_min":85,"x_max":658,"o":"m 658 -157 l 658 -160 l 589 -160 l 499 1 q 364 -11 453 -11 q 174 24 231 -11 q 101 154 118 58 q 85 478 85 250 q 101 801 85 706 q 174 932 118 897 q 364 967 231 967 q 553 932 497 967 q 626 801 610 897 q 643 478 643 706 q 637 242 643 326 q 612 104 631 157 q 554 25 593 51 l 658 -157 m 364 47 q 469 53 442 47 l 329 303 l 397 303 l 525 79 q 569 195 558 110 q 579 478 579 281 q 565 778 579 694 q 510 885 551 863 q 364 908 469 908 q 217 885 258 908 q 162 778 176 863 q 147 478 147 693 q 162 178 147 263 q 217 70 176 93 q 364 47 258 47 z "},"R":{"ha":689,"x_min":108,"x_max":619,"o":"m 551 0 l 424 404 q 388 403 411 403 l 172 403 l 172 0 l 108 0 l 108 956 l 394 956 q 536 919 490 956 q 594 826 582 883 q 607 679 607 769 q 584 507 607 572 q 486 417 561 442 l 619 0 l 551 0 m 382 461 q 489 486 454 461 q 533 556 524 511 q 543 679 543 600 q 533 803 543 758 q 490 872 524 847 q 386 897 457 897 l 172 897 l 172 461 l 382 461 z "},"Ŕ":{"ha":689,"x_min":108,"x_max":619,"o":"m 551 0 l 424 404 q 388 403 411 403 l 172 403 l 172 0 l 108 0 l 108 956 l 394 956 q 536 919 490 956 q 594 826 582 883 q 607 679 607 769 q 584 507 607 572 q 486 417 561 442 l 619 0 l 551 0 m 382 461 q 489 486 454 461 q 533 556 524 511 q 543 679 543 600 q 533 803 543 758 q 490 872 524 847 q 386 897 457 897 l 172 897 l 172 461 l 382 461 m 317 1040 l 317 1047 l 394 1233 l 464 1233 l 464 1226 l 360 1040 l 317 1040 z "},"Ř":{"ha":689,"x_min":108,"x_max":619,"o":"m 551 0 l 424 404 q 388 403 411 403 l 172 403 l 172 0 l 108 0 l 108 956 l 394 956 q 536 919 490 956 q 594 826 582 883 q 607 679 607 769 q 584 507 607 572 q 486 417 561 442 l 619 0 l 551 0 m 382 461 q 489 486 454 461 q 533 556 524 511 q 543 679 543 600 q 533 803 543 758 q 490 872 524 847 q 386 897 457 897 l 172 897 l 172 461 l 382 461 m 307 1042 l 196 1226 l 196 1233 l 242 1233 l 344 1088 l 446 1233 l 492 1233 l 492 1226 l 382 1042 l 307 1042 z "},"Ŗ":{"ha":689,"x_min":108,"x_max":619,"o":"m 551 0 l 424 404 q 388 403 411 403 l 172 403 l 172 0 l 108 0 l 108 956 l 394 956 q 536 919 490 956 q 594 826 582 883 q 607 679 607 769 q 584 507 607 572 q 486 417 561 442 l 619 0 l 551 0 m 382 461 q 489 486 454 461 q 533 556 524 511 q 543 679 543 600 q 533 803 543 758 q 490 872 524 847 q 386 897 457 897 l 172 897 l 172 461 l 382 461 m 290 -293 q 344 -276 333 -293 q 356 -208 356 -260 l 356 -185 l 324 -185 l 324 -86 l 400 -86 l 400 -192 q 391 -276 400 -247 q 359 -315 382 -304 q 290 -326 336 -326 l 290 -293 z "},"Ȑ":{"ha":689,"x_min":108,"x_max":619,"o":"m 551 0 l 424 404 q 388 403 411 403 l 172 403 l 172 0 l 108 0 l 108 956 l 394 956 q 536 919 490 956 q 594 826 582 883 q 607 679 607 769 q 584 507 607 572 q 486 417 561 442 l 619 0 l 551 0 m 382 461 q 489 486 454 461 q 533 556 524 511 q 543 679 543 600 q 533 803 543 758 q 490 872 524 847 q 386 897 457 897 l 172 897 l 172 461 l 382 461 m 281 1047 l 239 1047 l 138 1214 l 138 1221 l 204 1221 l 281 1054 l 281 1047 m 463 1047 l 421 1047 l 319 1214 l 319 1221 l 386 1221 l 463 1054 l 463 1047 z "},"Ṛ":{"ha":689,"x_min":108,"x_max":619,"o":"m 551 0 l 424 404 q 388 403 411 403 l 172 403 l 172 0 l 108 0 l 108 956 l 394 956 q 536 919 490 956 q 594 826 582 883 q 607 679 607 769 q 584 507 607 572 q 486 417 561 442 l 619 0 l 551 0 m 382 461 q 489 486 454 461 q 533 556 524 511 q 543 679 543 600 q 533 803 543 758 q 490 872 524 847 q 386 897 457 897 l 172 897 l 172 461 l 382 461 m 307 -185 l 307 -86 l 383 -86 l 383 -185 l 307 -185 z "},"Ȓ":{"ha":689,"x_min":108,"x_max":619,"o":"m 551 0 l 424 404 q 388 403 411 403 l 172 403 l 172 0 l 108 0 l 108 956 l 394 956 q 536 919 490 956 q 594 826 582 883 q 607 679 607 769 q 584 507 607 572 q 486 417 561 442 l 619 0 l 551 0 m 382 461 q 489 486 454 461 q 533 556 524 511 q 543 679 543 600 q 533 803 543 758 q 490 872 524 847 q 386 897 457 897 l 172 897 l 172 461 l 382 461 m 197 1046 q 205 1156 197 1117 q 244 1218 213 1194 q 344 1242 276 1242 q 444 1218 413 1242 q 483 1156 475 1194 q 490 1046 490 1118 l 440 1046 q 435 1135 440 1106 q 410 1181 431 1165 q 344 1197 390 1197 q 278 1181 299 1197 q 253 1135 258 1165 q 249 1046 249 1106 l 197 1046 z "},"S":{"ha":621,"x_min":65,"x_max":554,"o":"m 315 -11 q 197 -6 261 -11 q 86 6 133 -1 l 86 65 q 195 53 135 58 q 296 47 256 47 q 388 56 353 47 q 450 85 424 64 q 483 145 475 104 q 490 256 490 186 q 484 381 490 347 q 455 429 478 415 q 369 453 432 443 l 192 481 q 106 517 133 489 q 72 589 79 546 q 65 713 65 632 q 122 908 65 850 q 315 967 179 967 q 431 962 375 967 q 519 947 488 957 l 519 892 q 426 903 479 899 q 328 908 372 908 q 222 897 261 908 q 164 860 183 885 q 136 801 143 836 q 129 710 129 765 q 136 605 129 638 q 162 559 143 572 q 224 539 181 546 l 389 514 q 492 484 457 503 q 543 417 526 465 q 552 361 550 396 q 554 264 554 326 q 533 102 554 161 q 460 16 511 43 q 315 -11 408 -11 z "},"Ś":{"ha":621,"x_min":65,"x_max":554,"o":"m 315 -11 q 197 -6 261 -11 q 86 6 133 -1 l 86 65 q 195 53 135 58 q 296 47 256 47 q 388 56 353 47 q 450 85 424 64 q 483 145 475 104 q 490 256 490 186 q 484 381 490 347 q 455 429 478 415 q 369 453 432 443 l 192 481 q 106 517 133 489 q 72 589 79 546 q 65 713 65 632 q 122 908 65 850 q 315 967 179 967 q 431 962 375 967 q 519 947 488 957 l 519 892 q 426 903 479 899 q 328 908 372 908 q 222 897 261 908 q 164 860 183 885 q 136 801 143 836 q 129 710 129 765 q 136 605 129 638 q 162 559 143 572 q 224 539 181 546 l 389 514 q 492 484 457 503 q 543 417 526 465 q 552 361 550 396 q 554 264 554 326 q 533 102 554 161 q 460 16 511 43 q 315 -11 408 -11 m 282 1040 l 282 1047 l 360 1233 l 429 1233 l 429 1226 l 325 1040 l 282 1040 z "},"Ꞌ":{"ha":132,"x_min":33,"x_max":99,"o":"m 33 406 l 33 956 l 99 956 l 99 710 l 75 406 l 33 406 z "},"Š":{"ha":621,"x_min":65,"x_max":554,"o":"m 315 -11 q 197 -6 261 -11 q 86 6 133 -1 l 86 65 q 195 53 135 58 q 296 47 256 47 q 388 56 353 47 q 450 85 424 64 q 483 145 475 104 q 490 256 490 186 q 484 381 490 347 q 455 429 478 415 q 369 453 432 443 l 192 481 q 106 517 133 489 q 72 589 79 546 q 65 713 65 632 q 122 908 65 850 q 315 967 179 967 q 431 962 375 967 q 519 947 488 957 l 519 892 q 426 903 479 899 q 328 908 372 908 q 222 897 261 908 q 164 860 183 885 q 136 801 143 836 q 129 710 129 765 q 136 605 129 638 q 162 559 143 572 q 224 539 181 546 l 389 514 q 492 484 457 503 q 543 417 526 465 q 552 361 550 396 q 554 264 554 326 q 533 102 554 161 q 460 16 511 43 q 315 -11 408 -11 m 279 1042 l 168 1226 l 168 1233 l 214 1233 l 317 1088 l 418 1233 l 464 1233 l 464 1226 l 354 1042 l 279 1042 z "},"Ş":{"ha":621,"x_min":65,"x_max":554,"o":"m 554 264 q 534 106 554 164 q 465 19 514 47 q 329 -11 417 -8 l 272 -264 l 206 -264 l 206 -257 l 281 -11 q 86 6 158 -6 l 86 65 q 195 53 135 58 q 296 47 256 47 q 388 56 353 47 q 450 85 424 64 q 483 145 475 104 q 490 256 490 186 q 484 381 490 347 q 455 429 478 415 q 369 453 432 443 l 192 481 q 106 517 133 489 q 72 589 79 546 q 65 713 65 632 q 122 908 65 850 q 315 967 179 967 q 431 962 375 967 q 519 947 488 957 l 519 892 q 426 903 479 899 q 328 908 372 908 q 222 897 261 908 q 164 860 183 885 q 136 801 143 836 q 129 710 129 765 q 136 605 129 638 q 162 559 143 572 q 224 539 181 546 l 389 514 q 492 484 457 503 q 543 417 526 465 q 552 361 550 396 q 554 264 554 326 z "},"Ŝ":{"ha":621,"x_min":65,"x_max":554,"o":"m 315 -11 q 197 -6 261 -11 q 86 6 133 -1 l 86 65 q 195 53 135 58 q 296 47 256 47 q 388 56 353 47 q 450 85 424 64 q 483 145 475 104 q 490 256 490 186 q 484 381 490 347 q 455 429 478 415 q 369 453 432 443 l 192 481 q 106 517 133 489 q 72 589 79 546 q 65 713 65 632 q 122 908 65 850 q 315 967 179 967 q 431 962 375 967 q 519 947 488 957 l 519 892 q 426 903 479 899 q 328 908 372 908 q 222 897 261 908 q 164 860 183 885 q 136 801 143 836 q 129 710 129 765 q 136 605 129 638 q 162 559 143 572 q 224 539 181 546 l 389 514 q 492 484 457 503 q 543 417 526 465 q 552 361 550 396 q 554 264 554 326 q 533 102 554 161 q 460 16 511 43 q 315 -11 408 -11 m 163 1042 l 163 1049 l 272 1233 l 347 1233 l 457 1049 l 457 1042 l 411 1042 l 310 1188 l 207 1042 l 163 1042 z "},"Ș":{"ha":621,"x_min":65,"x_max":554,"o":"m 315 -11 q 197 -6 261 -11 q 86 6 133 -1 l 86 65 q 195 53 135 58 q 296 47 256 47 q 388 56 353 47 q 450 85 424 64 q 483 145 475 104 q 490 256 490 186 q 484 381 490 347 q 455 429 478 415 q 369 453 432 443 l 192 481 q 106 517 133 489 q 72 589 79 546 q 65 713 65 632 q 122 908 65 850 q 315 967 179 967 q 431 962 375 967 q 519 947 488 957 l 519 892 q 426 903 479 899 q 328 908 372 908 q 222 897 261 908 q 164 860 183 885 q 136 801 143 836 q 129 710 129 765 q 136 605 129 638 q 162 559 143 572 q 224 539 181 546 l 389 514 q 492 484 457 503 q 543 417 526 465 q 552 361 550 396 q 554 264 554 326 q 533 102 554 161 q 460 16 511 43 q 315 -11 408 -11 m 256 -293 q 310 -276 299 -293 q 321 -208 321 -260 l 321 -185 l 289 -185 l 289 -86 l 365 -86 l 365 -192 q 356 -276 365 -247 q 324 -315 347 -304 q 256 -326 301 -326 l 256 -293 z "},"Ṣ":{"ha":621,"x_min":65,"x_max":554,"o":"m 315 -11 q 197 -6 261 -11 q 86 6 133 -1 l 86 65 q 195 53 135 58 q 296 47 256 47 q 388 56 353 47 q 450 85 424 64 q 483 145 475 104 q 490 256 490 186 q 484 381 490 347 q 455 429 478 415 q 369 453 432 443 l 192 481 q 106 517 133 489 q 72 589 79 546 q 65 713 65 632 q 122 908 65 850 q 315 967 179 967 q 431 962 375 967 q 519 947 488 957 l 519 892 q 426 903 479 899 q 328 908 372 908 q 222 897 261 908 q 164 860 183 885 q 136 801 143 836 q 129 710 129 765 q 136 605 129 638 q 162 559 143 572 q 224 539 181 546 l 389 514 q 492 484 457 503 q 543 417 526 465 q 552 361 550 396 q 554 264 554 326 q 533 102 554 161 q 460 16 511 43 q 315 -11 408 -11 m 272 -185 l 272 -86 l 349 -86 l 349 -185 l 272 -185 z "},"ẞ":{"ha":764,"x_min":100,"x_max":688,"o":"m 482 511 q 638 449 589 511 q 688 254 688 386 q 666 106 688 163 q 591 19 644 49 q 443 -11 538 -11 q 356 -6 404 -11 q 269 10 307 0 l 269 64 q 443 47 372 47 q 547 63 508 47 q 604 123 585 79 q 624 249 624 167 q 592 408 624 360 q 485 456 560 456 l 363 456 l 363 501 l 574 874 q 356 908 474 908 q 227 883 265 908 q 176 781 189 857 q 164 524 164 704 l 164 0 l 100 0 l 100 524 q 118 803 100 713 q 187 931 136 894 q 344 967 238 967 q 507 951 431 967 q 636 913 583 936 l 636 864 l 436 511 l 482 511 z "},"Ə":{"ha":718,"x_min":85,"x_max":635,"o":"m 346 967 q 535 933 476 967 q 614 799 593 899 q 635 478 635 700 q 617 154 635 250 q 545 24 600 58 q 360 -11 490 -11 q 174 24 229 -11 q 101 154 118 58 q 85 478 85 250 l 85 513 l 571 513 q 553 778 569 700 q 489 883 538 857 q 325 908 440 908 q 241 903 288 908 q 160 890 194 897 l 160 947 q 346 967 254 967 m 360 47 q 501 69 461 47 q 555 171 540 90 q 571 454 569 251 l 147 454 q 163 171 149 251 q 218 69 178 90 q 360 47 258 47 z "},"T":{"ha":575,"x_min":29,"x_max":544,"o":"m 256 0 l 256 897 l 29 897 l 29 956 l 544 956 l 544 897 l 319 897 l 319 0 l 256 0 z "},"Ŧ":{"ha":575,"x_min":29,"x_max":544,"o":"m 544 897 l 319 897 l 319 511 l 504 511 l 504 457 l 319 457 l 319 0 l 256 0 l 256 457 l 71 457 l 71 511 l 256 511 l 256 897 l 29 897 l 29 956 l 544 956 l 544 897 z "},"Ť":{"ha":575,"x_min":29,"x_max":544,"o":"m 256 0 l 256 897 l 29 897 l 29 956 l 544 956 l 544 897 l 319 897 l 319 0 l 256 0 m 250 1042 l 139 1226 l 139 1233 l 185 1233 l 288 1088 l 389 1233 l 435 1233 l 435 1226 l 325 1042 l 250 1042 z "},"Ţ":{"ha":575,"x_min":29,"x_max":544,"o":"m 29 956 l 544 956 l 544 897 l 319 897 l 319 0 l 308 0 l 250 -264 l 183 -264 l 183 -257 l 263 0 l 256 0 l 256 897 l 29 897 l 29 956 z "},"Ț":{"ha":575,"x_min":29,"x_max":544,"o":"m 256 0 l 256 897 l 29 897 l 29 956 l 544 956 l 544 897 l 319 897 l 319 0 l 256 0 m 233 -293 q 288 -276 276 -293 q 299 -208 299 -260 l 299 -185 l 267 -185 l 267 -86 l 343 -86 l 343 -192 q 334 -276 343 -247 q 302 -315 325 -304 q 233 -326 279 -326 l 233 -293 z "},"Ṭ":{"ha":575,"x_min":29,"x_max":544,"o":"m 256 0 l 256 897 l 29 897 l 29 956 l 544 956 l 544 897 l 319 897 l 319 0 l 256 0 m 250 -185 l 250 -86 l 326 -86 l 326 -185 l 250 -185 z "},"U":{"ha":721,"x_min":100,"x_max":621,"o":"m 621 956 l 621 410 q 605 143 621 226 q 535 24 589 60 q 361 -11 482 -11 q 186 24 240 -11 q 116 143 132 60 q 100 410 100 226 l 100 956 l 164 956 l 164 367 q 176 161 164 224 q 228 73 188 99 q 361 47 268 47 q 494 73 454 47 q 546 161 535 99 q 557 367 557 224 l 557 956 l 621 956 z "},"Ú":{"ha":721,"x_min":100,"x_max":621,"o":"m 621 956 l 621 410 q 605 143 621 226 q 535 24 589 60 q 361 -11 482 -11 q 186 24 240 -11 q 116 143 132 60 q 100 410 100 226 l 100 956 l 164 956 l 164 367 q 176 161 164 224 q 228 73 188 99 q 361 47 268 47 q 494 73 454 47 q 546 161 535 99 q 557 367 557 224 l 557 956 l 621 956 m 335 1042 l 335 1049 l 413 1235 l 482 1235 l 482 1228 l 378 1042 l 335 1042 z "},"Ŭ":{"ha":721,"x_min":100,"x_max":621,"o":"m 621 956 l 621 410 q 605 143 621 226 q 535 24 589 60 q 361 -11 482 -11 q 186 24 240 -11 q 116 143 132 60 q 100 410 100 226 l 100 956 l 164 956 l 164 367 q 176 161 164 224 q 228 73 188 99 q 361 47 268 47 q 494 73 454 47 q 546 161 535 99 q 557 367 557 224 l 557 956 l 621 956 m 507 1233 q 499 1124 507 1163 q 460 1061 492 1085 q 360 1038 428 1038 q 260 1061 292 1038 q 222 1123 229 1085 q 214 1233 214 1161 l 264 1233 q 269 1144 264 1174 q 294 1098 274 1114 q 360 1082 314 1082 q 426 1098 406 1082 q 451 1144 446 1114 q 456 1233 456 1174 l 507 1233 z "},"Ǔ":{"ha":721,"x_min":100,"x_max":621,"o":"m 621 956 l 621 410 q 605 143 621 226 q 535 24 589 60 q 361 -11 482 -11 q 186 24 240 -11 q 116 143 132 60 q 100 410 100 226 l 100 956 l 164 956 l 164 367 q 176 161 164 224 q 228 73 188 99 q 361 47 268 47 q 494 73 454 47 q 546 161 535 99 q 557 367 557 224 l 557 956 l 621 956 m 324 1042 l 213 1226 l 213 1233 l 258 1233 l 361 1088 l 463 1233 l 508 1233 l 508 1226 l 399 1042 l 324 1042 z "},"Û":{"ha":721,"x_min":100,"x_max":621,"o":"m 621 956 l 621 410 q 605 143 621 226 q 535 24 589 60 q 361 -11 482 -11 q 186 24 240 -11 q 116 143 132 60 q 100 410 100 226 l 100 956 l 164 956 l 164 367 q 176 161 164 224 q 228 73 188 99 q 361 47 268 47 q 494 73 454 47 q 546 161 535 99 q 557 367 557 224 l 557 956 l 621 956 m 214 1042 l 214 1049 l 324 1233 l 399 1233 l 508 1049 l 508 1042 l 463 1042 l 361 1188 l 258 1042 l 214 1042 z "},"Ȕ":{"ha":721,"x_min":100,"x_max":621,"o":"m 621 956 l 621 410 q 605 143 621 226 q 535 24 589 60 q 361 -11 482 -11 q 186 24 240 -11 q 116 143 132 60 q 100 410 100 226 l 100 956 l 164 956 l 164 367 q 176 161 164 224 q 228 73 188 99 q 361 47 268 47 q 494 73 454 47 q 546 161 535 99 q 557 367 557 224 l 557 956 l 621 956 m 297 1047 l 256 1047 l 154 1214 l 154 1221 l 221 1221 l 297 1054 l 297 1047 m 479 1047 l 438 1047 l 336 1214 l 336 1221 l 403 1221 l 479 1054 l 479 1047 z "},"Ü":{"ha":721,"x_min":100,"x_max":621,"o":"m 621 956 l 621 410 q 605 143 621 226 q 535 24 589 60 q 361 -11 482 -11 q 186 24 240 -11 q 116 143 132 60 q 100 410 100 226 l 100 956 l 164 956 l 164 367 q 176 161 164 224 q 228 73 188 99 q 361 47 268 47 q 494 73 454 47 q 546 161 535 99 q 557 367 557 224 l 557 956 l 621 956 m 206 1071 l 206 1161 l 274 1161 l 274 1071 l 206 1071 m 449 1071 l 449 1161 l 515 1161 l 515 1071 l 449 1071 z "},"Ǘ":{"ha":721,"x_min":100,"x_max":621,"o":"m 621 956 l 621 410 q 605 143 621 226 q 535 24 589 60 q 361 -11 482 -11 q 186 24 240 -11 q 116 143 132 60 q 100 410 100 226 l 100 956 l 164 956 l 164 367 q 176 161 164 224 q 228 73 188 99 q 361 47 268 47 q 494 73 454 47 q 546 161 535 99 q 557 367 557 224 l 557 956 l 621 956 m 206 1125 l 206 1215 l 274 1215 l 274 1125 l 206 1125 m 449 1125 l 449 1215 l 515 1215 l 515 1125 l 449 1125 m 336 1217 l 336 1224 l 414 1410 l 483 1410 l 483 1403 l 379 1217 l 336 1217 z "},"Ǚ":{"ha":721,"x_min":100,"x_max":621,"o":"m 621 956 l 621 410 q 605 143 621 226 q 535 24 589 60 q 361 -11 482 -11 q 186 24 240 -11 q 116 143 132 60 q 100 410 100 226 l 100 956 l 164 956 l 164 367 q 176 161 164 224 q 228 73 188 99 q 361 47 268 47 q 494 73 454 47 q 546 161 535 99 q 557 367 557 224 l 557 956 l 621 956 m 206 1125 l 206 1215 l 274 1215 l 274 1125 l 206 1125 m 449 1125 l 449 1215 l 515 1215 l 515 1125 l 449 1125 m 326 1218 l 215 1403 l 215 1410 l 261 1410 l 364 1264 l 465 1410 l 511 1410 l 511 1403 l 401 1218 l 326 1218 z "},"Ǜ":{"ha":721,"x_min":100,"x_max":621,"o":"m 621 956 l 621 410 q 605 143 621 226 q 535 24 589 60 q 361 -11 482 -11 q 186 24 240 -11 q 116 143 132 60 q 100 410 100 226 l 100 956 l 164 956 l 164 367 q 176 161 164 224 q 228 73 188 99 q 361 47 268 47 q 494 73 454 47 q 546 161 535 99 q 557 367 557 224 l 557 956 l 621 956 m 206 1125 l 206 1215 l 274 1215 l 274 1125 l 206 1125 m 449 1125 l 449 1215 l 515 1215 l 515 1125 l 449 1125 m 350 1217 l 246 1403 l 246 1410 l 315 1410 l 393 1224 l 393 1217 l 350 1217 z "},"Ǖ":{"ha":721,"x_min":100,"x_max":621,"o":"m 621 956 l 621 410 q 605 143 621 226 q 535 24 589 60 q 361 -11 482 -11 q 186 24 240 -11 q 116 143 132 60 q 100 410 100 226 l 100 956 l 164 956 l 164 367 q 176 161 164 224 q 228 73 188 99 q 361 47 268 47 q 494 73 454 47 q 546 161 535 99 q 557 367 557 224 l 557 956 l 621 956 m 206 1125 l 206 1215 l 274 1215 l 274 1125 l 206 1125 m 449 1125 l 449 1215 l 515 1215 l 515 1125 l 449 1125 m 232 1349 l 232 1410 l 493 1410 l 493 1349 l 232 1349 z "},"Ụ":{"ha":721,"x_min":100,"x_max":621,"o":"m 621 956 l 621 410 q 605 143 621 226 q 535 24 589 60 q 361 -11 482 -11 q 186 24 240 -11 q 116 143 132 60 q 100 410 100 226 l 100 956 l 164 956 l 164 367 q 176 161 164 224 q 228 73 188 99 q 361 47 268 47 q 494 73 454 47 q 546 161 535 99 q 557 367 557 224 l 557 956 l 621 956 m 324 -185 l 324 -86 l 400 -86 l 400 -185 l 324 -185 z "},"Ù":{"ha":721,"x_min":100,"x_max":621,"o":"m 621 956 l 621 410 q 605 143 621 226 q 535 24 589 60 q 361 -11 482 -11 q 186 24 240 -11 q 116 143 132 60 q 100 410 100 226 l 100 956 l 164 956 l 164 367 q 176 161 164 224 q 228 73 188 99 q 361 47 268 47 q 494 73 454 47 q 546 161 535 99 q 557 367 557 224 l 557 956 l 621 956 m 360 1042 l 256 1228 l 256 1235 l 325 1235 l 403 1049 l 403 1042 l 360 1042 z "},"Ủ":{"ha":721,"x_min":100,"x_max":621,"o":"m 621 956 l 621 410 q 605 143 621 226 q 535 24 589 60 q 361 -11 482 -11 q 186 24 240 -11 q 116 143 132 60 q 100 410 100 226 l 100 956 l 164 956 l 164 367 q 176 161 164 224 q 228 73 188 99 q 361 47 268 47 q 494 73 454 47 q 546 161 535 99 q 557 367 557 224 l 557 956 l 621 956 m 306 1038 q 317 1078 306 1067 q 358 1100 329 1090 l 381 1106 q 429 1128 417 1117 q 442 1167 442 1139 q 435 1201 442 1190 q 408 1215 428 1211 q 343 1219 388 1219 q 229 1213 301 1219 l 229 1256 q 351 1264 310 1264 q 463 1244 433 1264 q 492 1174 492 1225 q 481 1113 492 1133 q 429 1079 469 1093 l 408 1072 q 369 1058 381 1064 q 356 1046 358 1053 q 353 1024 353 1039 l 306 1024 l 306 1038 z "},"Ư":{"ha":721,"x_min":100,"x_max":746,"o":"m 746 1092 l 746 1046 q 736 964 746 992 q 702 925 726 936 q 628 914 678 914 l 621 914 l 621 410 q 605 143 621 226 q 535 24 589 60 q 361 -11 482 -11 q 186 24 240 -11 q 116 143 132 60 q 100 410 100 226 l 100 956 l 164 956 l 164 367 q 176 161 164 224 q 228 73 188 99 q 361 47 268 47 q 494 73 454 47 q 546 161 535 99 q 557 367 557 224 l 557 956 l 628 956 q 684 972 672 956 q 696 1035 696 988 l 696 1092 l 746 1092 z "},"Ứ":{"ha":721,"x_min":100,"x_max":746,"o":"m 746 1092 l 746 1046 q 736 964 746 992 q 702 925 726 936 q 628 914 678 914 l 621 914 l 621 410 q 605 143 621 226 q 535 24 589 60 q 361 -11 482 -11 q 186 24 240 -11 q 116 143 132 60 q 100 410 100 226 l 100 956 l 164 956 l 164 367 q 176 161 164 224 q 228 73 188 99 q 361 47 268 47 q 494 73 454 47 q 546 161 535 99 q 557 367 557 224 l 557 956 l 628 956 q 684 972 672 956 q 696 1035 696 988 l 696 1092 l 746 1092 m 333 1040 l 333 1047 l 411 1233 l 481 1233 l 481 1226 l 376 1040 l 333 1040 z "},"Ự":{"ha":721,"x_min":100,"x_max":746,"o":"m 746 1092 l 746 1046 q 736 964 746 992 q 702 925 726 936 q 628 914 678 914 l 621 914 l 621 410 q 605 143 621 226 q 535 24 589 60 q 361 -11 482 -11 q 186 24 240 -11 q 116 143 132 60 q 100 410 100 226 l 100 956 l 164 956 l 164 367 q 176 161 164 224 q 228 73 188 99 q 361 47 268 47 q 494 73 454 47 q 546 161 535 99 q 557 367 557 224 l 557 956 l 628 956 q 684 972 672 956 q 696 1035 696 988 l 696 1092 l 746 1092 m 324 -185 l 324 -86 l 400 -86 l 400 -185 l 324 -185 z "},"Ừ":{"ha":721,"x_min":100,"x_max":746,"o":"m 746 1092 l 746 1046 q 736 964 746 992 q 702 925 726 936 q 628 914 678 914 l 621 914 l 621 410 q 605 143 621 226 q 535 24 589 60 q 361 -11 482 -11 q 186 24 240 -11 q 116 143 132 60 q 100 410 100 226 l 100 956 l 164 956 l 164 367 q 176 161 164 224 q 228 73 188 99 q 361 47 268 47 q 494 73 454 47 q 546 161 535 99 q 557 367 557 224 l 557 956 l 628 956 q 684 972 672 956 q 696 1035 696 988 l 696 1092 l 746 1092 m 347 1040 l 243 1226 l 243 1233 l 313 1233 l 390 1047 l 390 1040 l 347 1040 z "},"Ử":{"ha":721,"x_min":100,"x_max":746,"o":"m 746 1092 l 746 1046 q 736 964 746 992 q 702 925 726 936 q 628 914 678 914 l 621 914 l 621 410 q 605 143 621 226 q 535 24 589 60 q 361 -11 482 -11 q 186 24 240 -11 q 116 143 132 60 q 100 410 100 226 l 100 956 l 164 956 l 164 367 q 176 161 164 224 q 228 73 188 99 q 361 47 268 47 q 494 73 454 47 q 546 161 535 99 q 557 367 557 224 l 557 956 l 628 956 q 684 972 672 956 q 696 1035 696 988 l 696 1092 l 746 1092 m 306 1038 q 317 1078 306 1067 q 358 1100 329 1090 l 381 1106 q 429 1128 417 1117 q 442 1167 442 1139 q 435 1201 442 1190 q 408 1215 428 1211 q 343 1219 388 1219 q 229 1213 301 1219 l 229 1256 q 351 1264 310 1264 q 463 1244 433 1264 q 492 1174 492 1225 q 481 1113 492 1133 q 429 1079 469 1093 l 408 1072 q 369 1058 381 1064 q 356 1046 358 1053 q 353 1024 353 1039 l 306 1024 l 306 1038 z "},"Ữ":{"ha":721,"x_min":100,"x_max":746,"o":"m 746 1092 l 746 1046 q 736 964 746 992 q 702 925 726 936 q 628 914 678 914 l 621 914 l 621 410 q 605 143 621 226 q 535 24 589 60 q 361 -11 482 -11 q 186 24 240 -11 q 116 143 132 60 q 100 410 100 226 l 100 956 l 164 956 l 164 367 q 176 161 164 224 q 228 73 188 99 q 361 47 268 47 q 494 73 454 47 q 546 161 535 99 q 557 367 557 224 l 557 956 l 628 956 q 684 972 672 956 q 696 1035 696 988 l 696 1092 l 746 1092 m 549 1233 q 533 1126 549 1156 q 472 1096 518 1096 q 420 1105 446 1096 q 353 1132 394 1114 q 326 1144 347 1135 q 286 1160 304 1154 q 253 1165 268 1165 q 224 1147 231 1165 q 218 1081 218 1129 l 174 1081 q 189 1188 174 1158 q 250 1218 204 1218 q 302 1210 278 1218 q 374 1181 326 1201 q 469 1150 438 1150 q 498 1167 492 1150 q 504 1233 504 1185 l 549 1233 z "},"Ű":{"ha":721,"x_min":100,"x_max":621,"o":"m 621 956 l 621 410 q 605 143 621 226 q 535 24 589 60 q 361 -11 482 -11 q 186 24 240 -11 q 116 143 132 60 q 100 410 100 226 l 100 956 l 164 956 l 164 367 q 176 161 164 224 q 228 73 188 99 q 361 47 268 47 q 494 73 454 47 q 546 161 535 99 q 557 367 557 224 l 557 956 l 621 956 m 251 1047 l 251 1054 l 328 1221 l 394 1221 l 394 1214 l 293 1047 l 251 1047 m 433 1047 l 433 1054 l 510 1221 l 576 1221 l 576 1214 l 475 1047 l 433 1047 z "},"Ȗ":{"ha":721,"x_min":100,"x_max":621,"o":"m 621 956 l 621 410 q 605 143 621 226 q 535 24 589 60 q 361 -11 482 -11 q 186 24 240 -11 q 116 143 132 60 q 100 410 100 226 l 100 956 l 164 956 l 164 367 q 176 161 164 224 q 228 73 188 99 q 361 47 268 47 q 494 73 454 47 q 546 161 535 99 q 557 367 557 224 l 557 956 l 621 956 m 214 1046 q 222 1156 214 1117 q 261 1218 229 1194 q 361 1242 293 1242 q 460 1218 429 1242 q 499 1156 492 1194 q 507 1046 507 1118 l 457 1046 q 452 1135 457 1106 q 427 1181 447 1165 q 361 1197 407 1197 q 295 1181 315 1197 q 270 1135 275 1165 q 265 1046 265 1106 l 214 1046 z "},"Ū":{"ha":721,"x_min":100,"x_max":621,"o":"m 621 956 l 621 410 q 605 143 621 226 q 535 24 589 60 q 361 -11 482 -11 q 186 24 240 -11 q 116 143 132 60 q 100 410 100 226 l 100 956 l 164 956 l 164 367 q 176 161 164 224 q 228 73 188 99 q 361 47 268 47 q 494 73 454 47 q 546 161 535 99 q 557 367 557 224 l 557 956 l 621 956 m 229 1172 l 229 1233 l 490 1233 l 490 1172 l 229 1172 z "},"Ų":{"ha":721,"x_min":100,"x_max":621,"o":"m 621 956 l 621 410 q 615 213 621 285 q 590 94 608 140 q 535 22 572 47 q 457 -58 489 -7 q 425 -160 425 -110 q 489 -222 425 -222 q 513 -221 501 -222 l 513 -271 q 478 -272 499 -272 q 394 -244 421 -272 q 368 -171 368 -217 q 390 -89 368 -133 q 449 -4 411 -44 q 361 -11 418 -11 q 186 24 240 -11 q 116 143 132 60 q 100 410 100 226 l 100 956 l 164 956 l 164 367 q 176 161 164 224 q 228 73 188 99 q 361 47 268 47 q 494 73 454 47 q 546 161 535 99 q 557 367 557 224 l 557 956 l 621 956 z "},"Ů":{"ha":721,"x_min":100,"x_max":621,"o":"m 621 956 l 621 410 q 605 143 621 226 q 535 24 589 60 q 361 -11 482 -11 q 186 24 240 -11 q 116 143 132 60 q 100 410 100 226 l 100 956 l 164 956 l 164 367 q 176 161 164 224 q 228 73 188 99 q 361 47 268 47 q 494 73 454 47 q 546 161 535 99 q 557 367 557 224 l 557 956 l 621 956 m 360 1015 q 272 1027 300 1015 q 237 1064 244 1039 q 229 1140 229 1089 q 238 1217 229 1192 q 273 1255 246 1243 q 360 1267 300 1267 q 447 1255 419 1267 q 482 1217 474 1243 q 490 1140 490 1192 q 483 1064 490 1089 q 447 1027 475 1039 q 360 1015 419 1015 m 360 1058 q 414 1065 397 1058 q 435 1088 431 1072 q 439 1140 439 1104 q 435 1192 439 1176 q 414 1215 431 1208 q 360 1222 397 1222 q 306 1215 322 1222 q 285 1192 289 1208 q 281 1140 281 1176 q 285 1088 281 1104 q 306 1065 289 1072 q 360 1058 322 1058 z "},"Ũ":{"ha":721,"x_min":100,"x_max":621,"o":"m 621 956 l 621 410 q 605 143 621 226 q 535 24 589 60 q 361 -11 482 -11 q 186 24 240 -11 q 116 143 132 60 q 100 410 100 226 l 100 956 l 164 956 l 164 367 q 176 161 164 224 q 228 73 188 99 q 361 47 268 47 q 494 73 454 47 q 546 161 535 99 q 557 367 557 224 l 557 956 l 621 956 m 549 1233 q 533 1126 549 1156 q 472 1096 518 1096 q 420 1105 446 1096 q 353 1132 394 1114 q 326 1144 347 1135 q 286 1160 304 1154 q 253 1165 268 1165 q 224 1147 231 1165 q 218 1081 218 1129 l 174 1081 q 189 1188 174 1158 q 250 1218 204 1218 q 302 1210 278 1218 q 374 1181 326 1201 q 469 1150 438 1150 q 498 1167 492 1150 q 504 1233 504 1185 l 549 1233 z "},"V":{"ha":639,"x_min":21,"x_max":618,"o":"m 282 0 l 21 956 l 88 956 l 317 103 l 324 103 l 554 956 l 618 956 l 357 0 l 282 0 z "},"W":{"ha":954,"x_min":26,"x_max":928,"o":"m 663 0 l 479 833 l 474 833 l 293 0 l 219 0 l 26 956 l 93 956 l 254 115 l 263 115 l 442 956 l 514 956 l 694 115 l 703 115 l 864 956 l 928 956 l 735 0 l 663 0 z "},"Ẃ":{"ha":954,"x_min":26,"x_max":928,"o":"m 663 0 l 479 833 l 474 833 l 293 0 l 219 0 l 26 956 l 93 956 l 254 115 l 263 115 l 442 956 l 514 956 l 694 115 l 703 115 l 864 956 l 928 956 l 735 0 l 663 0 m 450 1040 l 450 1047 l 528 1233 l 597 1233 l 597 1226 l 493 1040 l 450 1040 z "},"Ŵ":{"ha":954,"x_min":26,"x_max":928,"o":"m 663 0 l 479 833 l 474 833 l 293 0 l 219 0 l 26 956 l 93 956 l 254 115 l 263 115 l 442 956 l 514 956 l 694 115 l 703 115 l 864 956 l 928 956 l 735 0 l 663 0 m 331 1042 l 331 1049 l 440 1233 l 515 1233 l 625 1049 l 625 1042 l 579 1042 l 478 1188 l 375 1042 l 331 1042 z "},"Ẅ":{"ha":954,"x_min":26,"x_max":928,"o":"m 663 0 l 479 833 l 474 833 l 293 0 l 219 0 l 26 956 l 93 956 l 254 115 l 263 115 l 442 956 l 514 956 l 694 115 l 703 115 l 864 956 l 928 956 l 735 0 l 663 0 m 322 1125 l 322 1215 l 390 1215 l 390 1125 l 322 1125 m 565 1125 l 565 1215 l 632 1215 l 632 1125 l 565 1125 z "},"Ẁ":{"ha":954,"x_min":26,"x_max":928,"o":"m 663 0 l 479 833 l 474 833 l 293 0 l 219 0 l 26 956 l 93 956 l 254 115 l 263 115 l 442 956 l 514 956 l 694 115 l 703 115 l 864 956 l 928 956 l 735 0 l 663 0 m 464 1040 l 360 1226 l 360 1233 l 429 1233 l 507 1047 l 507 1040 l 464 1040 z "},"X":{"ha":668,"x_min":31,"x_max":639,"o":"m 567 0 l 338 419 l 329 419 l 100 0 l 31 0 l 294 481 l 33 956 l 106 956 l 332 540 l 339 540 l 565 956 l 636 956 l 375 482 l 639 0 l 567 0 z "},"Y":{"ha":590,"x_min":7,"x_max":582,"o":"m 263 0 l 263 385 l 7 956 l 76 956 l 292 465 l 300 465 l 517 956 l 582 956 l 326 385 l 326 0 l 263 0 z "},"Ý":{"ha":590,"x_min":7,"x_max":582,"o":"m 263 0 l 263 385 l 7 956 l 76 956 l 292 465 l 300 465 l 517 956 l 582 956 l 326 385 l 326 0 l 263 0 m 275 1042 l 275 1049 l 353 1235 l 422 1235 l 422 1228 l 318 1042 l 275 1042 z "},"Ŷ":{"ha":590,"x_min":7,"x_max":582,"o":"m 263 0 l 263 385 l 7 956 l 76 956 l 292 465 l 300 465 l 517 956 l 582 956 l 326 385 l 326 0 l 263 0 m 149 1042 l 149 1049 l 258 1233 l 333 1233 l 443 1049 l 443 1042 l 397 1042 l 296 1188 l 193 1042 l 149 1042 z "},"Ÿ":{"ha":590,"x_min":7,"x_max":582,"o":"m 263 0 l 263 385 l 7 956 l 76 956 l 292 465 l 300 465 l 517 956 l 582 956 l 326 385 l 326 0 l 263 0 m 142 1071 l 142 1161 l 210 1161 l 210 1071 l 142 1071 m 385 1071 l 385 1161 l 451 1161 l 451 1071 l 385 1071 z "},"Ỵ":{"ha":590,"x_min":7,"x_max":582,"o":"m 263 0 l 263 385 l 7 956 l 76 956 l 292 465 l 300 465 l 517 956 l 582 956 l 326 385 l 326 0 l 263 0 m 258 -185 l 258 -86 l 335 -86 l 335 -185 l 258 -185 z "},"Ỳ":{"ha":590,"x_min":7,"x_max":582,"o":"m 263 0 l 263 385 l 7 956 l 76 956 l 292 465 l 300 465 l 517 956 l 582 956 l 326 385 l 326 0 l 263 0 m 282 1040 l 178 1226 l 178 1233 l 247 1233 l 325 1047 l 325 1040 l 282 1040 z "},"Ỷ":{"ha":590,"x_min":7,"x_max":582,"o":"m 263 0 l 263 385 l 7 956 l 76 956 l 292 465 l 300 465 l 517 956 l 582 956 l 326 385 l 326 0 l 263 0 m 240 1038 q 252 1078 240 1067 q 293 1100 264 1090 l 315 1106 q 364 1128 351 1117 q 376 1167 376 1139 q 369 1201 376 1190 q 342 1215 363 1211 q 278 1219 322 1219 q 164 1213 236 1219 l 164 1256 q 286 1264 244 1264 q 397 1244 368 1264 q 426 1174 426 1225 q 415 1113 426 1133 q 364 1079 404 1093 l 343 1072 q 304 1058 315 1064 q 290 1046 293 1053 q 288 1024 288 1039 l 240 1024 l 240 1038 z "},"Ȳ":{"ha":590,"x_min":7,"x_max":582,"o":"m 263 0 l 263 385 l 7 956 l 76 956 l 292 465 l 300 465 l 517 956 l 582 956 l 326 385 l 326 0 l 263 0 m 164 1172 l 164 1233 l 425 1233 l 425 1172 l 164 1172 z "},"Ỹ":{"ha":590,"x_min":7,"x_max":582,"o":"m 263 0 l 263 385 l 7 956 l 76 956 l 292 465 l 300 465 l 517 956 l 582 956 l 326 385 l 326 0 l 263 0 m 483 1233 q 468 1126 483 1156 q 407 1096 453 1096 q 355 1105 381 1096 q 288 1132 329 1114 q 260 1144 282 1135 q 221 1160 239 1154 q 188 1165 203 1165 q 159 1147 165 1165 q 153 1081 153 1129 l 108 1081 q 124 1188 108 1158 q 185 1218 139 1218 q 237 1210 213 1218 q 308 1181 261 1201 q 404 1150 372 1150 q 433 1167 426 1150 q 439 1233 439 1185 l 483 1233 z "},"Z":{"ha":585,"x_min":44,"x_max":543,"o":"m 44 0 l 44 56 l 461 897 l 56 897 l 56 956 l 535 956 l 535 901 l 119 58 l 543 58 l 543 0 l 44 0 z "},"Ź":{"ha":585,"x_min":44,"x_max":543,"o":"m 44 0 l 44 56 l 461 897 l 56 897 l 56 956 l 535 956 l 535 901 l 119 58 l 543 58 l 543 0 l 44 0 m 265 1040 l 265 1047 l 343 1233 l 413 1233 l 413 1226 l 308 1040 l 265 1040 z "},"Ž":{"ha":586,"x_min":44,"x_max":543,"o":"m 44 0 l 44 56 l 461 897 l 56 897 l 56 956 l 535 956 l 535 901 l 119 58 l 543 58 l 543 0 l 44 0 m 264 1042 l 153 1226 l 153 1233 l 199 1233 l 301 1088 l 403 1233 l 449 1233 l 449 1226 l 339 1042 l 264 1042 z "},"Ż":{"ha":585,"x_min":44,"x_max":543,"o":"m 44 0 l 44 56 l 461 897 l 56 897 l 56 956 l 535 956 l 535 901 l 119 58 l 543 58 l 543 0 l 44 0 m 258 1125 l 258 1215 l 325 1215 l 325 1125 l 258 1125 z "},"Ẓ":{"ha":585,"x_min":44,"x_max":543,"o":"m 44 0 l 44 56 l 461 897 l 56 897 l 56 956 l 535 956 l 535 901 l 119 58 l 543 58 l 543 0 l 44 0 m 256 -185 l 256 -86 l 332 -86 l 332 -185 l 256 -185 z "},"a":{"ha":596,"x_min":56,"x_max":501,"o":"m 250 -11 q 138 6 179 -11 q 76 66 96 22 q 56 193 56 110 q 71 315 56 272 q 124 377 86 358 q 229 396 161 396 q 440 389 274 396 l 440 450 q 427 594 440 550 q 379 651 414 638 q 264 665 344 665 q 177 660 229 665 q 90 647 125 654 l 90 703 q 281 719 182 719 q 419 697 374 719 q 483 620 465 675 q 501 456 501 565 l 501 0 l 450 0 l 446 106 l 439 106 q 369 12 419 35 q 250 -11 319 -11 m 258 43 q 360 58 321 43 q 417 122 399 74 q 435 199 429 160 q 440 290 440 238 l 440 344 l 243 344 q 163 333 189 344 q 127 291 138 322 q 117 194 117 260 q 128 99 117 131 q 169 56 140 68 q 258 43 199 43 z "},"á":{"ha":596,"x_min":56,"x_max":501,"o":"m 250 -11 q 138 6 179 -11 q 76 66 96 22 q 56 193 56 110 q 71 315 56 272 q 124 377 86 358 q 229 396 161 396 q 440 389 274 396 l 440 450 q 427 594 440 550 q 379 651 414 638 q 264 665 344 665 q 177 660 229 665 q 90 647 125 654 l 90 703 q 281 719 182 719 q 419 697 374 719 q 483 620 465 675 q 501 456 501 565 l 501 0 l 450 0 l 446 106 l 439 106 q 369 12 419 35 q 250 -11 319 -11 m 258 43 q 360 58 321 43 q 417 122 399 74 q 435 199 429 160 q 440 290 440 238 l 440 344 l 243 344 q 163 333 189 344 q 127 291 138 322 q 117 194 117 260 q 128 99 117 131 q 169 56 140 68 q 258 43 199 43 m 263 839 l 263 846 l 340 1032 l 410 1032 l 410 1025 l 306 839 l 263 839 z "},"ă":{"ha":596,"x_min":56,"x_max":501,"o":"m 250 -11 q 138 6 179 -11 q 76 66 96 22 q 56 193 56 110 q 71 315 56 272 q 124 377 86 358 q 229 396 161 396 q 440 389 274 396 l 440 450 q 427 594 440 550 q 379 651 414 638 q 264 665 344 665 q 177 660 229 665 q 90 647 125 654 l 90 703 q 281 719 182 719 q 419 697 374 719 q 483 620 465 675 q 501 456 501 565 l 501 0 l 450 0 l 446 106 l 439 106 q 369 12 419 35 q 250 -11 319 -11 m 258 43 q 360 58 321 43 q 417 122 399 74 q 435 199 429 160 q 440 290 440 238 l 440 344 l 243 344 q 163 333 189 344 q 127 291 138 322 q 117 194 117 260 q 128 99 117 131 q 169 56 140 68 q 258 43 199 43 m 444 1032 q 437 922 444 961 q 397 860 429 883 q 297 836 365 836 q 198 860 229 836 q 159 922 167 883 q 151 1032 151 960 l 201 1032 q 206 942 201 972 q 231 897 211 913 q 297 881 251 881 q 363 897 343 881 q 388 942 383 913 q 393 1032 393 972 l 444 1032 z "},"ắ":{"ha":596,"x_min":56,"x_max":501,"o":"m 250 -11 q 138 6 179 -11 q 76 66 96 22 q 56 193 56 110 q 71 315 56 272 q 124 377 86 358 q 229 396 161 396 q 440 389 274 396 l 440 450 q 427 594 440 550 q 379 651 414 638 q 264 665 344 665 q 177 660 229 665 q 90 647 125 654 l 90 703 q 281 719 182 719 q 419 697 374 719 q 483 620 465 675 q 501 456 501 565 l 501 0 l 450 0 l 446 106 l 439 106 q 369 12 419 35 q 250 -11 319 -11 m 258 43 q 360 58 321 43 q 417 122 399 74 q 435 199 429 160 q 440 290 440 238 l 440 344 l 243 344 q 163 333 189 344 q 127 291 138 322 q 117 194 117 260 q 128 99 117 131 q 169 56 140 68 q 258 43 199 43 m 443 1032 q 435 922 443 961 q 396 860 428 883 q 296 836 364 836 q 197 860 228 836 q 158 922 165 883 q 150 1032 150 960 l 200 1032 q 205 942 200 972 q 230 897 210 913 q 296 881 250 881 q 362 897 342 881 q 387 942 382 913 q 392 1032 392 972 l 443 1032 m 274 1079 l 274 1086 l 351 1272 l 421 1272 l 421 1265 l 317 1079 l 274 1079 z "},"ặ":{"ha":596,"x_min":56,"x_max":501,"o":"m 250 -11 q 138 6 179 -11 q 76 66 96 22 q 56 193 56 110 q 71 315 56 272 q 124 377 86 358 q 229 396 161 396 q 440 389 274 396 l 440 450 q 427 594 440 550 q 379 651 414 638 q 264 665 344 665 q 177 660 229 665 q 90 647 125 654 l 90 703 q 281 719 182 719 q 419 697 374 719 q 483 620 465 675 q 501 456 501 565 l 501 0 l 450 0 l 446 106 l 439 106 q 369 12 419 35 q 250 -11 319 -11 m 258 43 q 360 58 321 43 q 417 122 399 74 q 435 199 429 160 q 440 290 440 238 l 440 344 l 243 344 q 163 333 189 344 q 127 291 138 322 q 117 194 117 260 q 128 99 117 131 q 169 56 140 68 q 258 43 199 43 m 261 -185 l 261 -86 l 338 -86 l 338 -185 l 261 -185 m 444 1032 q 437 922 444 961 q 397 860 429 883 q 297 836 365 836 q 198 860 229 836 q 159 922 167 883 q 151 1032 151 960 l 201 1032 q 206 942 201 972 q 231 897 211 913 q 297 881 251 881 q 363 897 343 881 q 388 942 383 913 q 393 1032 393 972 l 444 1032 z "},"ằ":{"ha":596,"x_min":56,"x_max":501,"o":"m 250 -11 q 138 6 179 -11 q 76 66 96 22 q 56 193 56 110 q 71 315 56 272 q 124 377 86 358 q 229 396 161 396 q 440 389 274 396 l 440 450 q 427 594 440 550 q 379 651 414 638 q 264 665 344 665 q 177 660 229 665 q 90 647 125 654 l 90 703 q 281 719 182 719 q 419 697 374 719 q 483 620 465 675 q 501 456 501 565 l 501 0 l 450 0 l 446 106 l 439 106 q 369 12 419 35 q 250 -11 319 -11 m 258 43 q 360 58 321 43 q 417 122 399 74 q 435 199 429 160 q 440 290 440 238 l 440 344 l 243 344 q 163 333 189 344 q 127 291 138 322 q 117 194 117 260 q 128 99 117 131 q 169 56 140 68 q 258 43 199 43 m 446 1032 q 438 922 446 961 q 399 860 431 883 q 299 836 367 836 q 199 860 231 836 q 160 922 168 883 q 153 1032 153 960 l 203 1032 q 208 942 203 972 q 233 897 213 913 q 299 881 253 881 q 365 897 344 881 q 390 942 385 913 q 394 1032 394 972 l 446 1032 m 286 1079 l 182 1265 l 182 1272 l 251 1272 l 329 1086 l 329 1079 l 286 1079 z "},"ẳ":{"ha":596,"x_min":56,"x_max":501,"o":"m 250 -11 q 138 6 179 -11 q 76 66 96 22 q 56 193 56 110 q 71 315 56 272 q 124 377 86 358 q 229 396 161 396 q 440 389 274 396 l 440 450 q 427 594 440 550 q 379 651 414 638 q 264 665 344 665 q 177 660 229 665 q 90 647 125 654 l 90 703 q 281 719 182 719 q 419 697 374 719 q 483 620 465 675 q 501 456 501 565 l 501 0 l 450 0 l 446 106 l 439 106 q 369 12 419 35 q 250 -11 319 -11 m 258 43 q 360 58 321 43 q 417 122 399 74 q 435 199 429 160 q 440 290 440 238 l 440 344 l 243 344 q 163 333 189 344 q 127 291 138 322 q 117 194 117 260 q 128 99 117 131 q 169 56 140 68 q 258 43 199 43 m 444 1032 q 437 922 444 961 q 397 860 429 883 q 297 836 365 836 q 198 860 229 836 q 159 922 167 883 q 151 1032 151 960 l 201 1032 q 206 942 201 972 q 231 897 211 913 q 297 881 251 881 q 363 897 343 881 q 388 942 383 913 q 393 1032 393 972 l 444 1032 m 247 1046 q 259 1087 247 1075 q 300 1108 271 1099 l 322 1114 q 371 1136 358 1125 q 383 1175 383 1147 q 376 1209 383 1199 q 349 1224 369 1219 q 285 1228 329 1228 q 171 1221 243 1228 l 171 1264 q 293 1272 251 1272 q 404 1253 375 1272 q 433 1182 433 1233 q 422 1122 433 1142 q 371 1088 411 1101 l 350 1081 q 310 1067 321 1072 q 297 1055 300 1061 q 294 1032 294 1049 l 247 1032 l 247 1046 z "},"ẵ":{"ha":596,"x_min":56,"x_max":501,"o":"m 250 -11 q 138 6 179 -11 q 76 66 96 22 q 56 193 56 110 q 71 315 56 272 q 124 377 86 358 q 229 396 161 396 q 440 389 274 396 l 440 450 q 427 594 440 550 q 379 651 414 638 q 264 665 344 665 q 177 660 229 665 q 90 647 125 654 l 90 703 q 281 719 182 719 q 419 697 374 719 q 483 620 465 675 q 501 456 501 565 l 501 0 l 450 0 l 446 106 l 439 106 q 369 12 419 35 q 250 -11 319 -11 m 258 43 q 360 58 321 43 q 417 122 399 74 q 435 199 429 160 q 440 290 440 238 l 440 344 l 243 344 q 163 333 189 344 q 127 291 138 322 q 117 194 117 260 q 128 99 117 131 q 169 56 140 68 q 258 43 199 43 m 442 1032 q 434 922 442 961 q 394 860 426 883 q 294 836 363 836 q 195 860 226 836 q 156 922 164 883 q 149 1032 149 960 l 199 1032 q 203 942 199 972 q 228 897 208 913 q 294 881 249 881 q 360 897 340 881 q 385 942 381 913 q 390 1032 390 972 l 442 1032 m 485 1274 q 469 1166 485 1196 q 408 1136 454 1136 q 356 1145 382 1136 q 289 1172 331 1154 q 262 1185 283 1175 q 222 1200 240 1194 q 189 1206 204 1206 q 160 1188 167 1206 q 154 1121 154 1169 l 110 1121 q 125 1228 110 1199 q 186 1258 140 1258 q 238 1250 214 1258 q 310 1221 263 1242 q 406 1190 374 1190 q 434 1208 428 1190 q 440 1274 440 1225 l 485 1274 z "},"ǎ":{"ha":596,"x_min":56,"x_max":501,"o":"m 250 -11 q 138 6 179 -11 q 76 66 96 22 q 56 193 56 110 q 71 315 56 272 q 124 377 86 358 q 229 396 161 396 q 440 389 274 396 l 440 450 q 427 594 440 550 q 379 651 414 638 q 264 665 344 665 q 177 660 229 665 q 90 647 125 654 l 90 703 q 281 719 182 719 q 419 697 374 719 q 483 620 465 675 q 501 456 501 565 l 501 0 l 450 0 l 446 106 l 439 106 q 369 12 419 35 q 250 -11 319 -11 m 258 43 q 360 58 321 43 q 417 122 399 74 q 435 199 429 160 q 440 290 440 238 l 440 344 l 243 344 q 163 333 189 344 q 127 291 138 322 q 117 194 117 260 q 128 99 117 131 q 169 56 140 68 q 258 43 199 43 m 261 840 l 150 1025 l 150 1032 l 196 1032 l 299 886 l 400 1032 l 446 1032 l 446 1025 l 336 840 l 261 840 z "},"â":{"ha":596,"x_min":56,"x_max":501,"o":"m 250 -11 q 138 6 179 -11 q 76 66 96 22 q 56 193 56 110 q 71 315 56 272 q 124 377 86 358 q 229 396 161 396 q 440 389 274 396 l 440 450 q 427 594 440 550 q 379 651 414 638 q 264 665 344 665 q 177 660 229 665 q 90 647 125 654 l 90 703 q 281 719 182 719 q 419 697 374 719 q 483 620 465 675 q 501 456 501 565 l 501 0 l 450 0 l 446 106 l 439 106 q 369 12 419 35 q 250 -11 319 -11 m 258 43 q 360 58 321 43 q 417 122 399 74 q 435 199 429 160 q 440 290 440 238 l 440 344 l 243 344 q 163 333 189 344 q 127 291 138 322 q 117 194 117 260 q 128 99 117 131 q 169 56 140 68 q 258 43 199 43 m 153 840 l 153 847 l 263 1032 l 338 1032 l 447 847 l 447 840 l 401 840 l 300 986 l 197 840 l 153 840 z "},"ấ":{"ha":596,"x_min":56,"x_max":528,"o":"m 250 -11 q 138 6 179 -11 q 76 66 96 22 q 56 193 56 110 q 71 315 56 272 q 124 377 86 358 q 229 396 161 396 q 440 389 274 396 l 440 450 q 427 594 440 550 q 379 651 414 638 q 264 665 344 665 q 177 660 229 665 q 90 647 125 654 l 90 703 q 281 719 182 719 q 419 697 374 719 q 483 620 465 675 q 501 456 501 565 l 501 0 l 450 0 l 446 106 l 439 106 q 369 12 419 35 q 250 -11 319 -11 m 258 43 q 360 58 321 43 q 417 122 399 74 q 435 199 429 160 q 440 290 440 238 l 440 344 l 243 344 q 163 333 189 344 q 127 291 138 322 q 117 194 117 260 q 128 99 117 131 q 169 56 140 68 q 258 43 199 43 m 149 840 l 149 847 l 258 1032 l 333 1032 l 443 847 l 443 840 l 397 840 l 296 986 l 193 840 l 149 840 m 381 1036 l 381 1043 l 458 1229 l 528 1229 l 528 1222 l 424 1036 l 381 1036 z "},"ậ":{"ha":596,"x_min":56,"x_max":501,"o":"m 250 -11 q 138 6 179 -11 q 76 66 96 22 q 56 193 56 110 q 71 315 56 272 q 124 377 86 358 q 229 396 161 396 q 440 389 274 396 l 440 450 q 427 594 440 550 q 379 651 414 638 q 264 665 344 665 q 177 660 229 665 q 90 647 125 654 l 90 703 q 281 719 182 719 q 419 697 374 719 q 483 620 465 675 q 501 456 501 565 l 501 0 l 450 0 l 446 106 l 439 106 q 369 12 419 35 q 250 -11 319 -11 m 258 43 q 360 58 321 43 q 417 122 399 74 q 435 199 429 160 q 440 290 440 238 l 440 344 l 243 344 q 163 333 189 344 q 127 291 138 322 q 117 194 117 260 q 128 99 117 131 q 169 56 140 68 q 258 43 199 43 m 261 -185 l 261 -86 l 338 -86 l 338 -185 l 261 -185 m 151 840 l 151 847 l 261 1032 l 336 1032 l 446 847 l 446 840 l 400 840 l 299 986 l 196 840 l 151 840 z "},"ầ":{"ha":596,"x_min":56,"x_max":501,"o":"m 250 -11 q 138 6 179 -11 q 76 66 96 22 q 56 193 56 110 q 71 315 56 272 q 124 377 86 358 q 229 396 161 396 q 440 389 274 396 l 440 450 q 427 594 440 550 q 379 651 414 638 q 264 665 344 665 q 177 660 229 665 q 90 647 125 654 l 90 703 q 281 719 182 719 q 419 697 374 719 q 483 620 465 675 q 501 456 501 565 l 501 0 l 450 0 l 446 106 l 439 106 q 369 12 419 35 q 250 -11 319 -11 m 258 43 q 360 58 321 43 q 417 122 399 74 q 435 199 429 160 q 440 290 440 238 l 440 344 l 243 344 q 163 333 189 344 q 127 291 138 322 q 117 194 117 260 q 128 99 117 131 q 169 56 140 68 q 258 43 199 43 m 149 840 l 149 847 l 258 1032 l 333 1032 l 443 847 l 443 840 l 397 840 l 296 986 l 193 840 l 149 840 m 397 1036 l 293 1222 l 293 1229 l 363 1229 l 440 1043 l 440 1036 l 397 1036 z "},"ẩ":{"ha":596,"x_min":56,"x_max":539,"o":"m 250 -11 q 138 6 179 -11 q 76 66 96 22 q 56 193 56 110 q 71 315 56 272 q 124 377 86 358 q 229 396 161 396 q 440 389 274 396 l 440 450 q 427 594 440 550 q 379 651 414 638 q 264 665 344 665 q 177 660 229 665 q 90 647 125 654 l 90 703 q 281 719 182 719 q 419 697 374 719 q 483 620 465 675 q 501 456 501 565 l 501 0 l 450 0 l 446 106 l 439 106 q 369 12 419 35 q 250 -11 319 -11 m 258 43 q 360 58 321 43 q 417 122 399 74 q 435 199 429 160 q 440 290 440 238 l 440 344 l 243 344 q 163 333 189 344 q 127 291 138 322 q 117 194 117 260 q 128 99 117 131 q 169 56 140 68 q 258 43 199 43 m 151 840 l 151 847 l 261 1032 l 336 1032 l 446 847 l 446 840 l 400 840 l 299 986 l 196 840 l 151 840 m 353 1049 q 365 1090 353 1078 q 406 1111 376 1101 l 428 1117 q 476 1139 464 1128 q 489 1178 489 1150 q 482 1212 489 1201 q 455 1226 475 1222 q 390 1231 435 1231 q 276 1224 349 1231 l 276 1267 q 399 1275 357 1275 q 510 1256 481 1275 q 539 1185 539 1236 q 528 1124 539 1144 q 476 1090 517 1104 l 456 1083 q 416 1069 426 1075 q 403 1058 406 1064 q 400 1035 400 1051 l 353 1035 l 353 1049 z "},"ẫ":{"ha":596,"x_min":56,"x_max":501,"o":"m 250 -11 q 138 6 179 -11 q 76 66 96 22 q 56 193 56 110 q 71 315 56 272 q 124 377 86 358 q 229 396 161 396 q 440 389 274 396 l 440 450 q 427 594 440 550 q 379 651 414 638 q 264 665 344 665 q 177 660 229 665 q 90 647 125 654 l 90 703 q 281 719 182 719 q 419 697 374 719 q 483 620 465 675 q 501 456 501 565 l 501 0 l 450 0 l 446 106 l 439 106 q 369 12 419 35 q 250 -11 319 -11 m 258 43 q 360 58 321 43 q 417 122 399 74 q 435 199 429 160 q 440 290 440 238 l 440 344 l 243 344 q 163 333 189 344 q 127 291 138 322 q 117 194 117 260 q 128 99 117 131 q 169 56 140 68 q 258 43 199 43 m 149 840 l 149 847 l 258 1032 l 333 1032 l 443 847 l 443 840 l 397 840 l 296 986 l 193 840 l 149 840 m 486 1272 q 471 1165 486 1194 q 410 1135 456 1135 q 358 1144 383 1135 q 290 1171 332 1153 q 263 1183 285 1174 q 224 1199 242 1193 q 190 1204 206 1204 q 162 1186 168 1204 q 156 1119 156 1168 l 111 1119 q 126 1227 111 1197 q 188 1257 142 1257 q 240 1249 215 1257 q 311 1219 264 1240 q 407 1189 375 1189 q 435 1206 429 1189 q 442 1272 442 1224 l 486 1272 z "},"ȁ":{"ha":596,"x_min":56,"x_max":501,"o":"m 250 -11 q 138 6 179 -11 q 76 66 96 22 q 56 193 56 110 q 71 315 56 272 q 124 377 86 358 q 229 396 161 396 q 440 389 274 396 l 440 450 q 427 594 440 550 q 379 651 414 638 q 264 665 344 665 q 177 660 229 665 q 90 647 125 654 l 90 703 q 281 719 182 719 q 419 697 374 719 q 483 620 465 675 q 501 456 501 565 l 501 0 l 450 0 l 446 106 l 439 106 q 369 12 419 35 q 250 -11 319 -11 m 258 43 q 360 58 321 43 q 417 122 399 74 q 435 199 429 160 q 440 290 440 238 l 440 344 l 243 344 q 163 333 189 344 q 127 291 138 322 q 117 194 117 260 q 128 99 117 131 q 169 56 140 68 q 258 43 199 43 m 235 846 l 193 846 l 92 1013 l 92 1019 l 158 1019 l 235 853 l 235 846 m 417 846 l 375 846 l 274 1013 l 274 1019 l 340 1019 l 417 853 l 417 846 z "},"ä":{"ha":596,"x_min":56,"x_max":501,"o":"m 250 -11 q 138 6 179 -11 q 76 66 96 22 q 56 193 56 110 q 71 315 56 272 q 124 377 86 358 q 229 396 161 396 q 440 389 274 396 l 440 450 q 427 594 440 550 q 379 651 414 638 q 264 665 344 665 q 177 660 229 665 q 90 647 125 654 l 90 703 q 281 719 182 719 q 419 697 374 719 q 483 620 465 675 q 501 456 501 565 l 501 0 l 450 0 l 446 106 l 439 106 q 369 12 419 35 q 250 -11 319 -11 m 258 43 q 360 58 321 43 q 417 122 399 74 q 435 199 429 160 q 440 290 440 238 l 440 344 l 243 344 q 163 333 189 344 q 127 291 138 322 q 117 194 117 260 q 128 99 117 131 q 169 56 140 68 q 258 43 199 43 m 144 922 l 144 1013 l 213 1013 l 213 922 l 144 922 m 388 922 l 388 1013 l 454 1013 l 454 922 l 388 922 z "},"ạ":{"ha":596,"x_min":56,"x_max":501,"o":"m 250 -11 q 138 6 179 -11 q 76 66 96 22 q 56 193 56 110 q 71 315 56 272 q 124 377 86 358 q 229 396 161 396 q 440 389 274 396 l 440 450 q 427 594 440 550 q 379 651 414 638 q 264 665 344 665 q 177 660 229 665 q 90 647 125 654 l 90 703 q 281 719 182 719 q 419 697 374 719 q 483 620 465 675 q 501 456 501 565 l 501 0 l 450 0 l 446 106 l 439 106 q 369 12 419 35 q 250 -11 319 -11 m 258 43 q 360 58 321 43 q 417 122 399 74 q 435 199 429 160 q 440 290 440 238 l 440 344 l 243 344 q 163 333 189 344 q 127 291 138 322 q 117 194 117 260 q 128 99 117 131 q 169 56 140 68 q 258 43 199 43 m 261 -185 l 261 -86 l 338 -86 l 338 -185 l 261 -185 z "},"à":{"ha":596,"x_min":56,"x_max":501,"o":"m 250 -11 q 138 6 179 -11 q 76 66 96 22 q 56 193 56 110 q 71 315 56 272 q 124 377 86 358 q 229 396 161 396 q 440 389 274 396 l 440 450 q 427 594 440 550 q 379 651 414 638 q 264 665 344 665 q 177 660 229 665 q 90 647 125 654 l 90 703 q 281 719 182 719 q 419 697 374 719 q 483 620 465 675 q 501 456 501 565 l 501 0 l 450 0 l 446 106 l 439 106 q 369 12 419 35 q 250 -11 319 -11 m 258 43 q 360 58 321 43 q 417 122 399 74 q 435 199 429 160 q 440 290 440 238 l 440 344 l 243 344 q 163 333 189 344 q 127 291 138 322 q 117 194 117 260 q 128 99 117 131 q 169 56 140 68 q 258 43 199 43 m 290 839 l 186 1025 l 186 1032 l 256 1032 l 333 846 l 333 839 l 290 839 z "},"ả":{"ha":596,"x_min":56,"x_max":501,"o":"m 250 -11 q 138 6 179 -11 q 76 66 96 22 q 56 193 56 110 q 71 315 56 272 q 124 377 86 358 q 229 396 161 396 q 440 389 274 396 l 440 450 q 427 594 440 550 q 379 651 414 638 q 264 665 344 665 q 177 660 229 665 q 90 647 125 654 l 90 703 q 281 719 182 719 q 419 697 374 719 q 483 620 465 675 q 501 456 501 565 l 501 0 l 450 0 l 446 106 l 439 106 q 369 12 419 35 q 250 -11 319 -11 m 258 43 q 360 58 321 43 q 417 122 399 74 q 435 199 429 160 q 440 290 440 238 l 440 344 l 243 344 q 163 333 189 344 q 127 291 138 322 q 117 194 117 260 q 128 99 117 131 q 169 56 140 68 q 258 43 199 43 m 243 860 q 255 901 243 889 q 296 922 267 913 l 318 928 q 367 950 354 939 q 379 989 379 961 q 372 1023 379 1013 q 345 1038 365 1033 q 281 1042 325 1042 q 167 1035 239 1042 l 167 1078 q 289 1086 247 1086 q 400 1067 371 1086 q 429 996 429 1047 q 418 935 429 956 q 367 901 407 915 l 346 894 q 306 881 317 886 q 293 869 296 875 q 290 846 290 863 l 243 846 l 243 860 z "},"ȃ":{"ha":596,"x_min":56,"x_max":501,"o":"m 250 -11 q 138 6 179 -11 q 76 66 96 22 q 56 193 56 110 q 71 315 56 272 q 124 377 86 358 q 229 396 161 396 q 440 389 274 396 l 440 450 q 427 594 440 550 q 379 651 414 638 q 264 665 344 665 q 177 660 229 665 q 90 647 125 654 l 90 703 q 281 719 182 719 q 419 697 374 719 q 483 620 465 675 q 501 456 501 565 l 501 0 l 450 0 l 446 106 l 439 106 q 369 12 419 35 q 250 -11 319 -11 m 258 43 q 360 58 321 43 q 417 122 399 74 q 435 199 429 160 q 440 290 440 238 l 440 344 l 243 344 q 163 333 189 344 q 127 291 138 322 q 117 194 117 260 q 128 99 117 131 q 169 56 140 68 q 258 43 199 43 m 151 844 q 159 954 151 915 q 199 1017 167 993 q 299 1040 231 1040 q 398 1017 367 1040 q 437 955 429 993 q 444 844 444 917 l 394 844 q 390 934 394 904 q 365 980 385 964 q 299 996 344 996 q 233 980 253 996 q 208 934 213 964 q 203 844 203 904 l 151 844 z "},"ā":{"ha":596,"x_min":56,"x_max":501,"o":"m 250 -11 q 138 6 179 -11 q 76 66 96 22 q 56 193 56 110 q 71 315 56 272 q 124 377 86 358 q 229 396 161 396 q 440 389 274 396 l 440 450 q 427 594 440 550 q 379 651 414 638 q 264 665 344 665 q 177 660 229 665 q 90 647 125 654 l 90 703 q 281 719 182 719 q 419 697 374 719 q 483 620 465 675 q 501 456 501 565 l 501 0 l 450 0 l 446 106 l 439 106 q 369 12 419 35 q 250 -11 319 -11 m 258 43 q 360 58 321 43 q 417 122 399 74 q 435 199 429 160 q 440 290 440 238 l 440 344 l 243 344 q 163 333 189 344 q 127 291 138 322 q 117 194 117 260 q 128 99 117 131 q 169 56 140 68 q 258 43 199 43 m 167 971 l 167 1032 l 428 1032 l 428 971 l 167 971 z "},"ą":{"ha":596,"x_min":56,"x_max":506,"o":"m 506 -221 l 506 -271 q 471 -272 492 -272 q 388 -244 414 -272 q 361 -172 361 -217 q 385 -82 361 -129 q 450 4 410 -35 l 446 106 l 439 106 q 369 12 419 35 q 250 -11 319 -11 q 138 6 179 -11 q 76 66 96 22 q 56 193 56 110 q 71 315 56 272 q 124 377 86 358 q 229 396 161 396 q 440 389 274 396 l 440 450 q 427 594 440 550 q 379 651 414 638 q 264 665 344 665 q 177 660 229 665 q 90 647 125 654 l 90 703 q 281 719 182 719 q 419 697 374 719 q 483 620 465 675 q 501 456 501 565 l 501 0 q 445 -73 472 -25 q 418 -161 418 -121 q 433 -206 418 -189 q 483 -222 449 -222 l 506 -221 m 440 344 l 243 344 q 163 333 189 344 q 127 291 138 322 q 117 194 117 260 q 128 99 117 131 q 169 56 140 68 q 258 43 199 43 q 360 58 321 43 q 417 122 399 74 q 435 199 429 160 q 440 290 440 238 l 440 344 z "},"å":{"ha":596,"x_min":56,"x_max":501,"o":"m 250 -11 q 138 6 179 -11 q 76 66 96 22 q 56 193 56 110 q 71 315 56 272 q 124 377 86 358 q 229 396 161 396 q 440 389 274 396 l 440 450 q 427 594 440 550 q 379 651 414 638 q 264 665 344 665 q 177 660 229 665 q 90 647 125 654 l 90 703 q 281 719 182 719 q 419 697 374 719 q 483 620 465 675 q 501 456 501 565 l 501 0 l 450 0 l 446 106 l 439 106 q 369 12 419 35 q 250 -11 319 -11 m 258 43 q 360 58 321 43 q 417 122 399 74 q 435 199 429 160 q 440 290 440 238 l 440 344 l 243 344 q 163 333 189 344 q 127 291 138 322 q 117 194 117 260 q 128 99 117 131 q 169 56 140 68 q 258 43 199 43 m 297 853 q 210 865 238 853 q 174 901 182 876 q 167 978 167 926 q 175 1055 167 1029 q 210 1092 183 1081 q 297 1104 238 1104 q 384 1092 357 1104 q 419 1055 411 1081 q 428 978 428 1029 q 420 901 428 926 q 385 865 413 876 q 297 853 357 853 m 297 896 q 351 903 335 896 q 372 926 368 910 q 376 978 376 942 q 372 1030 376 1014 q 351 1053 368 1046 q 297 1060 335 1060 q 243 1053 260 1060 q 222 1030 226 1046 q 218 978 218 1014 q 222 926 218 942 q 243 903 226 910 q 297 896 260 896 z "},"ǻ":{"ha":596,"x_min":56,"x_max":501,"o":"m 250 -11 q 138 6 179 -11 q 76 66 96 22 q 56 193 56 110 q 71 315 56 272 q 124 377 86 358 q 229 396 161 396 q 440 389 274 396 l 440 450 q 427 594 440 550 q 379 651 414 638 q 264 665 344 665 q 177 660 229 665 q 90 647 125 654 l 90 703 q 281 719 182 719 q 419 697 374 719 q 483 620 465 675 q 501 456 501 565 l 501 0 l 450 0 l 446 106 l 439 106 q 369 12 419 35 q 250 -11 319 -11 m 258 43 q 360 58 321 43 q 417 122 399 74 q 435 199 429 160 q 440 290 440 238 l 440 344 l 243 344 q 163 333 189 344 q 127 291 138 322 q 117 194 117 260 q 128 99 117 131 q 169 56 140 68 q 258 43 199 43 m 297 856 q 210 867 238 856 q 174 904 182 879 q 167 981 167 929 q 175 1058 167 1032 q 210 1095 183 1083 q 297 1107 238 1107 q 384 1095 357 1107 q 419 1058 411 1083 q 428 981 428 1032 q 420 904 428 929 q 385 867 413 879 q 297 856 357 856 m 297 899 q 351 906 335 899 q 372 928 368 913 q 376 981 376 944 q 372 1033 376 1017 q 351 1056 368 1049 q 297 1063 335 1063 q 243 1056 260 1063 q 222 1033 226 1049 q 218 981 218 1017 q 222 928 218 944 q 243 906 226 913 q 297 899 260 899 m 275 1154 l 275 1161 l 353 1347 l 422 1347 l 422 1340 l 318 1154 l 275 1154 z "},"ã":{"ha":596,"x_min":56,"x_max":501,"o":"m 250 -11 q 138 6 179 -11 q 76 66 96 22 q 56 193 56 110 q 71 315 56 272 q 124 377 86 358 q 229 396 161 396 q 440 389 274 396 l 440 450 q 427 594 440 550 q 379 651 414 638 q 264 665 344 665 q 177 660 229 665 q 90 647 125 654 l 90 703 q 281 719 182 719 q 419 697 374 719 q 483 620 465 675 q 501 456 501 565 l 501 0 l 450 0 l 446 106 l 439 106 q 369 12 419 35 q 250 -11 319 -11 m 258 43 q 360 58 321 43 q 417 122 399 74 q 435 199 429 160 q 440 290 440 238 l 440 344 l 243 344 q 163 333 189 344 q 127 291 138 322 q 117 194 117 260 q 128 99 117 131 q 169 56 140 68 q 258 43 199 43 m 485 1032 q 469 924 485 954 q 408 894 454 894 q 356 903 382 894 q 289 931 331 913 q 262 943 283 933 q 222 958 240 953 q 189 964 204 964 q 160 946 167 964 q 154 879 154 928 l 110 879 q 125 987 110 957 q 186 1017 140 1017 q 238 1008 214 1017 q 310 979 263 1000 q 406 949 374 949 q 434 966 428 949 q 440 1032 440 983 l 485 1032 z "},"æ":{"ha":964,"x_min":56,"x_max":890,"o":"m 890 339 l 501 339 q 513 149 501 208 q 563 67 525 90 q 688 43 601 43 q 781 49 729 43 q 869 63 832 54 l 869 7 q 783 -6 838 0 q 679 -11 729 -11 q 533 16 582 -11 q 464 113 485 43 q 384 13 438 36 q 254 -11 331 -11 q 139 6 181 -11 q 76 66 97 22 q 56 193 56 110 q 71 313 56 271 q 124 374 86 356 q 229 392 161 392 l 440 390 l 440 449 q 427 593 440 549 q 379 651 414 638 q 264 665 344 665 q 176 660 228 665 q 90 647 124 654 l 90 703 q 281 719 182 719 q 408 700 364 719 q 474 629 453 681 q 544 699 497 678 q 678 719 592 719 q 822 688 778 719 q 878 585 865 656 q 890 360 890 514 l 890 339 m 675 665 q 558 646 593 665 q 513 572 524 626 q 501 390 501 518 l 829 390 l 829 411 q 816 579 829 526 q 772 649 803 632 q 675 665 740 665 m 440 339 l 243 339 q 163 328 189 339 q 126 288 138 318 q 115 194 115 258 q 127 99 115 131 q 169 56 139 68 q 258 43 199 43 q 360 59 321 43 q 418 126 400 75 q 440 290 440 192 l 440 339 z "},"ǽ":{"ha":964,"x_min":56,"x_max":890,"o":"m 890 339 l 501 339 q 513 149 501 208 q 563 67 525 90 q 688 43 601 43 q 781 49 729 43 q 869 63 832 54 l 869 7 q 783 -6 838 0 q 679 -11 729 -11 q 533 16 582 -11 q 464 113 485 43 q 384 13 438 36 q 254 -11 331 -11 q 139 6 181 -11 q 76 66 97 22 q 56 193 56 110 q 71 313 56 271 q 124 374 86 356 q 229 392 161 392 l 440 390 l 440 449 q 427 593 440 549 q 379 651 414 638 q 264 665 344 665 q 176 660 228 665 q 90 647 124 654 l 90 703 q 281 719 182 719 q 408 700 364 719 q 474 629 453 681 q 544 699 497 678 q 678 719 592 719 q 822 688 778 719 q 878 585 865 656 q 890 360 890 514 l 890 339 m 675 665 q 558 646 593 665 q 513 572 524 626 q 501 390 501 518 l 829 390 l 829 411 q 816 579 829 526 q 772 649 803 632 q 675 665 740 665 m 440 339 l 243 339 q 163 328 189 339 q 126 288 138 318 q 115 194 115 258 q 127 99 115 131 q 169 56 139 68 q 258 43 199 43 q 360 59 321 43 q 418 126 400 75 q 440 290 440 192 l 440 339 m 456 839 l 456 846 l 533 1032 l 603 1032 l 603 1025 l 499 839 l 456 839 z "},"b":{"ha":631,"x_min":99,"x_max":557,"o":"m 343 -11 q 225 13 271 -11 q 160 106 179 36 l 153 106 l 149 0 l 99 0 l 99 1032 l 160 1032 l 160 615 l 165 615 q 226 695 183 671 q 343 719 269 719 q 479 690 435 719 q 540 583 524 660 q 557 354 557 507 q 540 125 557 201 q 478 19 524 49 q 343 -11 433 -11 m 326 44 q 438 66 404 44 q 484 149 472 88 q 496 354 496 211 q 484 559 496 497 q 438 642 472 621 q 326 664 404 664 q 227 640 264 664 q 176 564 190 615 q 163 476 165 522 q 160 354 160 429 q 163 232 160 276 q 175 147 165 188 q 226 69 189 94 q 326 44 263 44 z "},"c":{"ha":490,"x_min":74,"x_max":439,"o":"m 439 6 q 374 -6 414 -1 q 296 -11 333 -11 q 149 24 196 -11 q 88 133 101 60 q 74 353 74 206 q 91 580 74 503 q 154 688 108 657 q 292 719 200 719 q 367 715 326 719 q 435 704 408 711 l 435 649 q 303 665 368 665 q 194 640 229 665 q 147 552 160 615 q 135 356 135 489 q 147 154 135 218 q 194 67 160 90 q 306 43 229 43 q 376 48 339 43 q 439 61 414 53 l 439 6 z "},"ć":{"ha":490,"x_min":74,"x_max":439,"o":"m 439 6 q 374 -6 414 -1 q 296 -11 333 -11 q 149 24 196 -11 q 88 133 101 60 q 74 353 74 206 q 91 580 74 503 q 154 688 108 657 q 292 719 200 719 q 367 715 326 719 q 435 704 408 711 l 435 649 q 303 665 368 665 q 194 640 229 665 q 147 552 160 615 q 135 356 135 489 q 147 154 135 218 q 194 67 160 90 q 306 43 229 43 q 376 48 339 43 q 439 61 414 53 l 439 6 m 218 839 l 218 846 l 296 1032 l 365 1032 l 365 1025 l 261 839 l 218 839 z "},"č":{"ha":490,"x_min":74,"x_max":439,"o":"m 439 6 q 374 -6 414 -1 q 296 -11 333 -11 q 149 24 196 -11 q 88 133 101 60 q 74 353 74 206 q 91 580 74 503 q 154 688 108 657 q 292 719 200 719 q 367 715 326 719 q 435 704 408 711 l 435 649 q 303 665 368 665 q 194 640 229 665 q 147 552 160 615 q 135 356 135 489 q 147 154 135 218 q 194 67 160 90 q 306 43 229 43 q 376 48 339 43 q 439 61 414 53 l 439 6 m 207 840 l 96 1025 l 96 1032 l 142 1032 l 244 886 l 346 1032 l 392 1032 l 392 1025 l 282 840 l 207 840 z "},"ç":{"ha":490,"x_min":74,"x_max":439,"o":"m 306 43 q 376 48 339 43 q 439 61 414 53 l 439 6 q 374 -6 414 -1 q 296 -11 333 -11 q 264 -10 274 -11 l 207 -264 l 140 -264 l 140 -257 l 218 -4 q 123 49 154 8 q 83 158 92 89 q 74 353 74 226 q 91 580 74 503 q 154 688 108 657 q 292 719 200 719 q 367 715 326 719 q 435 704 408 711 l 435 649 q 303 665 368 665 q 194 640 229 665 q 147 552 160 615 q 135 356 135 489 q 147 154 135 218 q 194 67 160 90 q 306 43 229 43 z "},"ĉ":{"ha":490,"x_min":74,"x_max":439,"o":"m 439 6 q 374 -6 414 -1 q 296 -11 333 -11 q 149 24 196 -11 q 88 133 101 60 q 74 353 74 206 q 91 580 74 503 q 154 688 108 657 q 292 719 200 719 q 367 715 326 719 q 435 704 408 711 l 435 649 q 303 665 368 665 q 194 640 229 665 q 147 552 160 615 q 135 356 135 489 q 147 154 135 218 q 194 67 160 90 q 306 43 229 43 q 376 48 339 43 q 439 61 414 53 l 439 6 m 97 840 l 97 847 l 207 1032 l 282 1032 l 392 847 l 392 840 l 346 840 l 244 986 l 142 840 l 97 840 z "},"ċ":{"ha":490,"x_min":74,"x_max":439,"o":"m 439 6 q 374 -6 414 -1 q 296 -11 333 -11 q 149 24 196 -11 q 88 133 101 60 q 74 353 74 206 q 91 580 74 503 q 154 688 108 657 q 292 719 200 719 q 367 715 326 719 q 435 704 408 711 l 435 649 q 303 665 368 665 q 194 640 229 665 q 147 552 160 615 q 135 356 135 489 q 147 154 135 218 q 194 67 160 90 q 306 43 229 43 q 376 48 339 43 q 439 61 414 53 l 439 6 m 210 924 l 210 1014 l 276 1014 l 276 924 l 210 924 z "},"d":{"ha":631,"x_min":74,"x_max":532,"o":"m 288 -11 q 152 19 197 -11 q 90 125 107 49 q 74 354 74 201 q 90 583 74 507 q 151 690 107 660 q 288 719 196 719 q 404 695 361 719 q 465 615 447 671 l 471 615 l 471 1032 l 532 1032 l 532 0 l 482 0 l 476 106 l 471 106 q 405 13 451 36 q 288 -11 358 -11 m 304 44 q 405 69 368 44 q 454 144 442 93 q 468 237 465 188 q 471 371 471 286 q 457 550 471 489 q 405 638 443 611 q 299 664 367 664 q 191 642 224 664 q 147 558 158 621 q 135 354 135 496 q 147 149 135 211 q 192 66 158 88 q 304 44 226 44 z "},"ð":{"ha":615,"x_min":74,"x_max":540,"o":"m 307 -11 q 148 19 196 -11 q 87 119 100 49 q 74 353 74 189 q 87 588 74 517 q 147 690 100 660 q 301 719 193 719 q 447 672 397 719 l 453 675 q 372 892 424 799 l 231 869 l 231 919 l 344 938 q 275 1026 318 978 l 275 1032 l 344 1032 q 410 949 381 993 l 519 967 l 519 915 l 436 903 q 496 744 471 832 q 531 572 521 656 q 540 385 540 492 q 528 128 540 203 q 469 21 517 53 q 307 -11 422 -11 m 307 43 q 428 67 393 43 q 472 149 464 92 q 479 353 479 206 q 471 541 479 482 q 426 633 463 600 q 307 665 390 665 q 185 642 219 665 q 142 562 150 619 q 135 353 135 504 q 142 149 135 206 q 185 67 150 92 q 307 43 221 43 z "},"ď":{"ha":633,"x_min":74,"x_max":665,"o":"m 288 -11 q 152 19 197 -11 q 90 125 107 49 q 74 354 74 201 q 90 583 74 507 q 151 690 107 660 q 288 719 196 719 q 404 695 361 719 q 465 615 447 671 l 471 615 l 471 1032 l 532 1032 l 532 0 l 482 0 l 476 106 l 471 106 q 405 13 451 36 q 288 -11 358 -11 m 304 44 q 405 69 368 44 q 454 144 442 93 q 468 237 465 188 q 471 371 471 286 q 457 550 471 489 q 405 638 443 611 q 299 664 367 664 q 191 642 224 664 q 147 558 158 621 q 135 354 135 496 q 147 149 135 211 q 192 66 158 88 q 304 44 226 44 m 583 628 l 600 836 l 600 956 l 665 956 l 665 836 l 624 628 l 583 628 z "},"đ":{"ha":631,"x_min":74,"x_max":613,"o":"m 613 901 l 532 901 l 532 0 l 482 0 l 476 106 l 471 106 q 405 13 451 36 q 288 -11 358 -11 q 152 19 197 -11 q 90 125 107 49 q 74 354 74 201 q 90 583 74 507 q 151 690 107 660 q 288 719 196 719 q 404 695 361 719 q 465 615 447 671 l 471 615 l 471 901 l 299 901 l 299 956 l 471 956 l 471 1032 l 532 1032 l 532 956 l 613 956 l 613 901 m 454 144 q 468 237 465 188 q 471 371 471 286 q 457 550 471 489 q 405 638 443 611 q 299 664 367 664 q 191 642 224 664 q 147 558 158 621 q 135 354 135 496 q 147 149 135 211 q 192 66 158 88 q 304 44 226 44 q 405 69 368 44 q 454 144 442 93 z "},"ḍ":{"ha":631,"x_min":74,"x_max":532,"o":"m 288 -11 q 152 19 197 -11 q 90 125 107 49 q 74 354 74 201 q 90 583 74 507 q 151 690 107 660 q 288 719 196 719 q 404 695 361 719 q 465 615 447 671 l 471 615 l 471 1032 l 532 1032 l 532 0 l 482 0 l 476 106 l 471 106 q 405 13 451 36 q 288 -11 358 -11 m 304 44 q 405 69 368 44 q 454 144 442 93 q 468 237 465 188 q 471 371 471 286 q 457 550 471 489 q 405 638 443 611 q 299 664 367 664 q 191 642 224 664 q 147 558 158 621 q 135 354 135 496 q 147 149 135 211 q 192 66 158 88 q 304 44 226 44 m 278 -185 l 278 -86 l 354 -86 l 354 -185 l 278 -185 z "},"ǳ":{"ha":1139,"x_min":74,"x_max":1090,"o":"m 288 -11 q 152 19 197 -11 q 90 125 107 49 q 74 354 74 201 q 90 583 74 507 q 151 690 107 660 q 288 719 196 719 q 404 695 361 719 q 465 615 447 671 l 471 615 l 471 1032 l 532 1032 l 532 0 l 482 0 l 476 106 l 471 106 q 405 13 451 36 q 288 -11 358 -11 m 304 44 q 405 69 368 44 q 454 144 442 93 q 468 237 465 188 q 471 371 471 286 q 457 550 471 489 q 405 638 443 611 q 299 664 367 664 q 191 642 224 664 q 147 558 158 621 q 135 354 135 496 q 147 149 135 211 q 192 66 158 88 q 304 44 226 44 m 679 0 l 679 49 l 1014 654 l 692 654 l 692 708 l 1088 708 l 1088 660 l 754 54 l 1090 54 l 1090 0 l 679 0 z "},"ǆ":{"ha":1139,"x_min":74,"x_max":1090,"o":"m 288 -11 q 152 19 197 -11 q 90 125 107 49 q 74 354 74 201 q 90 583 74 507 q 151 690 107 660 q 288 719 196 719 q 404 695 361 719 q 465 615 447 671 l 471 615 l 471 1032 l 532 1032 l 532 0 l 482 0 l 476 106 l 471 106 q 405 13 451 36 q 288 -11 358 -11 m 304 44 q 405 69 368 44 q 454 144 442 93 q 468 237 465 188 q 471 371 471 286 q 457 550 471 489 q 405 638 443 611 q 299 664 367 664 q 191 642 224 664 q 147 558 158 621 q 135 354 135 496 q 147 149 135 211 q 192 66 158 88 q 304 44 226 44 m 679 0 l 679 49 l 1014 654 l 692 654 l 692 708 l 1088 708 l 1088 660 l 754 54 l 1090 54 l 1090 0 l 679 0 m 843 840 l 732 1025 l 732 1032 l 778 1032 l 881 886 l 982 1032 l 1028 1032 l 1028 1025 l 918 840 l 843 840 z "},"e":{"ha":597,"x_min":74,"x_max":524,"o":"m 524 333 l 135 333 q 147 147 135 206 q 197 66 158 89 q 322 43 236 43 q 415 49 364 43 q 503 63 465 54 l 503 7 q 417 -6 471 0 q 314 -11 364 -11 q 157 19 207 -11 q 90 124 107 50 q 74 353 74 199 q 87 581 74 510 q 149 685 100 651 q 311 719 199 719 q 455 688 411 719 q 511 584 499 656 q 524 356 524 513 l 524 333 m 308 665 q 192 646 228 665 q 146 571 157 626 q 135 386 135 515 l 463 386 l 463 411 q 449 579 463 526 q 405 649 436 632 q 308 665 374 665 z "},"é":{"ha":597,"x_min":74,"x_max":524,"o":"m 524 333 l 135 333 q 147 147 135 206 q 197 66 158 89 q 322 43 236 43 q 415 49 364 43 q 503 63 465 54 l 503 7 q 417 -6 471 0 q 314 -11 364 -11 q 157 19 207 -11 q 90 124 107 50 q 74 353 74 199 q 87 581 74 510 q 149 685 100 651 q 311 719 199 719 q 455 688 411 719 q 511 584 499 656 q 524 356 524 513 l 524 333 m 308 665 q 192 646 228 665 q 146 571 157 626 q 135 386 135 515 l 463 386 l 463 411 q 449 579 463 526 q 405 649 436 632 q 308 665 374 665 m 281 839 l 281 846 l 358 1032 l 428 1032 l 428 1025 l 324 839 l 281 839 z "},"ĕ":{"ha":597,"x_min":74,"x_max":524,"o":"m 524 333 l 135 333 q 147 147 135 206 q 197 66 158 89 q 322 43 236 43 q 415 49 364 43 q 503 63 465 54 l 503 7 q 417 -6 471 0 q 314 -11 364 -11 q 157 19 207 -11 q 90 124 107 50 q 74 353 74 199 q 87 581 74 510 q 149 685 100 651 q 311 719 199 719 q 455 688 411 719 q 511 584 499 656 q 524 356 524 513 l 524 333 m 308 665 q 192 646 228 665 q 146 571 157 626 q 135 386 135 515 l 463 386 l 463 411 q 449 579 463 526 q 405 649 436 632 q 308 665 374 665 m 444 1032 q 437 922 444 961 q 397 860 429 883 q 297 836 365 836 q 198 860 229 836 q 159 922 167 883 q 151 1032 151 960 l 201 1032 q 206 942 201 972 q 231 897 211 913 q 297 881 251 881 q 363 897 343 881 q 388 942 383 913 q 393 1032 393 972 l 444 1032 z "},"ě":{"ha":597,"x_min":74,"x_max":524,"o":"m 524 333 l 135 333 q 147 147 135 206 q 197 66 158 89 q 322 43 236 43 q 415 49 364 43 q 503 63 465 54 l 503 7 q 417 -6 471 0 q 314 -11 364 -11 q 157 19 207 -11 q 90 124 107 50 q 74 353 74 199 q 87 581 74 510 q 149 685 100 651 q 311 719 199 719 q 455 688 411 719 q 511 584 499 656 q 524 356 524 513 l 524 333 m 308 665 q 192 646 228 665 q 146 571 157 626 q 135 386 135 515 l 463 386 l 463 411 q 449 579 463 526 q 405 649 436 632 q 308 665 374 665 m 261 840 l 150 1025 l 150 1032 l 196 1032 l 299 886 l 400 1032 l 446 1032 l 446 1025 l 336 840 l 261 840 z "},"ê":{"ha":597,"x_min":74,"x_max":524,"o":"m 524 333 l 135 333 q 147 147 135 206 q 197 66 158 89 q 322 43 236 43 q 415 49 364 43 q 503 63 465 54 l 503 7 q 417 -6 471 0 q 314 -11 364 -11 q 157 19 207 -11 q 90 124 107 50 q 74 353 74 199 q 87 581 74 510 q 149 685 100 651 q 311 719 199 719 q 455 688 411 719 q 511 584 499 656 q 524 356 524 513 l 524 333 m 308 665 q 192 646 228 665 q 146 571 157 626 q 135 386 135 515 l 463 386 l 463 411 q 449 579 463 526 q 405 649 436 632 q 308 665 374 665 m 154 840 l 154 847 l 264 1032 l 339 1032 l 449 847 l 449 840 l 403 840 l 301 986 l 199 840 l 154 840 z "},"ế":{"ha":597,"x_min":74,"x_max":528,"o":"m 524 333 l 135 333 q 147 147 135 206 q 197 66 158 89 q 322 43 236 43 q 415 49 364 43 q 503 63 465 54 l 503 7 q 417 -6 471 0 q 314 -11 364 -11 q 157 19 207 -11 q 90 124 107 50 q 74 353 74 199 q 87 581 74 510 q 149 685 100 651 q 311 719 199 719 q 455 688 411 719 q 511 584 499 656 q 524 356 524 513 l 524 333 m 308 665 q 192 646 228 665 q 146 571 157 626 q 135 386 135 515 l 463 386 l 463 411 q 449 579 463 526 q 405 649 436 632 q 308 665 374 665 m 149 840 l 149 847 l 258 1032 l 333 1032 l 443 847 l 443 840 l 397 840 l 296 986 l 193 840 l 149 840 m 381 1036 l 381 1043 l 458 1229 l 528 1229 l 528 1222 l 424 1036 l 381 1036 z "},"ệ":{"ha":597,"x_min":74,"x_max":524,"o":"m 524 333 l 135 333 q 147 147 135 206 q 197 66 158 89 q 322 43 236 43 q 415 49 364 43 q 503 63 465 54 l 503 7 q 417 -6 471 0 q 314 -11 364 -11 q 157 19 207 -11 q 90 124 107 50 q 74 353 74 199 q 87 581 74 510 q 149 685 100 651 q 311 719 199 719 q 455 688 411 719 q 511 584 499 656 q 524 356 524 513 l 524 333 m 308 665 q 192 646 228 665 q 146 571 157 626 q 135 386 135 515 l 463 386 l 463 411 q 449 579 463 526 q 405 649 436 632 q 308 665 374 665 m 261 -185 l 261 -86 l 338 -86 l 338 -185 l 261 -185 m 151 840 l 151 847 l 261 1032 l 336 1032 l 446 847 l 446 840 l 400 840 l 299 986 l 196 840 l 151 840 z "},"ề":{"ha":597,"x_min":74,"x_max":524,"o":"m 524 333 l 135 333 q 147 147 135 206 q 197 66 158 89 q 322 43 236 43 q 415 49 364 43 q 503 63 465 54 l 503 7 q 417 -6 471 0 q 314 -11 364 -11 q 157 19 207 -11 q 90 124 107 50 q 74 353 74 199 q 87 581 74 510 q 149 685 100 651 q 311 719 199 719 q 455 688 411 719 q 511 584 499 656 q 524 356 524 513 l 524 333 m 308 665 q 192 646 228 665 q 146 571 157 626 q 135 386 135 515 l 463 386 l 463 411 q 449 579 463 526 q 405 649 436 632 q 308 665 374 665 m 149 840 l 149 847 l 258 1032 l 333 1032 l 443 847 l 443 840 l 397 840 l 296 986 l 193 840 l 149 840 m 397 1036 l 293 1222 l 293 1229 l 363 1229 l 440 1043 l 440 1036 l 397 1036 z "},"ể":{"ha":597,"x_min":74,"x_max":539,"o":"m 524 333 l 135 333 q 147 147 135 206 q 197 66 158 89 q 322 43 236 43 q 415 49 364 43 q 503 63 465 54 l 503 7 q 417 -6 471 0 q 314 -11 364 -11 q 157 19 207 -11 q 90 124 107 50 q 74 353 74 199 q 87 581 74 510 q 149 685 100 651 q 311 719 199 719 q 455 688 411 719 q 511 584 499 656 q 524 356 524 513 l 524 333 m 308 665 q 192 646 228 665 q 146 571 157 626 q 135 386 135 515 l 463 386 l 463 411 q 449 579 463 526 q 405 649 436 632 q 308 665 374 665 m 151 840 l 151 847 l 261 1032 l 336 1032 l 446 847 l 446 840 l 400 840 l 299 986 l 196 840 l 151 840 m 353 1049 q 365 1090 353 1078 q 406 1111 376 1101 l 428 1117 q 476 1139 464 1128 q 489 1178 489 1150 q 482 1212 489 1201 q 455 1226 475 1222 q 390 1231 435 1231 q 276 1224 349 1231 l 276 1267 q 399 1275 357 1275 q 510 1256 481 1275 q 539 1185 539 1236 q 528 1124 539 1144 q 476 1090 517 1104 l 456 1083 q 416 1069 426 1075 q 403 1058 406 1064 q 400 1035 400 1051 l 353 1035 l 353 1049 z "},"ễ":{"ha":597,"x_min":74,"x_max":524,"o":"m 524 333 l 135 333 q 147 147 135 206 q 197 66 158 89 q 322 43 236 43 q 415 49 364 43 q 503 63 465 54 l 503 7 q 417 -6 471 0 q 314 -11 364 -11 q 157 19 207 -11 q 90 124 107 50 q 74 353 74 199 q 87 581 74 510 q 149 685 100 651 q 311 719 199 719 q 455 688 411 719 q 511 584 499 656 q 524 356 524 513 l 524 333 m 308 665 q 192 646 228 665 q 146 571 157 626 q 135 386 135 515 l 463 386 l 463 411 q 449 579 463 526 q 405 649 436 632 q 308 665 374 665 m 149 840 l 149 847 l 258 1032 l 333 1032 l 443 847 l 443 840 l 397 840 l 296 986 l 193 840 l 149 840 m 486 1272 q 471 1165 486 1194 q 410 1135 456 1135 q 358 1144 383 1135 q 290 1171 332 1153 q 263 1183 285 1174 q 224 1199 242 1193 q 190 1204 206 1204 q 162 1186 168 1204 q 156 1119 156 1168 l 111 1119 q 126 1227 111 1197 q 188 1257 142 1257 q 240 1249 215 1257 q 311 1219 264 1240 q 407 1189 375 1189 q 435 1206 429 1189 q 442 1272 442 1224 l 486 1272 z "},"ȅ":{"ha":597,"x_min":74,"x_max":524,"o":"m 524 333 l 135 333 q 147 147 135 206 q 197 66 158 89 q 322 43 236 43 q 415 49 364 43 q 503 63 465 54 l 503 7 q 417 -6 471 0 q 314 -11 364 -11 q 157 19 207 -11 q 90 124 107 50 q 74 353 74 199 q 87 581 74 510 q 149 685 100 651 q 311 719 199 719 q 455 688 411 719 q 511 584 499 656 q 524 356 524 513 l 524 333 m 308 665 q 192 646 228 665 q 146 571 157 626 q 135 386 135 515 l 463 386 l 463 411 q 449 579 463 526 q 405 649 436 632 q 308 665 374 665 m 235 846 l 193 846 l 92 1013 l 92 1019 l 158 1019 l 235 853 l 235 846 m 417 846 l 375 846 l 274 1013 l 274 1019 l 340 1019 l 417 853 l 417 846 z "},"ë":{"ha":597,"x_min":74,"x_max":524,"o":"m 524 333 l 135 333 q 147 147 135 206 q 197 66 158 89 q 322 43 236 43 q 415 49 364 43 q 503 63 465 54 l 503 7 q 417 -6 471 0 q 314 -11 364 -11 q 157 19 207 -11 q 90 124 107 50 q 74 353 74 199 q 87 581 74 510 q 149 685 100 651 q 311 719 199 719 q 455 688 411 719 q 511 584 499 656 q 524 356 524 513 l 524 333 m 308 665 q 192 646 228 665 q 146 571 157 626 q 135 386 135 515 l 463 386 l 463 411 q 449 579 463 526 q 405 649 436 632 q 308 665 374 665 m 149 922 l 149 1013 l 217 1013 l 217 922 l 149 922 m 392 922 l 392 1013 l 458 1013 l 458 922 l 392 922 z "},"ė":{"ha":597,"x_min":74,"x_max":524,"o":"m 524 333 l 135 333 q 147 147 135 206 q 197 66 158 89 q 322 43 236 43 q 415 49 364 43 q 503 63 465 54 l 503 7 q 417 -6 471 0 q 314 -11 364 -11 q 157 19 207 -11 q 90 124 107 50 q 74 353 74 199 q 87 581 74 510 q 149 685 100 651 q 311 719 199 719 q 455 688 411 719 q 511 584 499 656 q 524 356 524 513 l 524 333 m 308 665 q 192 646 228 665 q 146 571 157 626 q 135 386 135 515 l 463 386 l 463 411 q 449 579 463 526 q 405 649 436 632 q 308 665 374 665 m 264 924 l 264 1014 l 331 1014 l 331 924 l 264 924 z "},"ẹ":{"ha":597,"x_min":74,"x_max":524,"o":"m 524 333 l 135 333 q 147 147 135 206 q 197 66 158 89 q 322 43 236 43 q 415 49 364 43 q 503 63 465 54 l 503 7 q 417 -6 471 0 q 314 -11 364 -11 q 157 19 207 -11 q 90 124 107 50 q 74 353 74 199 q 87 581 74 510 q 149 685 100 651 q 311 719 199 719 q 455 688 411 719 q 511 584 499 656 q 524 356 524 513 l 524 333 m 308 665 q 192 646 228 665 q 146 571 157 626 q 135 386 135 515 l 463 386 l 463 411 q 449 579 463 526 q 405 649 436 632 q 308 665 374 665 m 261 -185 l 261 -86 l 338 -86 l 338 -185 l 261 -185 z "},"è":{"ha":597,"x_min":74,"x_max":524,"o":"m 524 333 l 135 333 q 147 147 135 206 q 197 66 158 89 q 322 43 236 43 q 415 49 364 43 q 503 63 465 54 l 503 7 q 417 -6 471 0 q 314 -11 364 -11 q 157 19 207 -11 q 90 124 107 50 q 74 353 74 199 q 87 581 74 510 q 149 685 100 651 q 311 719 199 719 q 455 688 411 719 q 511 584 499 656 q 524 356 524 513 l 524 333 m 308 665 q 192 646 228 665 q 146 571 157 626 q 135 386 135 515 l 463 386 l 463 411 q 449 579 463 526 q 405 649 436 632 q 308 665 374 665 m 293 839 l 189 1025 l 189 1032 l 258 1032 l 336 846 l 336 839 l 293 839 z "},"ẻ":{"ha":597,"x_min":74,"x_max":524,"o":"m 524 333 l 135 333 q 147 147 135 206 q 197 66 158 89 q 322 43 236 43 q 415 49 364 43 q 503 63 465 54 l 503 7 q 417 -6 471 0 q 314 -11 364 -11 q 157 19 207 -11 q 90 124 107 50 q 74 353 74 199 q 87 581 74 510 q 149 685 100 651 q 311 719 199 719 q 455 688 411 719 q 511 584 499 656 q 524 356 524 513 l 524 333 m 308 665 q 192 646 228 665 q 146 571 157 626 q 135 386 135 515 l 463 386 l 463 411 q 449 579 463 526 q 405 649 436 632 q 308 665 374 665 m 243 860 q 255 901 243 889 q 296 922 267 913 l 318 928 q 367 950 354 939 q 379 989 379 961 q 372 1023 379 1013 q 345 1038 365 1033 q 281 1042 325 1042 q 167 1035 239 1042 l 167 1078 q 289 1086 247 1086 q 400 1067 371 1086 q 429 996 429 1047 q 418 935 429 956 q 367 901 407 915 l 346 894 q 306 881 317 886 q 293 869 296 875 q 290 846 290 863 l 243 846 l 243 860 z "},"ȇ":{"ha":597,"x_min":74,"x_max":524,"o":"m 524 333 l 135 333 q 147 147 135 206 q 197 66 158 89 q 322 43 236 43 q 415 49 364 43 q 503 63 465 54 l 503 7 q 417 -6 471 0 q 314 -11 364 -11 q 157 19 207 -11 q 90 124 107 50 q 74 353 74 199 q 87 581 74 510 q 149 685 100 651 q 311 719 199 719 q 455 688 411 719 q 511 584 499 656 q 524 356 524 513 l 524 333 m 308 665 q 192 646 228 665 q 146 571 157 626 q 135 386 135 515 l 463 386 l 463 411 q 449 579 463 526 q 405 649 436 632 q 308 665 374 665 m 151 844 q 159 954 151 915 q 199 1017 167 993 q 299 1040 231 1040 q 398 1017 367 1040 q 437 955 429 993 q 444 844 444 917 l 394 844 q 390 934 394 904 q 365 980 385 964 q 299 996 344 996 q 233 980 253 996 q 208 934 213 964 q 203 844 203 904 l 151 844 z "},"ē":{"ha":597,"x_min":74,"x_max":524,"o":"m 524 333 l 135 333 q 147 147 135 206 q 197 66 158 89 q 322 43 236 43 q 415 49 364 43 q 503 63 465 54 l 503 7 q 417 -6 471 0 q 314 -11 364 -11 q 157 19 207 -11 q 90 124 107 50 q 74 353 74 199 q 87 581 74 510 q 149 685 100 651 q 311 719 199 719 q 455 688 411 719 q 511 584 499 656 q 524 356 524 513 l 524 333 m 308 665 q 192 646 228 665 q 146 571 157 626 q 135 386 135 515 l 463 386 l 463 411 q 449 579 463 526 q 405 649 436 632 q 308 665 374 665 m 167 971 l 167 1032 l 428 1032 l 428 971 l 167 971 z "},"ę":{"ha":597,"x_min":74,"x_max":524,"o":"m 524 333 l 135 333 q 147 147 135 206 q 197 66 158 89 q 322 43 236 43 q 415 49 364 43 q 503 63 465 54 l 503 7 q 436 -70 468 -19 q 404 -161 404 -121 q 420 -205 404 -187 q 469 -222 436 -222 l 493 -221 l 493 -271 q 457 -272 481 -272 q 374 -244 400 -272 q 347 -174 347 -217 q 370 -87 347 -132 q 432 -4 393 -43 q 314 -11 372 -11 q 157 19 207 -11 q 90 124 107 50 q 74 353 74 199 q 87 581 74 510 q 149 685 100 651 q 311 719 199 719 q 455 688 411 719 q 511 584 499 656 q 524 356 524 513 l 524 333 m 308 665 q 192 646 228 665 q 146 571 157 626 q 135 386 135 515 l 463 386 l 463 411 q 449 579 463 526 q 405 649 436 632 q 308 665 374 665 z "},"ẽ":{"ha":597,"x_min":74,"x_max":524,"o":"m 524 333 l 135 333 q 147 147 135 206 q 197 66 158 89 q 322 43 236 43 q 415 49 364 43 q 503 63 465 54 l 503 7 q 417 -6 471 0 q 314 -11 364 -11 q 157 19 207 -11 q 90 124 107 50 q 74 353 74 199 q 87 581 74 510 q 149 685 100 651 q 311 719 199 719 q 455 688 411 719 q 511 584 499 656 q 524 356 524 513 l 524 333 m 308 665 q 192 646 228 665 q 146 571 157 626 q 135 386 135 515 l 463 386 l 463 411 q 449 579 463 526 q 405 649 436 632 q 308 665 374 665 m 486 1032 q 471 924 486 954 q 410 894 456 894 q 358 903 383 894 q 290 931 332 913 q 263 943 285 933 q 224 958 242 953 q 190 964 206 964 q 162 946 168 964 q 156 879 156 928 l 111 879 q 126 987 111 957 q 188 1017 142 1017 q 240 1008 215 1017 q 311 979 264 1000 q 407 949 375 949 q 435 966 429 949 q 442 1032 442 983 l 486 1032 z "},"ə":{"ha":597,"x_min":74,"x_max":524,"o":"m 283 719 q 440 689 390 719 q 507 584 490 658 q 524 356 524 510 q 510 128 524 199 q 448 23 497 57 q 286 -11 399 -11 q 142 21 186 -11 q 86 124 99 53 q 74 353 74 196 l 74 375 l 463 375 q 451 561 463 503 q 400 642 439 619 q 275 665 361 665 q 183 660 233 665 q 94 646 132 654 l 94 701 q 180 714 126 708 q 283 719 233 719 m 289 43 q 405 63 369 43 q 451 138 440 82 q 463 322 463 193 l 135 322 l 135 297 q 148 129 135 182 q 192 60 161 76 q 289 43 224 43 z "},"f":{"ha":369,"x_min":32,"x_max":336,"o":"m 139 654 l 32 654 l 32 708 l 139 708 l 139 858 q 160 972 139 935 q 221 1020 181 1008 q 336 1032 261 1032 l 336 981 q 252 972 281 981 q 212 940 224 964 q 200 868 200 917 l 200 708 l 336 708 l 336 654 l 200 654 l 200 0 l 139 0 l 139 654 z "},"g":{"ha":631,"x_min":74,"x_max":532,"o":"m 279 -276 q 92 -269 182 -276 l 92 -215 q 271 -222 178 -222 q 403 -197 361 -222 q 458 -110 444 -171 q 471 81 471 -49 l 471 94 l 465 94 q 404 15 447 39 q 288 -10 361 -10 q 151 20 196 -10 q 90 126 107 50 q 74 354 74 201 q 90 584 74 508 q 151 690 107 660 q 288 719 196 719 q 404 696 357 719 q 471 603 451 672 l 476 603 l 482 708 l 532 708 l 532 107 q 515 -127 532 -49 q 444 -241 497 -206 q 279 -276 390 -276 m 304 46 q 405 71 368 46 q 456 151 442 96 q 471 354 471 218 q 469 470 471 425 q 458 549 467 515 q 406 638 443 611 q 304 664 368 664 q 192 642 226 664 q 147 559 158 621 q 135 354 135 497 q 147 150 135 213 q 192 67 158 88 q 304 46 226 46 z "},"ǵ":{"ha":631,"x_min":74,"x_max":532,"o":"m 279 -276 q 92 -269 182 -276 l 92 -215 q 271 -222 178 -222 q 403 -197 361 -222 q 458 -110 444 -171 q 471 81 471 -49 l 471 94 l 465 94 q 404 15 447 39 q 288 -10 361 -10 q 151 20 196 -10 q 90 126 107 50 q 74 354 74 201 q 90 584 74 508 q 151 690 107 660 q 288 719 196 719 q 404 696 357 719 q 471 603 451 672 l 476 603 l 482 708 l 532 708 l 532 107 q 515 -127 532 -49 q 444 -241 497 -206 q 279 -276 390 -276 m 304 46 q 405 71 368 46 q 456 151 442 96 q 471 354 471 218 q 469 470 471 425 q 458 549 467 515 q 406 638 443 611 q 304 664 368 664 q 192 642 226 664 q 147 559 158 621 q 135 354 135 497 q 147 150 135 213 q 192 67 158 88 q 304 46 226 46 m 289 839 l 289 846 l 367 1032 l 436 1032 l 436 1025 l 332 839 l 289 839 z "},"ğ":{"ha":631,"x_min":74,"x_max":532,"o":"m 279 -276 q 92 -269 182 -276 l 92 -215 q 271 -222 178 -222 q 403 -197 361 -222 q 458 -110 444 -171 q 471 81 471 -49 l 471 94 l 465 94 q 404 15 447 39 q 288 -10 361 -10 q 151 20 196 -10 q 90 126 107 50 q 74 354 74 201 q 90 584 74 508 q 151 690 107 660 q 288 719 196 719 q 404 696 357 719 q 471 603 451 672 l 476 603 l 482 708 l 532 708 l 532 107 q 515 -127 532 -49 q 444 -241 497 -206 q 279 -276 390 -276 m 304 46 q 405 71 368 46 q 456 151 442 96 q 471 354 471 218 q 469 470 471 425 q 458 549 467 515 q 406 638 443 611 q 304 664 368 664 q 192 642 226 664 q 147 559 158 621 q 135 354 135 497 q 147 150 135 213 q 192 67 158 88 q 304 46 226 46 m 461 1032 q 453 922 461 961 q 414 860 446 883 q 314 836 382 836 q 215 860 246 836 q 176 922 183 883 q 168 1032 168 960 l 218 1032 q 223 942 218 972 q 248 897 228 913 q 314 881 268 881 q 380 897 360 881 q 405 942 400 913 q 410 1032 410 972 l 461 1032 z "},"ǧ":{"ha":631,"x_min":74,"x_max":532,"o":"m 279 -276 q 92 -269 182 -276 l 92 -215 q 271 -222 178 -222 q 403 -197 361 -222 q 458 -110 444 -171 q 471 81 471 -49 l 471 94 l 465 94 q 404 15 447 39 q 288 -10 361 -10 q 151 20 196 -10 q 90 126 107 50 q 74 354 74 201 q 90 584 74 508 q 151 690 107 660 q 288 719 196 719 q 404 696 357 719 q 471 603 451 672 l 476 603 l 482 708 l 532 708 l 532 107 q 515 -127 532 -49 q 444 -241 497 -206 q 279 -276 390 -276 m 304 46 q 405 71 368 46 q 456 151 442 96 q 471 354 471 218 q 469 470 471 425 q 458 549 467 515 q 406 638 443 611 q 304 664 368 664 q 192 642 226 664 q 147 559 158 621 q 135 354 135 497 q 147 150 135 213 q 192 67 158 88 q 304 46 226 46 m 278 840 l 167 1025 l 167 1032 l 213 1032 l 315 886 l 417 1032 l 463 1032 l 463 1025 l 353 840 l 278 840 z "},"ĝ":{"ha":631,"x_min":74,"x_max":532,"o":"m 279 -276 q 92 -269 182 -276 l 92 -215 q 271 -222 178 -222 q 403 -197 361 -222 q 458 -110 444 -171 q 471 81 471 -49 l 471 94 l 465 94 q 404 15 447 39 q 288 -10 361 -10 q 151 20 196 -10 q 90 126 107 50 q 74 354 74 201 q 90 584 74 508 q 151 690 107 660 q 288 719 196 719 q 404 696 357 719 q 471 603 451 672 l 476 603 l 482 708 l 532 708 l 532 107 q 515 -127 532 -49 q 444 -241 497 -206 q 279 -276 390 -276 m 304 46 q 405 71 368 46 q 456 151 442 96 q 471 354 471 218 q 469 470 471 425 q 458 549 467 515 q 406 638 443 611 q 304 664 368 664 q 192 642 226 664 q 147 559 158 621 q 135 354 135 497 q 147 150 135 213 q 192 67 158 88 q 304 46 226 46 m 168 840 l 168 847 l 278 1032 l 353 1032 l 463 847 l 463 840 l 417 840 l 315 986 l 213 840 l 168 840 z "},"ģ":{"ha":631,"x_min":74,"x_max":532,"o":"m 279 -276 q 92 -269 182 -276 l 92 -215 q 271 -222 178 -222 q 403 -197 361 -222 q 458 -110 444 -171 q 471 81 471 -49 l 471 94 l 465 94 q 404 15 447 39 q 288 -10 361 -10 q 151 20 196 -10 q 90 126 107 50 q 74 354 74 201 q 90 584 74 508 q 151 690 107 660 q 288 719 196 719 q 404 696 357 719 q 471 603 451 672 l 476 603 l 482 708 l 532 708 l 532 107 q 515 -127 532 -49 q 444 -241 497 -206 q 279 -276 390 -276 m 304 46 q 405 71 368 46 q 456 151 442 96 q 471 354 471 218 q 469 470 471 425 q 458 549 467 515 q 406 638 443 611 q 304 664 368 664 q 192 642 226 664 q 147 559 158 621 q 135 354 135 497 q 147 150 135 213 q 192 67 158 88 q 304 46 226 46 m 386 1047 q 342 1040 356 1047 q 325 1016 329 1033 q 321 963 321 999 l 321 939 l 353 939 l 353 842 l 276 842 l 276 947 q 285 1031 276 1003 q 317 1071 294 1060 q 386 1082 340 1082 l 386 1047 z "},"ġ":{"ha":631,"x_min":74,"x_max":532,"o":"m 279 -276 q 92 -269 182 -276 l 92 -215 q 271 -222 178 -222 q 403 -197 361 -222 q 458 -110 444 -171 q 471 81 471 -49 l 471 94 l 465 94 q 404 15 447 39 q 288 -10 361 -10 q 151 20 196 -10 q 90 126 107 50 q 74 354 74 201 q 90 584 74 508 q 151 690 107 660 q 288 719 196 719 q 404 696 357 719 q 471 603 451 672 l 476 603 l 482 708 l 532 708 l 532 107 q 515 -127 532 -49 q 444 -241 497 -206 q 279 -276 390 -276 m 304 46 q 405 71 368 46 q 456 151 442 96 q 471 354 471 218 q 469 470 471 425 q 458 549 467 515 q 406 638 443 611 q 304 664 368 664 q 192 642 226 664 q 147 559 158 621 q 135 354 135 497 q 147 150 135 213 q 192 67 158 88 q 304 46 226 46 m 281 924 l 281 1014 l 347 1014 l 347 924 l 281 924 z "},"h":{"ha":635,"x_min":99,"x_max":540,"o":"m 479 431 q 468 583 479 536 q 426 647 457 631 q 326 664 394 664 q 212 627 247 664 q 168 533 176 590 q 160 367 160 475 l 160 0 l 99 0 l 99 1032 l 160 1032 l 160 619 l 165 619 q 346 719 201 719 q 471 692 429 719 q 526 609 513 665 q 540 446 540 553 l 540 0 l 479 0 l 479 431 z "},"ħ":{"ha":635,"x_min":18,"x_max":540,"o":"m 346 719 q 471 692 429 719 q 526 609 513 665 q 540 446 540 553 l 540 0 l 479 0 l 479 431 q 468 583 479 536 q 426 647 457 631 q 326 664 394 664 q 212 627 247 664 q 168 533 176 590 q 160 367 160 475 l 160 0 l 99 0 l 99 901 l 18 901 l 18 956 l 99 956 l 99 1032 l 160 1032 l 160 956 l 332 956 l 332 901 l 160 901 l 160 619 l 165 619 q 346 719 201 719 z "},"ĥ":{"ha":635,"x_min":-18,"x_max":540,"o":"m 479 431 q 468 583 479 536 q 426 647 457 631 q 326 664 394 664 q 212 627 247 664 q 168 533 176 590 q 160 367 160 475 l 160 0 l 99 0 l 99 1032 l 160 1032 l 160 619 l 165 619 q 346 719 201 719 q 471 692 429 719 q 526 609 513 665 q 540 446 540 553 l 540 0 l 479 0 l 479 431 m -18 1088 l -18 1094 l 92 1279 l 167 1279 l 276 1094 l 276 1088 l 231 1088 l 129 1233 l 26 1088 l -18 1088 z "},"ḥ":{"ha":635,"x_min":99,"x_max":540,"o":"m 479 431 q 468 583 479 536 q 426 647 457 631 q 326 664 394 664 q 212 627 247 664 q 168 533 176 590 q 160 367 160 475 l 160 0 l 99 0 l 99 1032 l 160 1032 l 160 619 l 165 619 q 346 719 201 719 q 471 692 429 719 q 526 609 513 665 q 540 446 540 553 l 540 0 l 479 0 l 479 431 m 279 -185 l 279 -86 l 356 -86 l 356 -185 l 279 -185 z "},"i":{"ha":257,"x_min":94,"x_max":163,"o":"m 94 939 l 94 1032 l 163 1032 l 163 939 l 94 939 m 99 0 l 99 708 l 160 708 l 160 0 l 99 0 z "},"ı":{"ha":257,"x_min":99,"x_max":160,"o":"m 99 0 l 99 708 l 160 708 l 160 0 l 99 0 z "},"í":{"ha":257,"x_min":97,"x_max":244,"o":"m 99 0 l 99 708 l 160 708 l 160 0 l 99 0 m 97 839 l 97 846 l 175 1032 l 244 1032 l 244 1025 l 140 839 l 97 839 z "},"ĭ":{"ha":257,"x_min":-18,"x_max":275,"o":"m 99 0 l 99 708 l 160 708 l 160 0 l 99 0 m 275 1032 q 267 922 275 961 q 228 860 260 883 q 128 836 196 836 q 28 860 60 836 q -10 922 -3 883 q -18 1032 -18 960 l 32 1032 q 37 942 32 972 q 62 897 42 913 q 128 881 82 881 q 194 897 174 881 q 219 942 214 913 q 224 1032 224 972 l 275 1032 z "},"ǐ":{"ha":257,"x_min":-19,"x_max":276,"o":"m 99 0 l 99 708 l 160 708 l 160 0 l 99 0 m 92 840 l -19 1025 l -19 1032 l 26 1032 l 129 886 l 231 1032 l 276 1032 l 276 1025 l 167 840 l 92 840 z "},"î":{"ha":257,"x_min":-18,"x_max":276,"o":"m 99 0 l 99 708 l 160 708 l 160 0 l 99 0 m -18 840 l -18 847 l 92 1032 l 167 1032 l 276 847 l 276 840 l 231 840 l 129 986 l 26 840 l -18 840 z "},"ȉ":{"ha":257,"x_min":-78,"x_max":247,"o":"m 99 0 l 99 708 l 160 708 l 160 0 l 99 0 m 65 846 l 24 846 l -78 1013 l -78 1019 l -11 1019 l 65 853 l 65 846 m 247 846 l 206 846 l 104 1013 l 104 1019 l 171 1019 l 247 853 l 247 846 z "},"ï":{"ha":257,"x_min":-26,"x_max":283,"o":"m 99 0 l 99 708 l 160 708 l 160 0 l 99 0 m -26 922 l -26 1013 l 42 1013 l 42 922 l -26 922 m 217 922 l 217 1013 l 283 1013 l 283 922 l 217 922 z "},"ị":{"ha":257,"x_min":79,"x_max":163,"o":"m 94 939 l 94 1032 l 163 1032 l 163 939 l 94 939 m 99 0 l 99 708 l 160 708 l 160 0 l 99 0 m 79 -185 l 79 -86 l 156 -86 l 156 -185 l 79 -185 z "},"ì":{"ha":257,"x_min":13,"x_max":160,"o":"m 99 0 l 99 708 l 160 708 l 160 0 l 99 0 m 117 839 l 13 1025 l 13 1032 l 82 1032 l 160 846 l 160 839 l 117 839 z "},"ỉ":{"ha":257,"x_min":-3,"x_max":260,"o":"m 99 0 l 99 708 l 160 708 l 160 0 l 99 0 m 74 860 q 85 901 74 889 q 126 922 97 913 l 149 928 q 197 950 185 939 q 210 989 210 961 q 203 1023 210 1013 q 176 1038 196 1033 q 111 1042 156 1042 q -3 1035 69 1042 l -3 1078 q 119 1086 78 1086 q 231 1067 201 1086 q 260 996 260 1047 q 249 935 260 956 q 197 901 238 915 l 176 894 q 137 881 147 886 q 124 869 126 875 q 121 846 121 863 l 74 846 l 74 860 z "},"ȋ":{"ha":257,"x_min":-18,"x_max":275,"o":"m 99 0 l 99 708 l 160 708 l 160 0 l 99 0 m -18 844 q -10 954 -18 915 q 29 1017 -3 993 q 129 1040 61 1040 q 228 1017 197 1040 q 267 955 260 993 q 275 844 275 917 l 225 844 q 220 934 225 904 q 195 980 215 964 q 129 996 175 996 q 63 980 83 996 q 38 934 43 964 q 33 844 33 904 l -18 844 z "},"ĳ":{"ha":514,"x_min":94,"x_max":419,"o":"m 94 939 l 94 1032 l 163 1032 l 163 939 l 94 939 m 99 0 l 99 708 l 160 708 l 160 0 l 99 0 m 351 939 l 351 1032 l 419 1032 l 419 939 l 351 939 m 253 -217 q 322 -210 300 -217 q 349 -187 343 -203 q 356 -139 356 -172 l 356 708 l 417 708 l 417 -121 q 400 -220 417 -189 q 351 -260 383 -251 q 253 -268 318 -268 l 253 -217 z "},"ī":{"ha":257,"x_min":-3,"x_max":258,"o":"m 99 0 l 99 708 l 160 708 l 160 0 l 99 0 m -3 971 l -3 1032 l 258 1032 l 258 971 l -3 971 z "},"į":{"ha":257,"x_min":15,"x_max":163,"o":"m 94 1014 l 163 1014 l 163 924 l 94 924 l 94 1014 m 72 -160 q 138 -222 72 -222 l 161 -221 l 161 -271 q 125 -272 146 -272 q 42 -244 68 -272 q 15 -171 15 -217 q 39 -84 15 -131 q 100 0 63 -37 l 99 0 l 99 708 l 160 708 l 160 0 q 101 -74 129 -25 q 72 -160 72 -122 z "},"ĩ":{"ha":257,"x_min":-58,"x_max":317,"o":"m 99 0 l 99 708 l 160 708 l 160 0 l 99 0 m 317 1032 q 301 924 317 954 q 240 894 286 894 q 188 903 214 894 q 121 931 163 913 q 94 943 115 933 q 54 958 72 953 q 21 964 36 964 q -8 946 -1 964 q -14 879 -14 928 l -58 879 q -43 987 -58 957 q 18 1017 -28 1017 q 70 1008 46 1017 q 142 979 94 1000 q 238 949 206 949 q 266 966 260 949 q 272 1032 272 983 l 317 1032 z "},"j":{"ha":257,"x_min":-4,"x_max":163,"o":"m 94 939 l 94 1032 l 163 1032 l 163 939 l 94 939 m -4 -217 q 65 -210 43 -217 q 92 -187 86 -203 q 99 -139 99 -172 l 99 708 l 160 708 l 160 -121 q 143 -220 160 -189 q 94 -260 126 -251 q -4 -268 61 -268 l -4 -217 z "},"ȷ":{"ha":257,"x_min":-4,"x_max":160,"o":"m -4 -217 q 65 -210 43 -217 q 92 -187 86 -203 q 99 -139 99 -172 l 99 708 l 160 708 l 160 -121 q 143 -220 160 -189 q 94 -260 126 -251 q -4 -268 61 -268 l -4 -217 z "},"ĵ":{"ha":257,"x_min":-18,"x_max":276,"o":"m -4 -217 q 65 -210 43 -217 q 92 -187 86 -203 q 99 -139 99 -172 l 99 708 l 160 708 l 160 -121 q 143 -220 160 -189 q 94 -260 126 -251 q -4 -268 61 -268 l -4 -217 m -18 840 l -18 847 l 92 1032 l 167 1032 l 276 847 l 276 840 l 231 840 l 129 986 l 26 840 l -18 840 z "},"k":{"ha":553,"x_min":99,"x_max":521,"o":"m 449 0 l 249 332 l 160 332 l 160 0 l 99 0 l 99 1032 l 160 1032 l 160 389 l 249 389 l 446 708 l 515 708 l 300 364 l 521 0 l 449 0 z "},"ķ":{"ha":553,"x_min":99,"x_max":521,"o":"m 449 0 l 249 332 l 160 332 l 160 0 l 99 0 l 99 1032 l 160 1032 l 160 389 l 249 389 l 446 708 l 515 708 l 300 364 l 521 0 l 449 0 m 222 -293 q 276 -276 265 -293 q 288 -208 288 -260 l 288 -185 l 256 -185 l 256 -86 l 332 -86 l 332 -192 q 323 -276 332 -247 q 291 -315 314 -304 q 222 -326 268 -326 l 222 -293 z "},"ĸ":{"ha":553,"x_min":99,"x_max":521,"o":"m 449 0 l 249 332 l 160 332 l 160 0 l 99 0 l 99 708 l 160 708 l 160 389 l 249 389 l 446 708 l 515 708 l 300 364 l 521 0 l 449 0 z "},"l":{"ha":257,"x_min":99,"x_max":160,"o":"m 99 0 l 99 1032 l 160 1032 l 160 0 l 99 0 z "},"ĺ":{"ha":257,"x_min":99,"x_max":250,"o":"m 99 0 l 99 1032 l 160 1032 l 160 0 l 99 0 m 103 1086 l 103 1093 l 181 1279 l 250 1279 l 250 1272 l 146 1086 l 103 1086 z "},"ľ":{"ha":261,"x_min":99,"x_max":293,"o":"m 99 0 l 99 1032 l 160 1032 l 160 0 l 99 0 m 211 628 l 228 836 l 228 956 l 293 956 l 293 836 l 251 628 l 211 628 z "},"ļ":{"ha":257,"x_min":75,"x_max":185,"o":"m 99 0 l 99 1032 l 160 1032 l 160 0 l 99 0 m 75 -293 q 129 -276 118 -293 q 140 -208 140 -260 l 140 -185 l 108 -185 l 108 -86 l 185 -86 l 185 -192 q 176 -276 185 -247 q 144 -315 167 -304 q 75 -326 121 -326 l 75 -293 z "},"ŀ":{"ha":303,"x_min":99,"x_max":315,"o":"m 99 0 l 99 1032 l 160 1032 l 160 0 l 99 0 m 239 367 l 239 465 l 315 465 l 315 367 l 239 367 z "},"ǉ":{"ha":514,"x_min":99,"x_max":419,"o":"m 99 0 l 99 1032 l 160 1032 l 160 0 l 99 0 m 351 939 l 351 1032 l 419 1032 l 419 939 l 351 939 m 253 -217 q 322 -210 300 -217 q 349 -187 343 -203 q 356 -139 356 -172 l 356 708 l 417 708 l 417 -121 q 400 -220 417 -189 q 351 -260 383 -251 q 253 -268 318 -268 l 253 -217 z "},"ł":{"ha":263,"x_min":25,"x_max":239,"o":"m 99 0 l 99 457 l 25 431 l 25 489 l 99 515 l 99 1032 l 160 1032 l 160 536 l 239 565 l 239 507 l 160 478 l 160 0 l 99 0 z "},"m":{"ha":969,"x_min":99,"x_max":875,"o":"m 814 431 q 804 583 814 536 q 767 647 794 631 q 676 664 739 664 q 567 630 601 664 q 524 538 532 596 q 517 367 517 481 l 517 0 l 456 0 l 456 431 q 446 583 456 536 q 408 647 436 631 q 319 664 381 664 q 210 627 244 664 q 168 532 176 590 q 160 367 160 474 l 160 0 l 99 0 l 99 708 l 149 708 l 153 603 l 160 603 q 213 688 174 656 q 333 719 251 719 q 453 693 415 719 q 507 603 492 667 l 514 603 q 690 719 543 719 q 809 693 769 719 q 862 610 849 667 q 875 446 875 553 l 875 0 l 814 0 l 814 431 z "},"n":{"ha":635,"x_min":99,"x_max":540,"o":"m 479 431 q 468 583 479 536 q 426 647 457 631 q 326 664 394 664 q 212 627 247 664 q 168 533 176 590 q 160 367 160 475 l 160 0 l 99 0 l 99 708 l 149 708 l 153 603 l 160 603 q 217 688 175 657 q 346 719 258 719 q 471 692 429 719 q 526 609 513 665 q 540 446 540 553 l 540 0 l 479 0 l 479 431 z "},"ń":{"ha":635,"x_min":99,"x_max":540,"o":"m 479 431 q 468 583 479 536 q 426 647 457 631 q 326 664 394 664 q 212 627 247 664 q 168 533 176 590 q 160 367 160 475 l 160 0 l 99 0 l 99 708 l 149 708 l 153 603 l 160 603 q 217 688 175 657 q 346 719 258 719 q 471 692 429 719 q 526 609 513 665 q 540 446 540 553 l 540 0 l 479 0 l 479 431 m 290 839 l 290 846 l 368 1032 l 438 1032 l 438 1025 l 333 839 l 290 839 z "},"ŉ":{"ha":647,"x_min":6,"x_max":554,"o":"m 6 826 q 49 834 36 826 q 67 859 63 842 q 71 914 71 876 l 71 938 l 39 938 l 39 1032 l 115 1032 l 115 931 q 107 844 115 874 q 76 803 99 815 q 6 792 53 792 l 6 826 m 493 431 q 482 583 493 536 q 440 647 471 631 q 340 664 408 664 q 226 627 261 664 q 182 533 190 590 q 174 367 174 475 l 174 0 l 113 0 l 113 708 l 163 708 l 167 603 l 174 603 q 231 688 189 657 q 360 719 272 719 q 485 692 443 719 q 540 609 526 665 q 554 446 554 553 l 554 0 l 493 0 l 493 431 z "},"ň":{"ha":635,"x_min":99,"x_max":540,"o":"m 479 431 q 468 583 479 536 q 426 647 457 631 q 326 664 394 664 q 212 627 247 664 q 168 533 176 590 q 160 367 160 475 l 160 0 l 99 0 l 99 708 l 149 708 l 153 603 l 160 603 q 217 688 175 657 q 346 719 258 719 q 471 692 429 719 q 526 609 513 665 q 540 446 540 553 l 540 0 l 479 0 l 479 431 m 279 840 l 168 1025 l 168 1032 l 214 1032 l 317 886 l 418 1032 l 464 1032 l 464 1025 l 354 840 l 279 840 z "},"ņ":{"ha":635,"x_min":99,"x_max":540,"o":"m 479 431 q 468 583 479 536 q 426 647 457 631 q 326 664 394 664 q 212 627 247 664 q 168 533 176 590 q 160 367 160 475 l 160 0 l 99 0 l 99 708 l 149 708 l 153 603 l 160 603 q 217 688 175 657 q 346 719 258 719 q 471 692 429 719 q 526 609 513 665 q 540 446 540 553 l 540 0 l 479 0 l 479 431 m 263 -293 q 317 -276 306 -293 q 328 -208 328 -260 l 328 -185 l 296 -185 l 296 -86 l 372 -86 l 372 -192 q 363 -276 372 -247 q 331 -315 354 -304 q 263 -326 308 -326 l 263 -293 z "},"ṅ":{"ha":635,"x_min":99,"x_max":540,"o":"m 479 431 q 468 583 479 536 q 426 647 457 631 q 326 664 394 664 q 212 627 247 664 q 168 533 176 590 q 160 367 160 475 l 160 0 l 99 0 l 99 708 l 149 708 l 153 603 l 160 603 q 217 688 175 657 q 346 719 258 719 q 471 692 429 719 q 526 609 513 665 q 540 446 540 553 l 540 0 l 479 0 l 479 431 m 282 924 l 282 1014 l 349 1014 l 349 924 l 282 924 z "},"ŋ":{"ha":635,"x_min":99,"x_max":540,"o":"m 346 719 q 471 692 429 719 q 526 609 513 665 q 540 446 540 553 l 540 -121 q 524 -220 540 -189 q 474 -260 507 -251 q 376 -268 442 -268 l 376 -217 q 445 -210 424 -217 q 473 -187 467 -203 q 479 -139 479 -172 l 479 431 q 468 583 479 536 q 426 647 457 631 q 326 664 394 664 q 212 627 247 664 q 168 533 176 590 q 160 367 160 475 l 160 0 l 99 0 l 99 708 l 149 708 l 153 603 l 160 603 q 217 688 175 657 q 346 719 258 719 z "},"ɲ":{"ha":635,"x_min":-4,"x_max":540,"o":"m -4 -217 q 65 -210 43 -217 q 92 -187 86 -203 q 99 -139 99 -172 l 99 708 l 149 708 l 153 603 l 160 603 q 217 688 175 657 q 346 719 258 719 q 471 692 429 719 q 526 609 513 665 q 540 446 540 553 l 540 0 l 479 0 l 479 431 q 468 583 479 536 q 426 647 457 631 q 326 664 394 664 q 212 627 247 664 q 168 533 176 590 q 160 368 160 475 l 160 -121 q 143 -220 160 -189 q 94 -260 126 -251 q -4 -268 61 -268 l -4 -217 z "},"ǌ":{"ha":892,"x_min":99,"x_max":797,"o":"m 479 431 q 468 583 479 536 q 426 647 457 631 q 326 664 394 664 q 212 627 247 664 q 168 533 176 590 q 160 367 160 475 l 160 0 l 99 0 l 99 708 l 149 708 l 153 603 l 160 603 q 217 688 175 657 q 346 719 258 719 q 471 692 429 719 q 526 609 513 665 q 540 446 540 553 l 540 0 l 479 0 l 479 431 m 729 939 l 729 1032 l 797 1032 l 797 939 l 729 939 m 631 -217 q 699 -210 678 -217 q 727 -187 721 -203 q 733 -139 733 -172 l 733 708 l 794 708 l 794 -121 q 778 -220 794 -189 q 728 -260 761 -251 q 631 -268 696 -268 l 631 -217 z "},"ñ":{"ha":635,"x_min":99,"x_max":540,"o":"m 479 431 q 468 583 479 536 q 426 647 457 631 q 326 664 394 664 q 212 627 247 664 q 168 533 176 590 q 160 367 160 475 l 160 0 l 99 0 l 99 708 l 149 708 l 153 603 l 160 603 q 217 688 175 657 q 346 719 258 719 q 471 692 429 719 q 526 609 513 665 q 540 446 540 553 l 540 0 l 479 0 l 479 431 m 510 1032 q 494 924 510 954 q 433 894 479 894 q 381 903 407 894 q 314 931 356 913 q 287 943 308 933 q 247 958 265 953 q 214 964 229 964 q 185 946 192 964 q 179 879 179 928 l 135 879 q 150 987 135 957 q 211 1017 165 1017 q 263 1008 239 1017 q 335 979 288 1000 q 431 949 399 949 q 459 966 453 949 q 465 1032 465 983 l 510 1032 z "},"o":{"ha":614,"x_min":74,"x_max":540,"o":"m 307 -11 q 149 17 197 -11 q 88 117 101 46 q 74 353 74 189 q 88 589 74 517 q 149 690 101 661 q 307 719 197 719 q 465 690 417 719 q 526 589 513 661 q 540 353 540 517 q 526 117 540 189 q 465 17 513 46 q 307 -11 417 -11 m 307 43 q 426 65 392 43 q 470 147 461 88 q 479 353 479 206 q 470 560 479 501 q 426 642 461 619 q 307 665 392 665 q 188 642 222 665 q 144 560 153 619 q 135 353 135 501 q 144 147 135 206 q 188 65 153 88 q 307 43 222 43 z "},"ó":{"ha":614,"x_min":74,"x_max":540,"o":"m 307 -11 q 149 17 197 -11 q 88 117 101 46 q 74 353 74 189 q 88 589 74 517 q 149 690 101 661 q 307 719 197 719 q 465 690 417 719 q 526 589 513 661 q 540 353 540 517 q 526 117 540 189 q 465 17 513 46 q 307 -11 417 -11 m 307 43 q 426 65 392 43 q 470 147 461 88 q 479 353 479 206 q 470 560 479 501 q 426 642 461 619 q 307 665 392 665 q 188 642 222 665 q 144 560 153 619 q 135 353 135 501 q 144 147 135 206 q 188 65 153 88 q 307 43 222 43 m 271 839 l 271 846 l 349 1032 l 418 1032 l 418 1025 l 314 839 l 271 839 z "},"ŏ":{"ha":614,"x_min":74,"x_max":540,"o":"m 307 -11 q 149 17 197 -11 q 88 117 101 46 q 74 353 74 189 q 88 589 74 517 q 149 690 101 661 q 307 719 197 719 q 465 690 417 719 q 526 589 513 661 q 540 353 540 517 q 526 117 540 189 q 465 17 513 46 q 307 -11 417 -11 m 307 43 q 426 65 392 43 q 470 147 461 88 q 479 353 479 206 q 470 560 479 501 q 426 642 461 619 q 307 665 392 665 q 188 642 222 665 q 144 560 153 619 q 135 353 135 501 q 144 147 135 206 q 188 65 153 88 q 307 43 222 43 m 453 1032 q 445 922 453 961 q 406 860 438 883 q 306 836 374 836 q 206 860 238 836 q 167 922 175 883 q 160 1032 160 960 l 210 1032 q 215 942 210 972 q 240 897 219 913 q 306 881 260 881 q 372 897 351 881 q 397 942 392 913 q 401 1032 401 972 l 453 1032 z "},"ǒ":{"ha":614,"x_min":74,"x_max":540,"o":"m 307 -11 q 149 17 197 -11 q 88 117 101 46 q 74 353 74 189 q 88 589 74 517 q 149 690 101 661 q 307 719 197 719 q 465 690 417 719 q 526 589 513 661 q 540 353 540 517 q 526 117 540 189 q 465 17 513 46 q 307 -11 417 -11 m 307 43 q 426 65 392 43 q 470 147 461 88 q 479 353 479 206 q 470 560 479 501 q 426 642 461 619 q 307 665 392 665 q 188 642 222 665 q 144 560 153 619 q 135 353 135 501 q 144 147 135 206 q 188 65 153 88 q 307 43 222 43 m 269 840 l 158 1025 l 158 1032 l 204 1032 l 307 886 l 408 1032 l 454 1032 l 454 1025 l 344 840 l 269 840 z "},"ô":{"ha":614,"x_min":74,"x_max":540,"o":"m 307 -11 q 149 17 197 -11 q 88 117 101 46 q 74 353 74 189 q 88 589 74 517 q 149 690 101 661 q 307 719 197 719 q 465 690 417 719 q 526 589 513 661 q 540 353 540 517 q 526 117 540 189 q 465 17 513 46 q 307 -11 417 -11 m 307 43 q 426 65 392 43 q 470 147 461 88 q 479 353 479 206 q 470 560 479 501 q 426 642 461 619 q 307 665 392 665 q 188 642 222 665 q 144 560 153 619 q 135 353 135 501 q 144 147 135 206 q 188 65 153 88 q 307 43 222 43 m 161 840 l 161 847 l 271 1032 l 346 1032 l 456 847 l 456 840 l 410 840 l 308 986 l 206 840 l 161 840 z "},"ố":{"ha":614,"x_min":74,"x_max":540,"o":"m 307 -11 q 149 17 197 -11 q 88 117 101 46 q 74 353 74 189 q 88 589 74 517 q 149 690 101 661 q 307 719 197 719 q 465 690 417 719 q 526 589 513 661 q 540 353 540 517 q 526 117 540 189 q 465 17 513 46 q 307 -11 417 -11 m 307 43 q 426 65 392 43 q 470 147 461 88 q 479 353 479 206 q 470 560 479 501 q 426 642 461 619 q 307 665 392 665 q 188 642 222 665 q 144 560 153 619 q 135 353 135 501 q 144 147 135 206 q 188 65 153 88 q 307 43 222 43 m 157 840 l 157 847 l 267 1032 l 342 1032 l 451 847 l 451 840 l 406 840 l 304 986 l 201 840 l 157 840 m 389 1036 l 389 1043 l 467 1229 l 536 1229 l 536 1222 l 432 1036 l 389 1036 z "},"ộ":{"ha":614,"x_min":74,"x_max":540,"o":"m 307 -11 q 149 17 197 -11 q 88 117 101 46 q 74 353 74 189 q 88 589 74 517 q 149 690 101 661 q 307 719 197 719 q 465 690 417 719 q 526 589 513 661 q 540 353 540 517 q 526 117 540 189 q 465 17 513 46 q 307 -11 417 -11 m 307 43 q 426 65 392 43 q 470 147 461 88 q 479 353 479 206 q 470 560 479 501 q 426 642 461 619 q 307 665 392 665 q 188 642 222 665 q 144 560 153 619 q 135 353 135 501 q 144 147 135 206 q 188 65 153 88 q 307 43 222 43 m 269 -185 l 269 -86 l 346 -86 l 346 -185 l 269 -185 m 160 840 l 160 847 l 269 1032 l 344 1032 l 454 847 l 454 840 l 408 840 l 307 986 l 204 840 l 160 840 z "},"ồ":{"ha":614,"x_min":74,"x_max":540,"o":"m 307 -11 q 149 17 197 -11 q 88 117 101 46 q 74 353 74 189 q 88 589 74 517 q 149 690 101 661 q 307 719 197 719 q 465 690 417 719 q 526 589 513 661 q 540 353 540 517 q 526 117 540 189 q 465 17 513 46 q 307 -11 417 -11 m 307 43 q 426 65 392 43 q 470 147 461 88 q 479 353 479 206 q 470 560 479 501 q 426 642 461 619 q 307 665 392 665 q 188 642 222 665 q 144 560 153 619 q 135 353 135 501 q 144 147 135 206 q 188 65 153 88 q 307 43 222 43 m 157 840 l 157 847 l 267 1032 l 342 1032 l 451 847 l 451 840 l 406 840 l 304 986 l 201 840 l 157 840 m 406 1036 l 301 1222 l 301 1229 l 371 1229 l 449 1043 l 449 1036 l 406 1036 z "},"ổ":{"ha":614,"x_min":74,"x_max":547,"o":"m 307 -11 q 149 17 197 -11 q 88 117 101 46 q 74 353 74 189 q 88 589 74 517 q 149 690 101 661 q 307 719 197 719 q 465 690 417 719 q 526 589 513 661 q 540 353 540 517 q 526 117 540 189 q 465 17 513 46 q 307 -11 417 -11 m 307 43 q 426 65 392 43 q 470 147 461 88 q 479 353 479 206 q 470 560 479 501 q 426 642 461 619 q 307 665 392 665 q 188 642 222 665 q 144 560 153 619 q 135 353 135 501 q 144 147 135 206 q 188 65 153 88 q 307 43 222 43 m 160 840 l 160 847 l 269 1032 l 344 1032 l 454 847 l 454 840 l 408 840 l 307 986 l 204 840 l 160 840 m 361 1049 q 373 1090 361 1078 q 414 1111 385 1101 l 436 1117 q 485 1139 472 1128 q 497 1178 497 1150 q 490 1212 497 1201 q 463 1226 483 1222 q 399 1231 443 1231 q 285 1224 357 1231 l 285 1267 q 407 1275 365 1275 q 518 1256 489 1275 q 547 1185 547 1236 q 536 1124 547 1144 q 485 1090 525 1104 l 464 1083 q 424 1069 435 1075 q 411 1058 414 1064 q 408 1035 408 1051 l 361 1035 l 361 1049 z "},"ỗ":{"ha":614,"x_min":74,"x_max":540,"o":"m 307 -11 q 149 17 197 -11 q 88 117 101 46 q 74 353 74 189 q 88 589 74 517 q 149 690 101 661 q 307 719 197 719 q 465 690 417 719 q 526 589 513 661 q 540 353 540 517 q 526 117 540 189 q 465 17 513 46 q 307 -11 417 -11 m 307 43 q 426 65 392 43 q 470 147 461 88 q 479 353 479 206 q 470 560 479 501 q 426 642 461 619 q 307 665 392 665 q 188 642 222 665 q 144 560 153 619 q 135 353 135 501 q 144 147 135 206 q 188 65 153 88 q 307 43 222 43 m 157 840 l 157 847 l 267 1032 l 342 1032 l 451 847 l 451 840 l 406 840 l 304 986 l 201 840 l 157 840 m 494 1272 q 479 1165 494 1194 q 418 1135 464 1135 q 366 1144 392 1135 q 299 1171 340 1153 q 272 1183 293 1174 q 232 1199 250 1193 q 199 1204 214 1204 q 170 1186 176 1204 q 164 1119 164 1168 l 119 1119 q 135 1227 119 1197 q 196 1257 150 1257 q 248 1249 224 1257 q 319 1219 272 1240 q 415 1189 383 1189 q 444 1206 438 1189 q 450 1272 450 1224 l 494 1272 z "},"ȍ":{"ha":614,"x_min":74,"x_max":540,"o":"m 307 -11 q 149 17 197 -11 q 88 117 101 46 q 74 353 74 189 q 88 589 74 517 q 149 690 101 661 q 307 719 197 719 q 465 690 417 719 q 526 589 513 661 q 540 353 540 517 q 526 117 540 189 q 465 17 513 46 q 307 -11 417 -11 m 307 43 q 426 65 392 43 q 470 147 461 88 q 479 353 479 206 q 470 560 479 501 q 426 642 461 619 q 307 665 392 665 q 188 642 222 665 q 144 560 153 619 q 135 353 135 501 q 144 147 135 206 q 188 65 153 88 q 307 43 222 43 m 243 846 l 201 846 l 100 1013 l 100 1019 l 167 1019 l 243 853 l 243 846 m 425 846 l 383 846 l 282 1013 l 282 1019 l 349 1019 l 425 853 l 425 846 z "},"ö":{"ha":614,"x_min":74,"x_max":540,"o":"m 307 -11 q 149 17 197 -11 q 88 117 101 46 q 74 353 74 189 q 88 589 74 517 q 149 690 101 661 q 307 719 197 719 q 465 690 417 719 q 526 589 513 661 q 540 353 540 517 q 526 117 540 189 q 465 17 513 46 q 307 -11 417 -11 m 307 43 q 426 65 392 43 q 470 147 461 88 q 479 353 479 206 q 470 560 479 501 q 426 642 461 619 q 307 665 392 665 q 188 642 222 665 q 144 560 153 619 q 135 353 135 501 q 144 147 135 206 q 188 65 153 88 q 307 43 222 43 m 154 922 l 154 1013 l 222 1013 l 222 922 l 154 922 m 397 922 l 397 1013 l 464 1013 l 464 922 l 397 922 z "},"ọ":{"ha":614,"x_min":74,"x_max":540,"o":"m 307 -11 q 149 17 197 -11 q 88 117 101 46 q 74 353 74 189 q 88 589 74 517 q 149 690 101 661 q 307 719 197 719 q 465 690 417 719 q 526 589 513 661 q 540 353 540 517 q 526 117 540 189 q 465 17 513 46 q 307 -11 417 -11 m 307 43 q 426 65 392 43 q 470 147 461 88 q 479 353 479 206 q 470 560 479 501 q 426 642 461 619 q 307 665 392 665 q 188 642 222 665 q 144 560 153 619 q 135 353 135 501 q 144 147 135 206 q 188 65 153 88 q 307 43 222 43 m 269 -185 l 269 -86 l 346 -86 l 346 -185 l 269 -185 z "},"ò":{"ha":614,"x_min":74,"x_max":540,"o":"m 307 -11 q 149 17 197 -11 q 88 117 101 46 q 74 353 74 189 q 88 589 74 517 q 149 690 101 661 q 307 719 197 719 q 465 690 417 719 q 526 589 513 661 q 540 353 540 517 q 526 117 540 189 q 465 17 513 46 q 307 -11 417 -11 m 307 43 q 426 65 392 43 q 470 147 461 88 q 479 353 479 206 q 470 560 479 501 q 426 642 461 619 q 307 665 392 665 q 188 642 222 665 q 144 560 153 619 q 135 353 135 501 q 144 147 135 206 q 188 65 153 88 q 307 43 222 43 m 299 839 l 194 1025 l 194 1032 l 264 1032 l 342 846 l 342 839 l 299 839 z "},"ỏ":{"ha":614,"x_min":74,"x_max":540,"o":"m 307 -11 q 149 17 197 -11 q 88 117 101 46 q 74 353 74 189 q 88 589 74 517 q 149 690 101 661 q 307 719 197 719 q 465 690 417 719 q 526 589 513 661 q 540 353 540 517 q 526 117 540 189 q 465 17 513 46 q 307 -11 417 -11 m 307 43 q 426 65 392 43 q 470 147 461 88 q 479 353 479 206 q 470 560 479 501 q 426 642 461 619 q 307 665 392 665 q 188 642 222 665 q 144 560 153 619 q 135 353 135 501 q 144 147 135 206 q 188 65 153 88 q 307 43 222 43 m 251 860 q 263 901 251 889 q 304 922 275 913 l 326 928 q 375 950 363 939 q 388 989 388 961 q 381 1023 388 1013 q 353 1038 374 1033 q 289 1042 333 1042 q 175 1035 247 1042 l 175 1078 q 297 1086 256 1086 q 408 1067 379 1086 q 438 996 438 1047 q 426 935 438 956 q 375 901 415 915 l 354 894 q 315 881 325 886 q 301 869 304 875 q 299 846 299 863 l 251 846 l 251 860 z "},"ơ":{"ha":614,"x_min":74,"x_max":603,"o":"m 603 844 l 603 799 q 594 717 603 744 q 562 679 585 690 q 492 667 539 668 q 531 561 522 631 q 540 353 540 492 q 526 117 540 189 q 465 17 513 46 q 307 -11 417 -11 q 149 17 197 -11 q 88 117 101 46 q 74 353 74 189 q 88 589 74 517 q 149 690 101 661 q 307 719 197 719 q 422 708 382 719 l 485 708 q 541 724 529 708 q 553 788 553 740 l 553 844 l 603 844 m 307 43 q 426 65 392 43 q 470 147 461 88 q 479 353 479 206 q 470 560 479 501 q 426 642 461 619 q 307 665 392 665 q 188 642 222 665 q 144 560 153 619 q 135 353 135 501 q 144 147 135 206 q 188 65 153 88 q 307 43 222 43 z "},"ớ":{"ha":614,"x_min":74,"x_max":603,"o":"m 603 844 l 603 799 q 594 717 603 744 q 562 679 585 690 q 492 667 539 668 q 531 561 522 631 q 540 353 540 492 q 526 117 540 189 q 465 17 513 46 q 307 -11 417 -11 q 149 17 197 -11 q 88 117 101 46 q 74 353 74 189 q 88 589 74 517 q 149 690 101 661 q 307 719 197 719 q 422 708 382 719 l 485 708 q 541 724 529 708 q 553 788 553 740 l 553 844 l 603 844 m 307 43 q 426 65 392 43 q 470 147 461 88 q 479 353 479 206 q 470 560 479 501 q 426 642 461 619 q 307 665 392 665 q 188 642 222 665 q 144 560 153 619 q 135 353 135 501 q 144 147 135 206 q 188 65 153 88 q 307 43 222 43 m 281 839 l 281 846 l 358 1032 l 428 1032 l 428 1025 l 324 839 l 281 839 z "},"ợ":{"ha":614,"x_min":74,"x_max":603,"o":"m 603 844 l 603 799 q 594 717 603 744 q 562 679 585 690 q 492 667 539 668 q 531 561 522 631 q 540 353 540 492 q 526 117 540 189 q 465 17 513 46 q 307 -11 417 -11 q 149 17 197 -11 q 88 117 101 46 q 74 353 74 189 q 88 589 74 517 q 149 690 101 661 q 307 719 197 719 q 422 708 382 719 l 485 708 q 541 724 529 708 q 553 788 553 740 l 553 844 l 603 844 m 307 43 q 426 65 392 43 q 470 147 461 88 q 479 353 479 206 q 470 560 479 501 q 426 642 461 619 q 307 665 392 665 q 188 642 222 665 q 144 560 153 619 q 135 353 135 501 q 144 147 135 206 q 188 65 153 88 q 307 43 222 43 m 269 -185 l 269 -86 l 346 -86 l 346 -185 l 269 -185 z "},"ờ":{"ha":614,"x_min":74,"x_max":603,"o":"m 603 844 l 603 799 q 594 717 603 744 q 562 679 585 690 q 492 667 539 668 q 531 561 522 631 q 540 353 540 492 q 526 117 540 189 q 465 17 513 46 q 307 -11 417 -11 q 149 17 197 -11 q 88 117 101 46 q 74 353 74 189 q 88 589 74 517 q 149 690 101 661 q 307 719 197 719 q 422 708 382 719 l 485 708 q 541 724 529 708 q 553 788 553 740 l 553 844 l 603 844 m 307 43 q 426 65 392 43 q 470 147 461 88 q 479 353 479 206 q 470 560 479 501 q 426 642 461 619 q 307 665 392 665 q 188 642 222 665 q 144 560 153 619 q 135 353 135 501 q 144 147 135 206 q 188 65 153 88 q 307 43 222 43 m 290 839 l 186 1025 l 186 1032 l 256 1032 l 333 846 l 333 839 l 290 839 z "},"ở":{"ha":614,"x_min":74,"x_max":603,"o":"m 603 844 l 603 799 q 594 717 603 744 q 562 679 585 690 q 492 667 539 668 q 531 561 522 631 q 540 353 540 492 q 526 117 540 189 q 465 17 513 46 q 307 -11 417 -11 q 149 17 197 -11 q 88 117 101 46 q 74 353 74 189 q 88 589 74 517 q 149 690 101 661 q 307 719 197 719 q 422 708 382 719 l 485 708 q 541 724 529 708 q 553 788 553 740 l 553 844 l 603 844 m 307 43 q 426 65 392 43 q 470 147 461 88 q 479 353 479 206 q 470 560 479 501 q 426 642 461 619 q 307 665 392 665 q 188 642 222 665 q 144 560 153 619 q 135 353 135 501 q 144 147 135 206 q 188 65 153 88 q 307 43 222 43 m 251 860 q 263 901 251 889 q 304 922 275 913 l 326 928 q 375 950 363 939 q 388 989 388 961 q 381 1023 388 1013 q 353 1038 374 1033 q 289 1042 333 1042 q 175 1035 247 1042 l 175 1078 q 297 1086 256 1086 q 408 1067 379 1086 q 438 996 438 1047 q 426 935 438 956 q 375 901 415 915 l 354 894 q 315 881 325 886 q 301 869 304 875 q 299 846 299 863 l 251 846 l 251 860 z "},"ỡ":{"ha":614,"x_min":74,"x_max":603,"o":"m 603 844 l 603 799 q 594 717 603 744 q 562 679 585 690 q 492 667 539 668 q 531 561 522 631 q 540 353 540 492 q 526 117 540 189 q 465 17 513 46 q 307 -11 417 -11 q 149 17 197 -11 q 88 117 101 46 q 74 353 74 189 q 88 589 74 517 q 149 690 101 661 q 307 719 197 719 q 422 708 382 719 l 485 708 q 541 724 529 708 q 553 788 553 740 l 553 844 l 603 844 m 307 43 q 426 65 392 43 q 470 147 461 88 q 479 353 479 206 q 470 560 479 501 q 426 642 461 619 q 307 665 392 665 q 188 642 222 665 q 144 560 153 619 q 135 353 135 501 q 144 147 135 206 q 188 65 153 88 q 307 43 222 43 m 494 1032 q 479 924 494 954 q 418 894 464 894 q 366 903 392 894 q 299 931 340 913 q 272 943 293 933 q 232 958 250 953 q 199 964 214 964 q 170 946 176 964 q 164 879 164 928 l 119 879 q 135 987 119 957 q 196 1017 150 1017 q 248 1008 224 1017 q 319 979 272 1000 q 415 949 383 949 q 444 966 438 949 q 450 1032 450 983 l 494 1032 z "},"ő":{"ha":614,"x_min":74,"x_max":540,"o":"m 307 -11 q 149 17 197 -11 q 88 117 101 46 q 74 353 74 189 q 88 589 74 517 q 149 690 101 661 q 307 719 197 719 q 465 690 417 719 q 526 589 513 661 q 540 353 540 517 q 526 117 540 189 q 465 17 513 46 q 307 -11 417 -11 m 307 43 q 426 65 392 43 q 470 147 461 88 q 479 353 479 206 q 470 560 479 501 q 426 642 461 619 q 307 665 392 665 q 188 642 222 665 q 144 560 153 619 q 135 353 135 501 q 144 147 135 206 q 188 65 153 88 q 307 43 222 43 m 207 846 l 207 853 l 283 1019 l 350 1019 l 350 1013 l 249 846 l 207 846 m 389 846 l 389 853 l 465 1019 l 532 1019 l 532 1013 l 431 846 l 389 846 z "},"ȏ":{"ha":614,"x_min":74,"x_max":540,"o":"m 307 -11 q 149 17 197 -11 q 88 117 101 46 q 74 353 74 189 q 88 589 74 517 q 149 690 101 661 q 307 719 197 719 q 465 690 417 719 q 526 589 513 661 q 540 353 540 517 q 526 117 540 189 q 465 17 513 46 q 307 -11 417 -11 m 307 43 q 426 65 392 43 q 470 147 461 88 q 479 353 479 206 q 470 560 479 501 q 426 642 461 619 q 307 665 392 665 q 188 642 222 665 q 144 560 153 619 q 135 353 135 501 q 144 147 135 206 q 188 65 153 88 q 307 43 222 43 m 160 844 q 167 954 160 915 q 207 1017 175 993 q 307 1040 239 1040 q 406 1017 375 1040 q 445 955 438 993 q 453 844 453 917 l 403 844 q 398 934 403 904 q 373 980 393 964 q 307 996 353 996 q 241 980 261 996 q 216 934 221 964 q 211 844 211 904 l 160 844 z "},"ō":{"ha":614,"x_min":74,"x_max":540,"o":"m 307 -11 q 149 17 197 -11 q 88 117 101 46 q 74 353 74 189 q 88 589 74 517 q 149 690 101 661 q 307 719 197 719 q 465 690 417 719 q 526 589 513 661 q 540 353 540 517 q 526 117 540 189 q 465 17 513 46 q 307 -11 417 -11 m 307 43 q 426 65 392 43 q 470 147 461 88 q 479 353 479 206 q 470 560 479 501 q 426 642 461 619 q 307 665 392 665 q 188 642 222 665 q 144 560 153 619 q 135 353 135 501 q 144 147 135 206 q 188 65 153 88 q 307 43 222 43 m 175 971 l 175 1032 l 436 1032 l 436 971 l 175 971 z "},"ǫ":{"ha":614,"x_min":74,"x_max":540,"o":"m 307 719 q 465 690 417 719 q 526 589 513 661 q 540 353 540 517 q 528 124 540 194 q 472 22 515 53 q 406 -59 436 -4 q 375 -160 375 -114 q 439 -222 375 -222 q 463 -221 451 -222 l 463 -271 q 428 -272 450 -272 q 344 -244 371 -272 q 318 -171 318 -217 q 338 -88 318 -132 q 392 -7 358 -44 q 307 -11 356 -11 q 149 17 197 -11 q 88 117 101 46 q 74 353 74 189 q 88 589 74 517 q 149 690 101 661 q 307 719 197 719 m 307 43 q 426 65 392 43 q 470 147 461 88 q 479 353 479 206 q 470 560 479 501 q 426 642 461 619 q 307 665 392 665 q 188 642 222 665 q 144 560 153 619 q 135 353 135 501 q 144 147 135 206 q 188 65 153 88 q 307 43 222 43 z "},"ø":{"ha":614,"x_min":74,"x_max":540,"o":"m 488 672 q 531 568 521 638 q 540 353 540 499 q 526 117 540 189 q 465 17 513 46 q 307 -11 417 -11 q 171 7 214 -11 l 132 -76 l 74 -76 l 126 36 q 83 140 93 71 q 74 353 74 208 q 88 589 74 517 q 149 690 101 661 q 307 719 197 719 q 442 701 399 719 l 481 785 l 540 785 l 488 672 m 135 353 q 138 181 135 233 q 156 97 142 128 l 417 650 q 307 665 382 665 q 188 642 222 665 q 144 560 153 619 q 135 353 135 501 m 479 353 q 476 526 479 474 q 457 610 472 579 l 196 58 q 307 43 226 43 q 426 65 392 43 q 470 147 461 88 q 479 353 479 206 z "},"ǿ":{"ha":614,"x_min":74,"x_max":540,"o":"m 488 672 q 531 568 521 638 q 540 353 540 499 q 526 117 540 189 q 465 17 513 46 q 307 -11 417 -11 q 171 7 214 -11 l 132 -76 l 74 -76 l 126 36 q 83 140 93 71 q 74 353 74 208 q 88 589 74 517 q 149 690 101 661 q 307 719 197 719 q 442 701 399 719 l 481 785 l 540 785 l 488 672 m 135 353 q 138 181 135 233 q 156 97 142 128 l 417 650 q 307 665 382 665 q 188 642 222 665 q 144 560 153 619 q 135 353 135 501 m 479 353 q 476 526 479 474 q 457 610 472 579 l 196 58 q 307 43 226 43 q 426 65 392 43 q 470 147 461 88 q 479 353 479 206 m 281 839 l 281 846 l 358 1032 l 428 1032 l 428 1025 l 324 839 l 281 839 z "},"õ":{"ha":614,"x_min":74,"x_max":540,"o":"m 307 -11 q 149 17 197 -11 q 88 117 101 46 q 74 353 74 189 q 88 589 74 517 q 149 690 101 661 q 307 719 197 719 q 465 690 417 719 q 526 589 513 661 q 540 353 540 517 q 526 117 540 189 q 465 17 513 46 q 307 -11 417 -11 m 307 43 q 426 65 392 43 q 470 147 461 88 q 479 353 479 206 q 470 560 479 501 q 426 642 461 619 q 307 665 392 665 q 188 642 222 665 q 144 560 153 619 q 135 353 135 501 q 144 147 135 206 q 188 65 153 88 q 307 43 222 43 m 494 1032 q 479 924 494 954 q 418 894 464 894 q 366 903 392 894 q 299 931 340 913 q 272 943 293 933 q 232 958 250 953 q 199 964 214 964 q 170 946 176 964 q 164 879 164 928 l 119 879 q 135 987 119 957 q 196 1017 150 1017 q 248 1008 224 1017 q 319 979 272 1000 q 415 949 383 949 q 444 966 438 949 q 450 1032 450 983 l 494 1032 z "},"œ":{"ha":1003,"x_min":74,"x_max":929,"o":"m 929 333 l 540 333 q 552 148 540 206 q 603 67 564 90 q 728 43 642 43 q 821 49 769 43 q 910 63 872 54 l 910 7 q 823 -6 876 0 q 719 -11 769 -11 q 583 12 631 -11 q 511 90 535 35 q 445 10 490 32 q 307 -11 400 -11 q 149 17 197 -11 q 88 117 101 46 q 74 353 74 189 q 88 589 74 517 q 149 690 101 661 q 307 719 197 719 q 443 699 397 719 q 510 624 489 678 q 581 697 533 675 q 717 719 628 719 q 861 688 817 719 q 917 585 906 656 q 929 356 929 514 l 929 333 m 307 43 q 426 65 392 43 q 470 147 461 88 q 479 353 479 206 q 470 560 479 501 q 426 642 461 619 q 307 665 392 665 q 188 642 222 665 q 144 560 153 619 q 135 353 135 501 q 144 147 135 206 q 188 65 153 88 q 307 43 222 43 m 714 665 q 599 646 633 665 q 553 571 564 626 q 540 386 542 515 l 869 386 l 869 411 q 856 579 869 526 q 812 649 843 632 q 714 665 781 665 z "},"p":{"ha":631,"x_min":99,"x_max":557,"o":"m 99 708 l 149 708 l 153 603 l 160 603 q 225 696 179 672 q 343 719 271 719 q 478 690 433 719 q 540 583 524 660 q 557 354 557 507 q 540 125 557 201 q 479 19 524 49 q 343 -11 435 -11 q 226 13 269 -11 q 165 93 183 38 l 160 93 l 160 -268 l 99 -268 l 99 708 m 326 44 q 438 66 404 44 q 484 149 472 88 q 496 354 496 211 q 484 559 496 497 q 438 642 472 621 q 326 664 404 664 q 224 638 261 664 q 174 556 188 613 q 162 475 164 518 q 160 354 160 432 q 171 165 160 213 q 224 72 188 100 q 326 44 261 44 z "},"þ":{"ha":631,"x_min":99,"x_max":557,"o":"m 99 1032 l 160 1032 l 160 614 l 165 614 q 226 695 183 671 q 343 719 269 719 q 478 690 433 719 q 540 583 524 660 q 557 354 557 507 q 540 125 557 201 q 479 19 524 49 q 343 -11 435 -11 q 226 13 269 -11 q 165 93 183 38 l 160 93 l 160 -264 l 99 -264 l 99 1032 m 326 44 q 438 66 404 44 q 484 149 472 88 q 496 354 496 211 q 484 559 496 497 q 438 642 472 621 q 326 664 404 664 q 224 638 261 664 q 172 549 188 611 q 162 474 164 515 q 160 354 160 432 q 169 171 160 215 q 224 73 186 101 q 326 44 261 44 z "},"q":{"ha":631,"x_min":74,"x_max":532,"o":"m 471 93 l 465 93 q 404 13 447 38 q 288 -11 361 -11 q 151 19 196 -11 q 90 124 107 49 q 74 354 74 200 q 90 583 74 507 q 152 690 107 660 q 288 719 197 719 q 405 696 358 719 q 471 603 451 672 l 476 603 l 482 708 l 532 708 l 532 -268 l 471 -268 l 471 93 m 304 44 q 405 71 368 44 q 457 157 442 97 q 471 354 471 218 q 468 474 471 428 q 454 564 465 521 q 405 640 442 615 q 304 664 368 664 q 192 642 226 664 q 147 559 158 621 q 135 354 135 497 q 147 149 135 211 q 192 66 158 88 q 304 44 226 44 z "},"r":{"ha":376,"x_min":99,"x_max":350,"o":"m 99 708 l 147 708 l 153 569 l 160 569 q 225 688 178 656 q 350 719 272 719 l 350 657 q 232 623 274 657 q 175 524 190 589 q 160 354 160 460 l 160 0 l 99 0 l 99 708 z "},"ŕ":{"ha":376,"x_min":99,"x_max":350,"o":"m 99 708 l 147 708 l 153 569 l 160 569 q 225 688 178 656 q 350 719 272 719 l 350 657 q 232 623 274 657 q 175 524 190 589 q 160 354 160 460 l 160 0 l 99 0 l 99 708 m 163 839 l 163 846 l 240 1032 l 310 1032 l 310 1025 l 206 839 l 163 839 z "},"ř":{"ha":376,"x_min":40,"x_max":350,"o":"m 99 708 l 147 708 l 153 569 l 160 569 q 225 688 178 656 q 350 719 272 719 l 350 657 q 232 623 274 657 q 175 524 190 589 q 160 354 160 460 l 160 0 l 99 0 l 99 708 m 151 840 l 40 1025 l 40 1032 l 86 1032 l 189 886 l 290 1032 l 336 1032 l 336 1025 l 226 840 l 151 840 z "},"ŗ":{"ha":376,"x_min":75,"x_max":350,"o":"m 99 708 l 147 708 l 153 569 l 160 569 q 225 688 178 656 q 350 719 272 719 l 350 657 q 232 623 274 657 q 175 524 190 589 q 160 354 160 460 l 160 0 l 99 0 l 99 708 m 75 -293 q 129 -276 118 -293 q 140 -208 140 -260 l 140 -185 l 108 -185 l 108 -86 l 185 -86 l 185 -192 q 176 -276 185 -247 q 144 -315 167 -304 q 75 -326 121 -326 l 75 -293 z "},"ȑ":{"ha":376,"x_min":-18,"x_max":350,"o":"m 99 708 l 147 708 l 153 569 l 160 569 q 225 688 178 656 q 350 719 272 719 l 350 657 q 232 623 274 657 q 175 524 190 589 q 160 354 160 460 l 160 0 l 99 0 l 99 708 m 125 846 l 83 846 l -18 1013 l -18 1019 l 49 1019 l 125 853 l 125 846 m 307 846 l 265 846 l 164 1013 l 164 1019 l 231 1019 l 307 853 l 307 846 z "},"ṛ":{"ha":376,"x_min":92,"x_max":350,"o":"m 99 708 l 147 708 l 153 569 l 160 569 q 225 688 178 656 q 350 719 272 719 l 350 657 q 232 623 274 657 q 175 524 190 589 q 160 354 160 460 l 160 0 l 99 0 l 99 708 m 92 -185 l 92 -86 l 168 -86 l 168 -185 l 92 -185 z "},"ȓ":{"ha":376,"x_min":42,"x_max":350,"o":"m 99 708 l 147 708 l 153 569 l 160 569 q 225 688 178 656 q 350 719 272 719 l 350 657 q 232 623 274 657 q 175 524 190 589 q 160 354 160 460 l 160 0 l 99 0 l 99 708 m 42 844 q 49 954 42 915 q 89 1017 57 993 q 189 1040 121 1040 q 288 1017 257 1040 q 327 955 319 993 q 335 844 335 917 l 285 844 q 280 934 285 904 q 255 980 275 964 q 189 996 235 996 q 123 980 143 996 q 98 934 103 964 q 93 844 93 904 l 42 844 z "},"s":{"ha":526,"x_min":60,"x_max":467,"o":"m 258 -11 q 163 -7 214 -11 q 76 4 111 -3 l 76 60 q 268 43 164 43 q 378 78 351 43 q 406 186 406 113 q 399 274 406 247 q 377 308 392 300 q 326 321 363 317 l 178 342 q 85 390 110 351 q 60 517 60 429 q 85 644 60 600 q 156 704 110 689 q 275 719 201 719 q 361 715 315 719 q 438 703 407 710 l 438 647 q 261 665 365 665 q 156 638 190 665 q 121 525 121 610 q 128 447 121 472 q 151 411 135 421 q 199 397 167 401 l 344 379 q 419 356 394 372 q 456 301 444 340 q 467 188 467 263 q 419 33 467 76 q 258 -11 371 -11 z "},"ś":{"ha":526,"x_min":60,"x_max":467,"o":"m 258 -11 q 163 -7 214 -11 q 76 4 111 -3 l 76 60 q 268 43 164 43 q 378 78 351 43 q 406 186 406 113 q 399 274 406 247 q 377 308 392 300 q 326 321 363 317 l 178 342 q 85 390 110 351 q 60 517 60 429 q 85 644 60 600 q 156 704 110 689 q 275 719 201 719 q 361 715 315 719 q 438 703 407 710 l 438 647 q 261 665 365 665 q 156 638 190 665 q 121 525 121 610 q 128 447 121 472 q 151 411 135 421 q 199 397 167 401 l 344 379 q 419 356 394 372 q 456 301 444 340 q 467 188 467 263 q 419 33 467 76 q 258 -11 371 -11 m 236 839 l 236 846 l 314 1032 l 383 1032 l 383 1025 l 279 839 l 236 839 z "},"ꞌ":{"ha":132,"x_min":33,"x_max":99,"o":"m 33 406 l 33 1032 l 99 1032 l 99 710 l 75 406 l 33 406 z "},"š":{"ha":526,"x_min":60,"x_max":467,"o":"m 258 -11 q 163 -7 214 -11 q 76 4 111 -3 l 76 60 q 268 43 164 43 q 378 78 351 43 q 406 186 406 113 q 399 274 406 247 q 377 308 392 300 q 326 321 363 317 l 178 342 q 85 390 110 351 q 60 517 60 429 q 85 644 60 600 q 156 704 110 689 q 275 719 201 719 q 361 715 315 719 q 438 703 407 710 l 438 647 q 261 665 365 665 q 156 638 190 665 q 121 525 121 610 q 128 447 121 472 q 151 411 135 421 q 199 397 167 401 l 344 379 q 419 356 394 372 q 456 301 444 340 q 467 188 467 263 q 419 33 467 76 q 258 -11 371 -11 m 231 840 l 119 1025 l 119 1032 l 165 1032 l 268 886 l 369 1032 l 415 1032 l 415 1025 l 306 840 l 231 840 z "},"ş":{"ha":526,"x_min":60,"x_max":467,"o":"m 467 188 q 424 38 467 82 q 282 -11 382 -7 l 225 -264 l 158 -264 l 158 -257 l 233 -11 q 76 4 150 -10 l 76 60 q 268 43 164 43 q 378 78 351 43 q 406 186 406 113 q 399 274 406 247 q 377 308 392 300 q 326 321 363 317 l 178 342 q 85 390 110 351 q 60 517 60 429 q 85 644 60 600 q 156 704 110 689 q 275 719 201 719 q 361 715 315 719 q 438 703 407 710 l 438 647 q 261 665 365 665 q 156 638 190 665 q 121 525 121 610 q 128 447 121 472 q 151 411 135 421 q 199 397 167 401 l 344 379 q 419 356 394 372 q 456 301 444 340 q 467 188 467 263 z "},"ŝ":{"ha":526,"x_min":60,"x_max":467,"o":"m 258 -11 q 163 -7 214 -11 q 76 4 111 -3 l 76 60 q 268 43 164 43 q 378 78 351 43 q 406 186 406 113 q 399 274 406 247 q 377 308 392 300 q 326 321 363 317 l 178 342 q 85 390 110 351 q 60 517 60 429 q 85 644 60 600 q 156 704 110 689 q 275 719 201 719 q 361 715 315 719 q 438 703 407 710 l 438 647 q 261 665 365 665 q 156 638 190 665 q 121 525 121 610 q 128 447 121 472 q 151 411 135 421 q 199 397 167 401 l 344 379 q 419 356 394 372 q 456 301 444 340 q 467 188 467 263 q 419 33 467 76 q 258 -11 371 -11 m 115 840 l 115 847 l 225 1032 l 300 1032 l 410 847 l 410 840 l 364 840 l 263 986 l 160 840 l 115 840 z "},"ș":{"ha":526,"x_min":60,"x_max":467,"o":"m 258 -11 q 163 -7 214 -11 q 76 4 111 -3 l 76 60 q 268 43 164 43 q 378 78 351 43 q 406 186 406 113 q 399 274 406 247 q 377 308 392 300 q 326 321 363 317 l 178 342 q 85 390 110 351 q 60 517 60 429 q 85 644 60 600 q 156 704 110 689 q 275 719 201 719 q 361 715 315 719 q 438 703 407 710 l 438 647 q 261 665 365 665 q 156 638 190 665 q 121 525 121 610 q 128 447 121 472 q 151 411 135 421 q 199 397 167 401 l 344 379 q 419 356 394 372 q 456 301 444 340 q 467 188 467 263 q 419 33 467 76 q 258 -11 371 -11 m 208 -293 q 263 -276 251 -293 q 274 -208 274 -260 l 274 -185 l 242 -185 l 242 -86 l 318 -86 l 318 -192 q 309 -276 318 -247 q 277 -315 300 -304 q 208 -326 254 -326 l 208 -293 z "},"ṣ":{"ha":526,"x_min":60,"x_max":467,"o":"m 258 -11 q 163 -7 214 -11 q 76 4 111 -3 l 76 60 q 268 43 164 43 q 378 78 351 43 q 406 186 406 113 q 399 274 406 247 q 377 308 392 300 q 326 321 363 317 l 178 342 q 85 390 110 351 q 60 517 60 429 q 85 644 60 600 q 156 704 110 689 q 275 719 201 719 q 361 715 315 719 q 438 703 407 710 l 438 647 q 261 665 365 665 q 156 638 190 665 q 121 525 121 610 q 128 447 121 472 q 151 411 135 421 q 199 397 167 401 l 344 379 q 419 356 394 372 q 456 301 444 340 q 467 188 467 263 q 419 33 467 76 q 258 -11 371 -11 m 225 -185 l 225 -86 l 301 -86 l 301 -185 l 225 -185 z "},"ß":{"ha":649,"x_min":99,"x_max":574,"o":"m 272 0 l 272 54 l 333 54 q 453 72 418 54 q 499 144 488 89 q 511 329 511 199 q 497 486 511 432 q 448 563 482 540 q 349 585 414 585 l 310 585 l 310 639 l 349 639 q 468 678 433 639 q 503 811 503 718 q 465 949 503 911 q 331 988 428 988 q 230 968 267 988 q 176 902 193 949 q 158 771 158 856 l 158 0 l 99 0 l 99 767 q 122 929 99 869 q 197 1015 146 989 q 335 1042 249 1042 q 512 990 460 1042 q 564 811 564 939 q 534 676 564 721 q 436 619 504 632 l 436 614 q 540 536 507 599 q 574 340 574 474 q 558 133 574 204 q 494 31 542 63 q 353 0 447 0 l 272 0 z "},"ſ":{"ha":344,"x_min":32,"x_max":336,"o":"m 139 654 l 32 654 l 32 708 l 139 708 l 139 858 q 160 972 139 935 q 221 1020 181 1008 q 336 1032 261 1032 l 336 981 q 252 972 281 981 q 212 940 224 964 q 200 868 200 917 l 200 0 l 139 0 l 139 654 z "},"t":{"ha":358,"x_min":31,"x_max":326,"o":"m 139 0 l 139 654 l 31 654 l 31 708 l 139 708 l 139 914 l 200 914 l 200 708 l 326 708 l 326 654 l 200 654 l 200 0 l 139 0 z "},"ŧ":{"ha":358,"x_min":31,"x_max":326,"o":"m 326 654 l 200 654 l 200 386 l 321 386 l 321 332 l 200 332 l 200 0 l 139 0 l 139 332 l 43 332 l 43 386 l 139 386 l 139 654 l 31 654 l 31 708 l 139 708 l 139 914 l 200 914 l 200 708 l 326 708 l 326 654 z "},"ť":{"ha":368,"x_min":31,"x_max":451,"o":"m 139 0 l 139 654 l 31 654 l 31 708 l 139 708 l 139 914 l 200 914 l 200 708 l 326 708 l 326 654 l 200 654 l 200 0 l 139 0 m 369 628 l 386 836 l 386 956 l 451 956 l 451 836 l 410 628 l 369 628 z "},"ţ":{"ha":358,"x_min":31,"x_max":326,"o":"m 200 708 l 326 708 l 326 654 l 200 654 l 200 0 l 192 0 l 133 -264 l 67 -264 l 67 -257 l 146 0 l 139 0 l 139 654 l 31 654 l 31 708 l 139 708 l 139 914 l 200 914 l 200 708 z "},"ț":{"ha":358,"x_min":31,"x_max":326,"o":"m 139 0 l 139 654 l 31 654 l 31 708 l 139 708 l 139 914 l 200 914 l 200 708 l 326 708 l 326 654 l 200 654 l 200 0 l 139 0 m 117 -293 q 171 -276 160 -293 q 182 -208 182 -260 l 182 -185 l 150 -185 l 150 -86 l 226 -86 l 226 -192 q 217 -276 226 -247 q 185 -315 208 -304 q 117 -326 163 -326 l 117 -293 z "},"ṭ":{"ha":358,"x_min":31,"x_max":326,"o":"m 139 0 l 139 654 l 31 654 l 31 708 l 139 708 l 139 914 l 200 914 l 200 708 l 326 708 l 326 654 l 200 654 l 200 0 l 139 0 m 133 -185 l 133 -86 l 210 -86 l 210 -185 l 133 -185 z "},"u":{"ha":635,"x_min":94,"x_max":536,"o":"m 481 106 l 475 106 q 418 20 460 51 q 289 -11 376 -11 q 164 15 206 -11 q 108 99 122 42 q 94 263 94 156 l 94 708 l 156 708 l 156 278 q 167 125 156 172 q 209 61 178 78 q 307 44 240 44 q 422 81 386 44 q 467 176 458 118 q 475 342 475 235 l 475 708 l 536 708 l 536 0 l 486 0 l 481 106 z "},"ú":{"ha":635,"x_min":94,"x_max":536,"o":"m 481 106 l 475 106 q 418 20 460 51 q 289 -11 376 -11 q 164 15 206 -11 q 108 99 122 42 q 94 263 94 156 l 94 708 l 156 708 l 156 278 q 167 125 156 172 q 209 61 178 78 q 307 44 240 44 q 422 81 386 44 q 467 176 458 118 q 475 342 475 235 l 475 708 l 536 708 l 536 0 l 486 0 l 481 106 m 292 839 l 292 846 l 369 1032 l 439 1032 l 439 1025 l 335 839 l 292 839 z "},"ŭ":{"ha":635,"x_min":94,"x_max":536,"o":"m 481 106 l 475 106 q 418 20 460 51 q 289 -11 376 -11 q 164 15 206 -11 q 108 99 122 42 q 94 263 94 156 l 94 708 l 156 708 l 156 278 q 167 125 156 172 q 209 61 178 78 q 307 44 240 44 q 422 81 386 44 q 467 176 458 118 q 475 342 475 235 l 475 708 l 536 708 l 536 0 l 486 0 l 481 106 m 463 1032 q 455 922 463 961 q 415 860 447 883 q 315 836 383 836 q 216 860 247 836 q 177 922 185 883 q 169 1032 169 960 l 219 1032 q 224 942 219 972 q 249 897 229 913 q 315 881 269 881 q 381 897 361 881 q 406 942 401 913 q 411 1032 411 972 l 463 1032 z "},"ǔ":{"ha":635,"x_min":94,"x_max":536,"o":"m 481 106 l 475 106 q 418 20 460 51 q 289 -11 376 -11 q 164 15 206 -11 q 108 99 122 42 q 94 263 94 156 l 94 708 l 156 708 l 156 278 q 167 125 156 172 q 209 61 178 78 q 307 44 240 44 q 422 81 386 44 q 467 176 458 118 q 475 342 475 235 l 475 708 l 536 708 l 536 0 l 486 0 l 481 106 m 279 840 l 168 1025 l 168 1032 l 214 1032 l 317 886 l 418 1032 l 464 1032 l 464 1025 l 354 840 l 279 840 z "},"û":{"ha":635,"x_min":94,"x_max":536,"o":"m 481 106 l 475 106 q 418 20 460 51 q 289 -11 376 -11 q 164 15 206 -11 q 108 99 122 42 q 94 263 94 156 l 94 708 l 156 708 l 156 278 q 167 125 156 172 q 209 61 178 78 q 307 44 240 44 q 422 81 386 44 q 467 176 458 118 q 475 342 475 235 l 475 708 l 536 708 l 536 0 l 486 0 l 481 106 m 169 840 l 169 847 l 279 1032 l 354 1032 l 464 847 l 464 840 l 418 840 l 317 986 l 214 840 l 169 840 z "},"ȕ":{"ha":635,"x_min":94,"x_max":536,"o":"m 481 106 l 475 106 q 418 20 460 51 q 289 -11 376 -11 q 164 15 206 -11 q 108 99 122 42 q 94 263 94 156 l 94 708 l 156 708 l 156 278 q 167 125 156 172 q 209 61 178 78 q 307 44 240 44 q 422 81 386 44 q 467 176 458 118 q 475 342 475 235 l 475 708 l 536 708 l 536 0 l 486 0 l 481 106 m 253 846 l 211 846 l 110 1013 l 110 1019 l 176 1019 l 253 853 l 253 846 m 435 846 l 393 846 l 292 1013 l 292 1019 l 358 1019 l 435 853 l 435 846 z "},"ü":{"ha":635,"x_min":94,"x_max":536,"o":"m 481 106 l 475 106 q 418 20 460 51 q 289 -11 376 -11 q 164 15 206 -11 q 108 99 122 42 q 94 263 94 156 l 94 708 l 156 708 l 156 278 q 167 125 156 172 q 209 61 178 78 q 307 44 240 44 q 422 81 386 44 q 467 176 458 118 q 475 342 475 235 l 475 708 l 536 708 l 536 0 l 486 0 l 481 106 m 160 922 l 160 1013 l 228 1013 l 228 922 l 160 922 m 403 922 l 403 1013 l 469 1013 l 469 922 l 403 922 z "},"ǘ":{"ha":635,"x_min":94,"x_max":536,"o":"m 481 106 l 475 106 q 418 20 460 51 q 289 -11 376 -11 q 164 15 206 -11 q 108 99 122 42 q 94 263 94 156 l 94 708 l 156 708 l 156 278 q 167 125 156 172 q 209 61 178 78 q 307 44 240 44 q 422 81 386 44 q 467 176 458 118 q 475 342 475 235 l 475 708 l 536 708 l 536 0 l 486 0 l 481 106 m 161 924 l 161 1014 l 229 1014 l 229 924 l 161 924 m 404 924 l 404 1014 l 471 1014 l 471 924 l 404 924 m 293 1061 l 293 1068 l 371 1254 l 440 1254 l 440 1247 l 336 1061 l 293 1061 z "},"ǚ":{"ha":635,"x_min":94,"x_max":536,"o":"m 481 106 l 475 106 q 418 20 460 51 q 289 -11 376 -11 q 164 15 206 -11 q 108 99 122 42 q 94 263 94 156 l 94 708 l 156 708 l 156 278 q 167 125 156 172 q 209 61 178 78 q 307 44 240 44 q 422 81 386 44 q 467 176 458 118 q 475 342 475 235 l 475 708 l 536 708 l 536 0 l 486 0 l 481 106 m 161 924 l 161 1014 l 229 1014 l 229 924 l 161 924 m 404 924 l 404 1014 l 471 1014 l 471 924 l 404 924 m 282 1063 l 171 1247 l 171 1254 l 217 1254 l 319 1108 l 421 1254 l 467 1254 l 467 1247 l 357 1063 l 282 1063 z "},"ǜ":{"ha":635,"x_min":94,"x_max":536,"o":"m 481 106 l 475 106 q 418 20 460 51 q 289 -11 376 -11 q 164 15 206 -11 q 108 99 122 42 q 94 263 94 156 l 94 708 l 156 708 l 156 278 q 167 125 156 172 q 209 61 178 78 q 307 44 240 44 q 422 81 386 44 q 467 176 458 118 q 475 342 475 235 l 475 708 l 536 708 l 536 0 l 486 0 l 481 106 m 161 924 l 161 1014 l 229 1014 l 229 924 l 161 924 m 404 924 l 404 1014 l 471 1014 l 471 924 l 404 924 m 303 1061 l 199 1247 l 199 1254 l 268 1254 l 346 1068 l 346 1061 l 303 1061 z "},"ǖ":{"ha":635,"x_min":94,"x_max":536,"o":"m 481 106 l 475 106 q 418 20 460 51 q 289 -11 376 -11 q 164 15 206 -11 q 108 99 122 42 q 94 263 94 156 l 94 708 l 156 708 l 156 278 q 167 125 156 172 q 209 61 178 78 q 307 44 240 44 q 422 81 386 44 q 467 176 458 118 q 475 342 475 235 l 475 708 l 536 708 l 536 0 l 486 0 l 481 106 m 161 924 l 161 1014 l 229 1014 l 229 924 l 161 924 m 404 924 l 404 1014 l 471 1014 l 471 924 l 404 924 m 188 1193 l 188 1254 l 449 1254 l 449 1193 l 188 1193 z "},"ụ":{"ha":635,"x_min":94,"x_max":536,"o":"m 481 106 l 475 106 q 418 20 460 51 q 289 -11 376 -11 q 164 15 206 -11 q 108 99 122 42 q 94 263 94 156 l 94 708 l 156 708 l 156 278 q 167 125 156 172 q 209 61 178 78 q 307 44 240 44 q 422 81 386 44 q 467 176 458 118 q 475 342 475 235 l 475 708 l 536 708 l 536 0 l 486 0 l 481 106 m 265 -185 l 265 -86 l 342 -86 l 342 -185 l 265 -185 z "}}}
